<svg width="1241" height="38" viewBox="0 0 1241 38" fill="none" xmlns="http://www.w3.org/2000/svg">
<path fill-rule="evenodd" clip-rule="evenodd" d="M0 26.2V11.8C0 9.14903 2.14903 7 4.8 7H19.2V11.8H24V26.2C24 28.851 21.851 31 19.2 31H4.8V26.2H0ZM16.8 14.2H7.2V23.8H16.8V14.2Z" fill="#3D544D"/>
<path d="M106.704 26.2001V11.6001H109.464V17.0201H109.504C109.931 16.5401 110.411 16.1868 110.944 15.9601C111.491 15.7201 112.124 15.6001 112.844 15.6001C114.124 15.6001 115.057 15.9401 115.644 16.6201C116.231 17.2868 116.517 18.3468 116.504 19.8001V26.2001H113.764V20.3401C113.777 19.4734 113.631 18.8468 113.324 18.4601C113.031 18.0601 112.564 17.8601 111.924 17.8601C111.444 17.8601 111.017 17.9601 110.644 18.1601C110.284 18.3468 109.997 18.6068 109.784 18.9401C109.571 19.2734 109.464 19.6534 109.464 20.0801V26.2001H106.704Z" fill="black"/>
<path d="M100.807 26.4001C100.341 26.4001 99.8406 26.3668 99.3073 26.3001C98.7873 26.2468 98.2873 26.1668 97.8073 26.0601C97.3273 25.9401 96.9073 25.8068 96.5473 25.6601L96.8873 23.5601C97.5273 23.7868 98.1406 23.9601 98.7273 24.0801C99.3273 24.2001 99.9206 24.2601 100.507 24.2601C101.174 24.2601 101.661 24.1734 101.967 24.0001C102.274 23.8268 102.427 23.5601 102.427 23.2001C102.427 22.9868 102.374 22.8134 102.267 22.6801C102.161 22.5468 101.967 22.4268 101.687 22.3201C101.421 22.2001 101.041 22.0868 100.547 21.9801C99.6939 21.7668 98.9606 21.5201 98.3473 21.2401C97.7473 20.9468 97.2873 20.5868 96.9673 20.1601C96.6473 19.7334 96.4873 19.2134 96.4873 18.6001C96.4873 17.6134 96.8606 16.8668 97.6073 16.3601C98.3539 15.8534 99.4406 15.6001 100.867 15.6001C101.521 15.6001 102.194 15.6534 102.887 15.7601C103.594 15.8668 104.254 16.0201 104.867 16.2201L104.527 18.3201C103.941 18.1201 103.374 17.9734 102.827 17.8801C102.281 17.7868 101.747 17.7401 101.227 17.7401C100.561 17.7401 100.067 17.8201 99.7473 17.9801C99.4273 18.1268 99.2673 18.3601 99.2673 18.6801C99.2673 18.8668 99.3206 19.0268 99.4273 19.1601C99.5339 19.2934 99.7206 19.4134 99.9873 19.5201C100.254 19.6268 100.627 19.7334 101.107 19.8401C101.734 19.9868 102.301 20.1601 102.807 20.3601C103.314 20.5601 103.747 20.8001 104.107 21.0801C104.467 21.3468 104.741 21.6601 104.927 22.0201C105.127 22.3801 105.227 22.7934 105.227 23.2601C105.227 23.9001 105.047 24.4601 104.687 24.9401C104.327 25.4068 103.814 25.7668 103.147 26.0201C102.494 26.2734 101.714 26.4001 100.807 26.4001Z" fill="black"/>
<path d="M89.0563 26.4001C88.0296 26.4001 87.2163 26.1134 86.6163 25.5401C86.0296 24.9668 85.7363 24.2001 85.7363 23.2401C85.7363 22.0401 86.203 21.1134 87.1363 20.4601C88.083 19.8068 89.423 19.4801 91.1563 19.4801H92.5363C92.5363 19.0134 92.4763 18.6534 92.3563 18.4001C92.2496 18.1468 92.0563 17.9734 91.7763 17.8801C91.5096 17.7734 91.123 17.7201 90.6163 17.7201C89.9496 17.7201 89.2563 17.7934 88.5363 17.9401C87.8163 18.0734 87.1363 18.2668 86.4963 18.5201L86.1563 16.4001C86.8496 16.1468 87.6163 15.9534 88.4563 15.8201C89.3096 15.6734 90.1563 15.6001 90.9963 15.6001C92.063 15.6001 92.903 15.7268 93.5163 15.9801C94.1296 16.2334 94.5763 16.6601 94.8563 17.2601C95.1363 17.8468 95.2763 18.6401 95.2763 19.6401V26.2001H92.6563L92.6163 25.0001H92.5963C92.223 25.4268 91.7096 25.7668 91.0563 26.0201C90.403 26.2734 89.7363 26.4001 89.0563 26.4001ZM90.0563 24.3201C90.523 24.3201 90.943 24.2401 91.3163 24.0801C91.6896 23.9201 91.983 23.7001 92.1963 23.4201C92.423 23.1268 92.5363 22.8068 92.5363 22.4601V21.2801H91.5563C90.4763 21.2801 89.6696 21.4201 89.1363 21.7001C88.603 21.9668 88.3363 22.3868 88.3363 22.9601C88.3363 23.3868 88.483 23.7201 88.7763 23.9601C89.083 24.2001 89.5096 24.3201 90.0563 24.3201Z" fill="black"/>
<path d="M81.4362 26.4001C80.2229 26.4001 79.1829 26.1868 78.3162 25.7601C77.4496 25.3334 76.7896 24.7201 76.3362 23.9201C75.8829 23.1068 75.6562 22.1334 75.6562 21.0001C75.6562 19.8534 75.8829 18.8801 76.3362 18.0801C76.7896 17.2801 77.4496 16.6668 78.3162 16.2401C79.1829 15.8134 80.2229 15.6001 81.4362 15.6001C82.0495 15.6001 82.6229 15.6601 83.1562 15.7801C83.6895 15.9001 84.2096 16.0934 84.7162 16.3601L84.2762 18.4601C83.8095 18.2068 83.3562 18.0268 82.9162 17.9201C82.4895 17.8001 82.0629 17.7401 81.6362 17.7401C80.6229 17.7401 79.8362 18.0201 79.2762 18.5801C78.7296 19.1401 78.4562 19.9468 78.4562 21.0001C78.4562 22.0401 78.7296 22.8468 79.2762 23.4201C79.8362 23.9801 80.6229 24.2601 81.6362 24.2601C82.0629 24.2601 82.4895 24.2068 82.9162 24.1001C83.3562 23.9801 83.8095 23.7934 84.2762 23.5401L84.7162 25.6401C84.2096 25.9068 83.6895 26.1001 83.1562 26.2201C82.6229 26.3401 82.0495 26.4001 81.4362 26.4001Z" fill="black"/>
<path d="M65.7619 26.4001C63.8952 26.4001 62.4552 25.9334 61.4419 25.0001C60.4419 24.0668 59.9419 22.7334 59.9419 21.0001C59.9419 19.3201 60.4019 18.0001 61.3219 17.0401C62.2419 16.0801 63.5085 15.6001 65.1219 15.6001C66.6819 15.6001 67.8819 16.0534 68.7219 16.9601C69.5752 17.8668 70.0019 19.1534 70.0019 20.8201C70.0019 21.0068 69.9952 21.2201 69.9819 21.4601C69.9819 21.7001 69.9752 21.8801 69.9619 22.0001H61.4819V20.1001H67.8219L67.4419 20.6801C67.4419 19.6401 67.2485 18.8668 66.8619 18.3601C66.4885 17.8534 65.9085 17.6001 65.1219 17.6001C64.2952 17.6001 63.6752 17.8668 63.2619 18.4001C62.8485 18.9201 62.6419 19.7001 62.6419 20.7401V21.5401C62.6419 22.4734 62.8885 23.1601 63.3819 23.6001C63.8752 24.0401 64.6285 24.2601 65.6419 24.2601C66.2152 24.2601 66.8219 24.2068 67.4619 24.1001C68.1019 23.9934 68.6685 23.8468 69.1619 23.6601L69.4819 25.7601C68.9885 25.9601 68.4085 26.1134 67.7419 26.2201C67.0885 26.3401 66.4285 26.4001 65.7619 26.4001Z" fill="black"/>
<path d="M55.5024 26.2001V11.6001H58.3024V26.2001H55.5024Z" fill="black"/>
<path d="M50.3213 14.1401V11.6001H53.1213V14.1401H50.3213ZM50.3213 26.2001V15.9401H53.1213V26.2001H50.3213Z" fill="black"/>
<path d="M36 26.2001V11.6001H38.92L45.02 21.5401H45.06V11.6001H47.86V26.2001H44.92L38.84 16.2601H38.8V26.2001H36Z" fill="black"/>
<path d="M481.073 23.3202C480.699 23.3202 480.31 23.2935 479.905 23.2402C479.51 23.1975 479.131 23.1335 478.769 23.0482C478.406 22.9522 478.086 22.8455 477.809 22.7282L478.049 21.3202C478.518 21.4908 478.993 21.6295 479.473 21.7362C479.953 21.8322 480.427 21.8802 480.897 21.8802C481.515 21.8802 481.974 21.7948 482.273 21.6242C482.582 21.4428 482.737 21.1762 482.737 20.8242C482.737 20.6215 482.683 20.4562 482.577 20.3282C482.47 20.1895 482.283 20.0668 482.017 19.9602C481.75 19.8428 481.382 19.7308 480.913 19.6242C480.273 19.4642 479.713 19.2775 479.233 19.0642C478.763 18.8508 478.401 18.5788 478.145 18.2482C477.889 17.9175 477.761 17.5015 477.761 17.0002C477.761 16.2428 478.049 15.6668 478.625 15.2722C479.211 14.8775 480.054 14.6802 481.153 14.6802C481.665 14.6802 482.187 14.7228 482.721 14.8082C483.265 14.8935 483.761 15.0162 484.209 15.1762L483.953 16.5842C483.526 16.4242 483.094 16.3068 482.657 16.2322C482.23 16.1575 481.798 16.1202 481.361 16.1202C480.731 16.1202 480.262 16.2002 479.953 16.3602C479.654 16.5095 479.505 16.7388 479.505 17.0482C479.505 17.2295 479.553 17.3842 479.649 17.5122C479.755 17.6402 479.937 17.7575 480.193 17.8642C480.449 17.9708 480.806 18.0775 481.265 18.1842C481.734 18.2908 482.161 18.4188 482.545 18.5682C482.939 18.7175 483.281 18.8988 483.569 19.1122C483.857 19.3148 484.081 19.5602 484.241 19.8482C484.401 20.1362 484.481 20.4775 484.481 20.8722C484.481 21.3842 484.342 21.8215 484.065 22.1842C483.798 22.5468 483.409 22.8295 482.897 23.0322C482.395 23.2242 481.787 23.3202 481.073 23.3202Z" fill="black"/>
<path d="M471.415 23.32C469.9 23.32 468.748 22.968 467.959 22.264C467.169 21.5493 466.775 20.5146 466.775 19.16V11.48H468.535V18.84C468.535 19.8426 468.764 20.5733 469.223 21.032C469.681 21.4906 470.412 21.72 471.415 21.72C472.417 21.72 473.148 21.4906 473.607 21.032C474.065 20.5733 474.295 19.8426 474.295 18.84V11.48H476.055V19.16C476.055 20.5146 475.66 21.5493 474.871 22.264C474.092 22.968 472.94 23.32 471.415 23.32Z" fill="black"/>
<path d="M454.387 26.5198L455.827 23.0798L452.499 14.8558L454.355 14.8398L456.675 21.2718H456.707L459.123 14.8398H460.979L456.211 26.5198H454.387Z" fill="black"/>
<path d="M444.009 23.16V11.48H445.737V15.832H445.769C446.1 15.448 446.494 15.16 446.953 14.968C447.412 14.776 447.94 14.68 448.537 14.68C449.572 14.68 450.329 14.952 450.809 15.496C451.3 16.04 451.54 16.888 451.529 18.04V23.16H449.801V18.36C449.812 17.592 449.673 17.0266 449.385 16.664C449.097 16.3013 448.654 16.12 448.057 16.12C447.609 16.12 447.209 16.2106 446.857 16.392C446.516 16.5733 446.244 16.824 446.041 17.144C445.849 17.4533 445.748 17.8106 445.737 18.216V23.16H444.009Z" fill="black"/>
<path d="M431.008 23.16L428.288 11.48H430.096L432.112 20.68H432.144L434.208 12.44H436.384L438.448 20.68H438.48L440.496 11.48H442.304L439.584 23.16H437.408L435.312 14.92H435.28L433.184 23.16H431.008Z" fill="black"/>
<path d="M576.568 24.9999C576.194 24.9999 575.805 24.9732 575.4 24.9199C575.005 24.8772 574.626 24.8132 574.264 24.7279C573.901 24.6319 573.581 24.5252 573.304 24.4079L573.544 22.9999C574.013 23.1705 574.488 23.3092 574.968 23.4159C575.448 23.5119 575.922 23.5599 576.392 23.5599C577.01 23.5599 577.469 23.4745 577.768 23.3039C578.077 23.1225 578.232 22.8559 578.232 22.5039C578.232 22.3012 578.178 22.1359 578.072 22.0079C577.965 21.8692 577.778 21.7465 577.512 21.6399C577.245 21.5225 576.877 21.4105 576.408 21.3039C575.768 21.1439 575.208 20.9572 574.728 20.7439C574.258 20.5305 573.896 20.2585 573.64 19.9279C573.384 19.5972 573.256 19.1812 573.256 18.6799C573.256 17.9225 573.544 17.3465 574.12 16.9519C574.706 16.5572 575.549 16.3599 576.648 16.3599C577.16 16.3599 577.682 16.4025 578.216 16.4879C578.76 16.5732 579.256 16.6959 579.704 16.8559L579.448 18.2639C579.021 18.1039 578.589 17.9865 578.152 17.9119C577.725 17.8372 577.293 17.7999 576.856 17.7999C576.226 17.7999 575.757 17.8799 575.448 18.0399C575.149 18.1892 575 18.4185 575 18.7279C575 18.9092 575.048 19.0639 575.144 19.1919C575.25 19.3199 575.432 19.4372 575.688 19.5439C575.944 19.6505 576.301 19.7572 576.76 19.8639C577.229 19.9705 577.656 20.0985 578.04 20.2479C578.434 20.3972 578.776 20.5785 579.064 20.7919C579.352 20.9945 579.576 21.2399 579.736 21.5279C579.896 21.8159 579.976 22.1572 579.976 22.5519C579.976 23.0639 579.837 23.5012 579.56 23.8639C579.293 24.2265 578.904 24.5092 578.392 24.7119C577.89 24.9039 577.282 24.9999 576.568 24.9999Z" fill="black"/>
<path d="M568.689 24.9999C567.249 24.9999 566.14 24.6265 565.361 23.8799C564.582 23.1332 564.193 22.0665 564.193 20.6799C564.193 19.3359 564.55 18.2799 565.265 17.5119C565.99 16.7439 566.982 16.3599 568.241 16.3599C569.457 16.3599 570.39 16.7225 571.041 17.4479C571.702 18.1732 572.033 19.2025 572.033 20.5359C572.033 20.6745 572.028 20.8292 572.017 20.9999C572.017 21.1705 572.012 21.3039 572.001 21.3999H565.153V20.0399H570.689L570.417 20.4559C570.417 19.5492 570.236 18.8772 569.873 18.4399C569.51 17.9919 568.966 17.7679 568.241 17.7679C567.473 17.7679 566.886 18.0025 566.481 18.4719C566.086 18.9412 565.889 19.6239 565.889 20.5199V20.9999C565.889 21.8639 566.113 22.5092 566.561 22.9359C567.02 23.3519 567.708 23.5599 568.625 23.5599C569.073 23.5599 569.548 23.5172 570.049 23.4319C570.561 23.3359 571.014 23.2132 571.409 23.0639L571.633 24.4559C571.228 24.6265 570.764 24.7599 570.241 24.8559C569.729 24.9519 569.212 24.9999 568.689 24.9999Z" fill="black"/>
<path d="M560.189 24.9999C559.25 24.9999 558.445 24.8292 557.773 24.4879C557.101 24.1465 556.584 23.6559 556.221 23.0159C555.869 22.3652 555.693 21.5865 555.693 20.6799C555.693 19.7732 555.869 18.9999 556.221 18.3599C556.584 17.7092 557.101 17.2132 557.773 16.8719C558.445 16.5305 559.25 16.3599 560.189 16.3599C560.658 16.3599 561.101 16.4079 561.517 16.5039C561.933 16.5892 562.338 16.7385 562.733 16.9519L562.429 18.3439C562.066 18.1519 561.709 18.0132 561.357 17.9279C561.005 17.8425 560.653 17.7999 560.301 17.7999C559.394 17.7999 558.69 18.0505 558.189 18.5519C557.698 19.0532 557.453 19.7625 557.453 20.6799C557.453 21.5865 557.698 22.2959 558.189 22.8079C558.69 23.3092 559.394 23.5599 560.301 23.5599C560.653 23.5599 561.005 23.5172 561.357 23.4319C561.709 23.3465 562.066 23.2079 562.429 23.0159L562.733 24.4079C562.338 24.6105 561.933 24.7599 561.517 24.8559C561.101 24.9519 560.658 24.9999 560.189 24.9999Z" fill="black"/>
<path d="M551.945 14.9202V13.1602H553.705V14.9202H551.945ZM551.945 24.8401V16.5201H553.705V24.8401H551.945Z" fill="black"/>
<path d="M545.063 24.84L542.119 16.52H544.007L546.263 23.592H546.295L548.551 16.52H550.439L547.495 24.84H545.063Z" fill="black"/>
<path d="M536.082 24.8399V16.5199H537.746L537.762 18.1199H537.794C538.061 17.7465 538.381 17.4319 538.754 17.1759C539.138 16.9092 539.565 16.7065 540.034 16.5679C540.514 16.4292 541.01 16.3599 541.522 16.3599V17.8799C540.84 17.8799 540.216 18.0132 539.65 18.2799C539.096 18.5465 538.653 18.9039 538.322 19.3519C537.992 19.7999 537.826 20.2959 537.826 20.8399V24.8399H536.082Z" fill="black"/>
<path d="M530.908 24.9999C529.468 24.9999 528.359 24.6265 527.58 23.8799C526.801 23.1332 526.412 22.0665 526.412 20.6799C526.412 19.3359 526.769 18.2799 527.484 17.5119C528.209 16.7439 529.201 16.3599 530.46 16.3599C531.676 16.3599 532.609 16.7225 533.26 17.4479C533.921 18.1732 534.252 19.2025 534.252 20.5359C534.252 20.6745 534.247 20.8292 534.236 20.9999C534.236 21.1705 534.231 21.3039 534.22 21.3999H527.372V20.0399H532.908L532.636 20.4559C532.636 19.5492 532.455 18.8772 532.092 18.4399C531.729 17.9919 531.185 17.7679 530.46 17.7679C529.692 17.7679 529.105 18.0025 528.7 18.4719C528.305 18.9412 528.108 19.6239 528.108 20.5199V20.9999C528.108 21.8639 528.332 22.5092 528.78 22.9359C529.239 23.3519 529.927 23.5599 530.844 23.5599C531.292 23.5599 531.767 23.5172 532.268 23.4319C532.78 23.3359 533.233 23.2132 533.628 23.0639L533.852 24.4559C533.447 24.6265 532.983 24.7599 532.46 24.8559C531.948 24.9519 531.431 24.9999 530.908 24.9999Z" fill="black"/>
<path d="M520.544 25C519.798 25 519.056 24.92 518.32 24.76C517.595 24.6 516.982 24.3867 516.48 24.12L516.928 22.52C517.28 22.6907 517.664 22.8453 518.08 22.984C518.507 23.112 518.939 23.2133 519.376 23.288C519.824 23.3627 520.251 23.4 520.656 23.4C521.478 23.4 522.107 23.2507 522.544 22.952C522.992 22.6533 523.216 22.2267 523.216 21.672C523.216 21.3627 523.147 21.1067 523.008 20.904C522.87 20.6907 522.667 20.5093 522.4 20.36C522.144 20.2107 521.824 20.0773 521.44 19.96C521.056 19.832 520.624 19.704 520.144 19.576C519.611 19.4267 519.12 19.2613 518.672 19.08C518.235 18.888 517.851 18.6587 517.52 18.392C517.2 18.1253 516.95 17.8107 516.768 17.448C516.598 17.0747 516.512 16.6427 516.512 16.152C516.512 15.1387 516.896 14.36 517.664 13.816C518.432 13.272 519.515 13 520.912 13C521.616 13 522.315 13.0693 523.008 13.208C523.712 13.336 524.31 13.512 524.8 13.736L524.352 15.336C523.872 15.112 523.323 14.936 522.704 14.808C522.096 14.6693 521.494 14.6 520.896 14.6C520.064 14.6 519.43 14.7387 518.992 15.016C518.566 15.2827 518.352 15.6667 518.352 16.168C518.352 16.4667 518.416 16.7173 518.544 16.92C518.672 17.1227 518.859 17.2987 519.104 17.448C519.35 17.5867 519.648 17.7147 520 17.832C520.352 17.9493 520.758 18.072 521.216 18.2C521.792 18.36 522.315 18.536 522.784 18.728C523.254 18.92 523.654 19.1493 523.984 19.416C524.326 19.6827 524.587 20.0027 524.768 20.376C524.96 20.7387 525.056 21.176 525.056 21.688C525.056 22.7333 524.662 23.5493 523.872 24.136C523.083 24.712 521.974 25 520.544 25Z" fill="black"/>
<path d="M700.974 24.9999C700.6 24.9999 700.211 24.9732 699.806 24.9199C699.411 24.8772 699.033 24.8132 698.67 24.7279C698.307 24.6319 697.987 24.5252 697.71 24.4079L697.95 22.9999C698.419 23.1705 698.894 23.3092 699.374 23.4159C699.854 23.5119 700.329 23.5599 700.798 23.5599C701.417 23.5599 701.875 23.4745 702.174 23.3039C702.483 23.1225 702.638 22.8559 702.638 22.5039C702.638 22.3012 702.585 22.1359 702.478 22.0079C702.371 21.8692 702.184 21.7465 701.918 21.6399C701.651 21.5225 701.283 21.4105 700.814 21.3039C700.174 21.1439 699.614 20.9572 699.134 20.7439C698.665 20.5305 698.302 20.2585 698.046 19.9279C697.79 19.5972 697.662 19.1812 697.662 18.6799C697.662 17.9225 697.95 17.3465 698.526 16.9519C699.112 16.5572 699.955 16.3599 701.054 16.3599C701.566 16.3599 702.088 16.4025 702.622 16.4879C703.166 16.5732 703.662 16.6959 704.11 16.8559L703.854 18.2639C703.427 18.1039 702.995 17.9865 702.558 17.9119C702.131 17.8372 701.699 17.7999 701.262 17.7999C700.632 17.7999 700.163 17.8799 699.854 18.0399C699.555 18.1892 699.406 18.4185 699.406 18.7279C699.406 18.9092 699.454 19.0639 699.55 19.1919C699.657 19.3199 699.838 19.4372 700.094 19.5439C700.35 19.6505 700.707 19.7572 701.166 19.8639C701.635 19.9705 702.062 20.0985 702.446 20.2479C702.84 20.3972 703.182 20.5785 703.47 20.7919C703.758 20.9945 703.982 21.2399 704.142 21.5279C704.302 21.8159 704.382 22.1572 704.382 22.5519C704.382 23.0639 704.243 23.5012 703.966 23.8639C703.699 24.2265 703.31 24.5092 702.798 24.7119C702.297 24.9039 701.688 24.9999 700.974 24.9999Z" fill="black"/>
<path d="M693.161 24.9999C692.788 24.9999 692.399 24.9732 691.993 24.9199C691.599 24.8772 691.22 24.8132 690.857 24.7279C690.495 24.6319 690.175 24.5252 689.897 24.4079L690.137 22.9999C690.607 23.1705 691.081 23.3092 691.561 23.4159C692.041 23.5119 692.516 23.5599 692.985 23.5599C693.604 23.5599 694.063 23.4745 694.361 23.3039C694.671 23.1225 694.825 22.8559 694.825 22.5039C694.825 22.3012 694.772 22.1359 694.665 22.0079C694.559 21.8692 694.372 21.7465 694.105 21.6399C693.839 21.5225 693.471 21.4105 693.001 21.3039C692.361 21.1439 691.801 20.9572 691.321 20.7439C690.852 20.5305 690.489 20.2585 690.233 19.9279C689.977 19.5972 689.849 19.1812 689.849 18.6799C689.849 17.9225 690.137 17.3465 690.713 16.9519C691.3 16.5572 692.143 16.3599 693.241 16.3599C693.753 16.3599 694.276 16.4025 694.809 16.4879C695.353 16.5732 695.849 16.6959 696.297 16.8559L696.041 18.2639C695.615 18.1039 695.183 17.9865 694.745 17.9119C694.319 17.8372 693.887 17.7999 693.449 17.7999C692.82 17.7999 692.351 17.8799 692.041 18.0399C691.743 18.1892 691.593 18.4185 691.593 18.7279C691.593 18.9092 691.641 19.0639 691.737 19.1919C691.844 19.3199 692.025 19.4372 692.281 19.5439C692.537 19.6505 692.895 19.7572 693.353 19.8639C693.823 19.9705 694.249 20.0985 694.633 20.2479C695.028 20.3972 695.369 20.5785 695.657 20.7919C695.945 20.9945 696.169 21.2399 696.329 21.5279C696.489 21.8159 696.569 22.1572 696.569 22.5519C696.569 23.0639 696.431 23.5012 696.153 23.8639C695.887 24.2265 695.497 24.5092 694.985 24.7119C694.484 24.9039 693.876 24.9999 693.161 24.9999Z" fill="black"/>
<path d="M685.283 24.9999C683.843 24.9999 682.734 24.6265 681.955 23.8799C681.176 23.1332 680.787 22.0665 680.787 20.6799C680.787 19.3359 681.144 18.2799 681.859 17.5119C682.584 16.7439 683.576 16.3599 684.835 16.3599C686.051 16.3599 686.984 16.7225 687.635 17.4479C688.296 18.1732 688.627 19.2025 688.627 20.5359C688.627 20.6745 688.622 20.8292 688.611 20.9999C688.611 21.1705 688.606 21.3039 688.595 21.3999H681.747V20.0399H687.283L687.011 20.4559C687.011 19.5492 686.83 18.8772 686.467 18.4399C686.104 17.9919 685.56 17.7679 684.835 17.7679C684.067 17.7679 683.48 18.0025 683.075 18.4719C682.68 18.9412 682.483 19.6239 682.483 20.5199V20.9999C682.483 21.8639 682.707 22.5092 683.155 22.9359C683.614 23.3519 684.302 23.5599 685.219 23.5599C685.667 23.5599 686.142 23.5172 686.643 23.4319C687.155 23.3359 687.608 23.2132 688.003 23.0639L688.227 24.4559C687.822 24.6265 687.358 24.7599 686.835 24.8559C686.323 24.9519 685.806 24.9999 685.283 24.9999Z" fill="black"/>
<path d="M676.783 24.9999C675.844 24.9999 675.039 24.8292 674.367 24.4879C673.695 24.1465 673.178 23.6559 672.815 23.0159C672.463 22.3652 672.287 21.5865 672.287 20.6799C672.287 19.7732 672.463 18.9999 672.815 18.3599C673.178 17.7092 673.695 17.2132 674.367 16.8719C675.039 16.5305 675.844 16.3599 676.783 16.3599C677.252 16.3599 677.695 16.4079 678.111 16.5039C678.527 16.5892 678.932 16.7385 679.327 16.9519L679.023 18.3439C678.66 18.1519 678.303 18.0132 677.951 17.9279C677.599 17.8425 677.247 17.7999 676.895 17.7999C675.988 17.7999 675.284 18.0505 674.783 18.5519C674.292 19.0532 674.047 19.7625 674.047 20.6799C674.047 21.5865 674.292 22.2959 674.783 22.8079C675.284 23.3092 675.988 23.5599 676.895 23.5599C677.247 23.5599 677.599 23.5172 677.951 23.4319C678.303 23.3465 678.66 23.2079 679.023 23.0159L679.327 24.4079C678.932 24.6105 678.527 24.7599 678.111 24.8559C677.695 24.9519 677.252 24.9999 676.783 24.9999Z" fill="black"/>
<path d="M666.806 24.9999C665.484 24.9999 664.46 24.6265 663.734 23.8799C663.009 23.1225 662.646 22.0559 662.646 20.6799C662.646 19.3039 663.009 18.2425 663.734 17.4959C664.46 16.7385 665.484 16.3599 666.806 16.3599C668.129 16.3599 669.153 16.7385 669.878 17.4959C670.604 18.2425 670.966 19.3039 670.966 20.6799C670.966 22.0559 670.604 23.1225 669.878 23.8799C669.153 24.6265 668.129 24.9999 666.806 24.9999ZM666.806 23.5599C667.596 23.5599 668.198 23.3145 668.614 22.8239C669.03 22.3332 669.238 21.6185 669.238 20.6799C669.238 19.7412 669.03 19.0265 668.614 18.5359C668.198 18.0452 667.596 17.7999 666.806 17.7999C666.028 17.7999 665.425 18.0452 664.998 18.5359C664.582 19.0265 664.374 19.7412 664.374 20.6799C664.374 21.6185 664.582 22.3332 664.998 22.8239C665.425 23.3145 666.028 23.5599 666.806 23.5599Z" fill="black"/>
<path d="M656.848 24.8399V16.5199H658.512L658.528 18.1199H658.56C658.827 17.7465 659.147 17.4319 659.52 17.1759C659.904 16.9092 660.331 16.7065 660.8 16.5679C661.28 16.4292 661.776 16.3599 662.288 16.3599V17.8799C661.605 17.8799 660.981 18.0132 660.416 18.2799C659.861 18.5465 659.419 18.9039 659.088 19.3519C658.757 19.7999 658.592 20.2959 658.592 20.8399V24.8399H656.848Z" fill="black"/>
<path d="M646.976 24.8401V13.1602H650.336C652.074 13.1602 653.36 13.4802 654.192 14.1202C655.034 14.7495 655.456 15.7255 655.456 17.0482C655.456 18.3495 655.05 19.3255 654.24 19.9761C653.44 20.6161 652.218 20.9361 650.576 20.9361H647.856V19.3361H650.368C651.52 19.3361 652.357 19.1548 652.88 18.7921C653.402 18.4295 653.664 17.8481 653.664 17.0482C653.664 16.2482 653.402 15.6668 652.88 15.3042C652.357 14.9415 651.52 14.7601 650.368 14.7601H648.736V24.8401H646.976Z" fill="black"/>
<path d="M635.395 24.8399V16.5199H637.059L637.075 18.1199H637.107C637.373 17.7465 637.693 17.4319 638.067 17.1759C638.451 16.9092 638.877 16.7065 639.347 16.5679C639.827 16.4292 640.323 16.3599 640.835 16.3599V17.8799C640.152 17.8799 639.528 18.0132 638.963 18.2799C638.408 18.5465 637.965 18.9039 637.635 19.3519C637.304 19.7999 637.139 20.2959 637.139 20.8399V24.8399H635.395Z" fill="black"/>
<path d="M628.489 25C627.486 25 626.75 24.728 626.281 24.184C625.812 23.64 625.577 22.792 625.577 21.64V16.52H627.305V21.32C627.305 22.088 627.433 22.6533 627.689 23.016C627.956 23.3787 628.382 23.56 628.969 23.56C629.406 23.56 629.79 23.4693 630.121 23.288C630.462 23.1067 630.729 22.8613 630.921 22.552C631.113 22.232 631.209 21.8747 631.209 21.48V16.52H632.937V24.84H631.289L631.273 23.848H631.241C630.91 24.232 630.521 24.52 630.073 24.712C629.625 24.904 629.097 25 628.489 25Z" fill="black"/>
<path d="M617.976 25C616.76 25 615.698 24.7547 614.792 24.264C613.896 23.7733 613.202 23.08 612.712 22.184C612.221 21.2773 611.976 20.216 611.976 19C611.976 17.7733 612.221 16.712 612.712 15.816C613.202 14.92 613.896 14.2267 614.792 13.736C615.698 13.2453 616.76 13 617.976 13C619.202 13 620.264 13.2453 621.16 13.736C622.056 14.2267 622.749 14.92 623.24 15.816C623.73 16.712 623.976 17.7733 623.976 19C623.976 20.216 623.73 21.2773 623.24 22.184C622.749 23.08 622.056 23.7733 621.16 24.264C620.264 24.7547 619.202 25 617.976 25ZM617.976 23.4C618.84 23.4 619.586 23.224 620.216 22.872C620.845 22.5093 621.325 22.0027 621.656 21.352C621.997 20.6907 622.168 19.9067 622.168 19C622.168 18.0933 621.997 17.3147 621.656 16.664C621.325 16.0027 620.845 15.496 620.216 15.144C619.586 14.7813 618.84 14.6 617.976 14.6C617.112 14.6 616.365 14.7813 615.736 15.144C615.106 15.496 614.621 16.0027 614.28 16.664C613.949 17.3147 613.784 18.0933 613.784 19C613.784 19.9067 613.949 20.6907 614.28 21.352C614.621 22.0027 615.106 22.5093 615.736 22.872C616.365 23.224 617.112 23.4 617.976 23.4Z" fill="black"/>
<path d="M776.598 24.9203C776.225 24.9203 775.836 24.8936 775.43 24.8403C775.036 24.7976 774.657 24.7336 774.294 24.6483C773.932 24.5523 773.612 24.4456 773.334 24.3283L773.574 22.9203C774.044 23.0909 774.518 23.2296 774.998 23.3363C775.478 23.4323 775.953 23.4803 776.422 23.4803C777.041 23.4803 777.5 23.3949 777.798 23.2243C778.108 23.0429 778.262 22.7763 778.262 22.4243C778.262 22.2216 778.209 22.0563 778.102 21.9283C777.996 21.7896 777.809 21.6669 777.542 21.5603C777.276 21.4429 776.908 21.3309 776.438 21.2243C775.798 21.0643 775.238 20.8776 774.758 20.6643C774.289 20.4509 773.926 20.1789 773.67 19.8483C773.414 19.5176 773.286 19.1016 773.286 18.6003C773.286 17.8429 773.574 17.2669 774.15 16.8723C774.737 16.4776 775.58 16.2803 776.678 16.2803C777.19 16.2803 777.713 16.3229 778.246 16.4083C778.79 16.4936 779.286 16.6163 779.734 16.7763L779.478 18.1843C779.052 18.0243 778.62 17.9069 778.182 17.8323C777.756 17.7576 777.324 17.7203 776.886 17.7203C776.257 17.7203 775.788 17.8003 775.478 17.9603C775.18 18.1096 775.03 18.3389 775.03 18.6483C775.03 18.8296 775.078 18.9843 775.174 19.1123C775.281 19.2403 775.462 19.3576 775.718 19.4643C775.974 19.5709 776.332 19.6776 776.79 19.7843C777.26 19.8909 777.686 20.0189 778.07 20.1683C778.465 20.3176 778.806 20.4989 779.094 20.7123C779.382 20.9149 779.606 21.1603 779.766 21.4483C779.926 21.7363 780.006 22.0776 780.006 22.4723C780.006 22.9843 779.868 23.4216 779.59 23.7843C779.324 24.1469 778.934 24.4296 778.422 24.6323C777.921 24.8243 777.313 24.9203 776.598 24.9203Z" fill="black"/>
<path d="M764.144 24.7603V16.4403H765.792L765.808 17.4323H765.84C766.171 17.0483 766.571 16.7603 767.04 16.5683C767.51 16.3763 768.054 16.2803 768.672 16.2803C769.696 16.2803 770.448 16.5523 770.928 17.0963C771.419 17.6403 771.664 18.4883 771.664 19.6403V24.7603H769.936V19.9603C769.936 19.1923 769.792 18.6269 769.504 18.2643C769.227 17.9016 768.79 17.7203 768.192 17.7203C767.744 17.7203 767.344 17.8109 766.992 17.9923C766.64 18.1736 766.363 18.4189 766.16 18.7283C765.968 19.0376 765.872 19.3949 765.872 19.8003V24.7603H764.144Z" fill="black"/>
<path d="M757.253 24.9203C756.421 24.9203 755.765 24.6963 755.285 24.2483C754.805 23.7896 754.565 23.1709 754.565 22.3923C754.565 21.4216 754.949 20.6749 755.717 20.1523C756.485 19.6189 757.578 19.3523 758.997 19.3523H760.197C760.197 18.9256 760.143 18.5949 760.037 18.3603C759.93 18.1256 759.743 17.9603 759.477 17.8643C759.221 17.7683 758.863 17.7203 758.405 17.7203C757.861 17.7203 757.306 17.7736 756.741 17.8803C756.186 17.9869 755.658 18.1469 755.157 18.3603L754.917 16.9363C755.45 16.7336 756.037 16.5736 756.677 16.4563C757.327 16.3389 757.978 16.2803 758.629 16.2803C759.461 16.2803 760.111 16.3816 760.581 16.5843C761.061 16.7869 761.402 17.1283 761.605 17.6083C761.818 18.0883 761.925 18.7229 761.925 19.5123V24.7603H760.277L760.261 23.8003H760.229C759.941 24.1309 759.514 24.4029 758.949 24.6163C758.394 24.8189 757.829 24.9203 757.253 24.9203ZM757.861 23.5123C758.287 23.5123 758.677 23.4323 759.029 23.2723C759.391 23.1123 759.674 22.8989 759.877 22.6323C760.09 22.3656 760.197 22.0669 760.197 21.7363V20.6643H759.237C758.255 20.6643 757.519 20.7923 757.029 21.0483C756.538 21.3043 756.293 21.6936 756.293 22.2163C756.293 22.6216 756.426 22.9416 756.693 23.1763C756.97 23.4003 757.359 23.5123 757.861 23.5123Z" fill="black"/>
<path d="M749.212 24.9203C747.889 24.9203 746.865 24.5469 746.14 23.8003C745.415 23.0429 745.052 21.9763 745.052 20.6003C745.052 19.2243 745.415 18.1629 746.14 17.4163C746.865 16.6589 747.889 16.2803 749.212 16.2803C750.535 16.2803 751.559 16.6589 752.284 17.4163C753.009 18.1629 753.372 19.2243 753.372 20.6003C753.372 21.9763 753.009 23.0429 752.284 23.8003C751.559 24.5469 750.535 24.9203 749.212 24.9203ZM749.212 23.4803C750.001 23.4803 750.604 23.2349 751.02 22.7443C751.436 22.2536 751.644 21.5389 751.644 20.6003C751.644 19.6616 751.436 18.9469 751.02 18.4563C750.604 17.9656 750.001 17.7203 749.212 17.7203C748.433 17.7203 747.831 17.9656 747.404 18.4563C746.988 18.9469 746.78 19.6616 746.78 20.6003C746.78 21.5389 746.988 22.2536 747.404 22.7443C747.831 23.2349 748.433 23.4803 749.212 23.4803Z" fill="black"/>
<path d="M736.382 24.7601V13.0801H738.19V23.1601H744.542V24.7601H736.382Z" fill="black"/>
<rect x="1091.79" y="1" width="148.209" height="36" rx="18" stroke="#FE7826" stroke-width="2"/>
<path d="M1204.46 24.9999C1204.09 24.9999 1203.69 24.9732 1203.26 24.9199C1202.85 24.8772 1202.45 24.8132 1202.06 24.7279C1201.68 24.6319 1201.34 24.5252 1201.06 24.4079L1201.33 22.7279C1201.84 22.9092 1202.33 23.0479 1202.8 23.1439C1203.28 23.2399 1203.75 23.2879 1204.22 23.2879C1204.76 23.2879 1205.15 23.2185 1205.39 23.0799C1205.64 22.9412 1205.76 22.7279 1205.76 22.4399C1205.76 22.2692 1205.72 22.1305 1205.63 22.0239C1205.55 21.9172 1205.39 21.8212 1205.17 21.7359C1204.95 21.6399 1204.65 21.5492 1204.26 21.4639C1203.57 21.2932 1202.99 21.0959 1202.5 20.8719C1202.02 20.6372 1201.65 20.3492 1201.39 20.0079C1201.14 19.6665 1201.01 19.2505 1201.01 18.7599C1201.01 17.9705 1201.31 17.3732 1201.9 16.9679C1202.5 16.5625 1203.37 16.3599 1204.51 16.3599C1205.03 16.3599 1205.57 16.4025 1206.13 16.4879C1206.69 16.5732 1207.22 16.6959 1207.71 16.8559L1207.44 18.5359C1206.97 18.3759 1206.52 18.2585 1206.08 18.1839C1205.64 18.1092 1205.22 18.0719 1204.8 18.0719C1204.27 18.0719 1203.87 18.1359 1203.62 18.2639C1203.36 18.3812 1203.23 18.5679 1203.23 18.8239C1203.23 18.9732 1203.27 19.1012 1203.36 19.2079C1203.45 19.3145 1203.59 19.4105 1203.81 19.4959C1204.02 19.5812 1204.32 19.6665 1204.7 19.7519C1205.21 19.8692 1205.66 20.0079 1206.06 20.1679C1206.47 20.3279 1206.82 20.5199 1207.1 20.7439C1207.39 20.9572 1207.61 21.2079 1207.76 21.4959C1207.92 21.7839 1208 22.1145 1208 22.4879C1208 22.9999 1207.86 23.4479 1207.57 23.8319C1207.28 24.2052 1206.87 24.4932 1206.34 24.6959C1205.81 24.8985 1205.19 24.9999 1204.46 24.9999Z" fill="#3D544D"/>
<path d="M1194.5 25C1193.52 25 1192.8 24.728 1192.34 24.184C1191.89 23.64 1191.66 22.792 1191.66 21.64V16.52H1193.85V21.208C1193.85 21.9013 1193.95 22.408 1194.17 22.728C1194.39 23.0373 1194.75 23.192 1195.24 23.192C1195.61 23.192 1195.94 23.1173 1196.22 22.968C1196.5 22.808 1196.73 22.5947 1196.89 22.328C1197.05 22.0613 1197.13 21.7573 1197.13 21.416V16.52H1199.34V24.84H1197.24L1197.21 23.864H1197.18C1196.85 24.248 1196.46 24.536 1196.02 24.728C1195.59 24.9093 1195.08 25 1194.5 25Z" fill="#3D544D"/>
<path d="M1183.53 24.9998C1182.53 24.9998 1181.8 24.7971 1181.36 24.3918C1180.92 23.9865 1180.7 23.3198 1180.7 22.3918V18.2318H1178.89V16.5198H1180.7V13.7998H1182.91V16.5198H1185.61V18.2318H1182.91V21.8478C1182.91 22.3491 1182.99 22.7011 1183.15 22.9038C1183.31 23.0958 1183.6 23.1918 1184.01 23.1918C1184.24 23.1918 1184.47 23.1705 1184.72 23.1278C1184.97 23.0851 1185.21 23.0265 1185.42 22.9518L1185.6 24.6958C1185.23 24.8025 1184.89 24.8771 1184.56 24.9198C1184.22 24.9731 1183.88 24.9998 1183.53 24.9998Z" fill="#3D544D"/>
<path d="M1175.21 24.9999C1174.24 24.9999 1173.41 24.8292 1172.71 24.4879C1172.02 24.1465 1171.49 23.6559 1171.13 23.0159C1170.77 22.3652 1170.59 21.5865 1170.59 20.6799C1170.59 19.7625 1170.77 18.9839 1171.13 18.3439C1171.49 17.7039 1172.02 17.2132 1172.71 16.8719C1173.41 16.5305 1174.24 16.3599 1175.21 16.3599C1175.7 16.3599 1176.16 16.4079 1176.59 16.5039C1177.01 16.5999 1177.43 16.7545 1177.83 16.9679L1177.48 18.6479C1177.11 18.4452 1176.75 18.3012 1176.39 18.2159C1176.05 18.1199 1175.71 18.0719 1175.37 18.0719C1174.56 18.0719 1173.93 18.2959 1173.48 18.7439C1173.04 19.1919 1172.83 19.8372 1172.83 20.6799C1172.83 21.5119 1173.04 22.1572 1173.48 22.6159C1173.93 23.0639 1174.56 23.2879 1175.37 23.2879C1175.71 23.2879 1176.05 23.2452 1176.39 23.1599C1176.75 23.0639 1177.11 22.9145 1177.48 22.7119L1177.83 24.3919C1177.43 24.6052 1177.01 24.7599 1176.59 24.8559C1176.16 24.9519 1175.7 24.9999 1175.21 24.9999Z" fill="#3D544D"/>
<path d="M1164.16 24.9999C1163.34 24.9999 1162.69 24.7705 1162.21 24.3119C1161.74 23.8532 1161.51 23.2399 1161.51 22.4719C1161.51 21.5119 1161.88 20.7705 1162.63 20.2479C1163.38 19.7252 1164.45 19.4639 1165.84 19.4639H1166.95C1166.95 19.0905 1166.9 18.8025 1166.8 18.5999C1166.72 18.3972 1166.56 18.2585 1166.34 18.1839C1166.12 18.0985 1165.81 18.0559 1165.41 18.0559C1164.88 18.0559 1164.32 18.1145 1163.75 18.2319C1163.17 18.3385 1162.63 18.4932 1162.11 18.6959L1161.84 16.9999C1162.4 16.7972 1163.01 16.6425 1163.68 16.5359C1164.36 16.4185 1165.04 16.3599 1165.71 16.3599C1166.57 16.3599 1167.24 16.4612 1167.73 16.6639C1168.22 16.8665 1168.58 17.2079 1168.8 17.6879C1169.03 18.1572 1169.14 18.7919 1169.14 19.5919V24.8399H1167.04L1167.01 23.8799H1166.99C1166.69 24.2212 1166.28 24.4932 1165.76 24.6959C1165.24 24.8985 1164.71 24.9999 1164.16 24.9999ZM1164.96 23.3359C1165.33 23.3359 1165.67 23.2719 1165.97 23.1439C1166.27 23.0159 1166.5 22.8399 1166.67 22.6159C1166.85 22.3812 1166.95 22.1252 1166.95 21.8479V20.9039H1166.16C1165.3 20.9039 1164.65 21.0159 1164.23 21.2399C1163.8 21.4532 1163.59 21.7892 1163.59 22.2479C1163.59 22.5892 1163.7 22.8559 1163.94 23.0479C1164.18 23.2399 1164.52 23.3359 1164.96 23.3359Z" fill="#3D544D"/>
<path d="M1158.25 24.9998C1157.25 24.9998 1156.52 24.7971 1156.07 24.3918C1155.64 23.9865 1155.42 23.3198 1155.42 22.3918V18.2318H1153.61V16.5198H1155.42V13.7998H1157.63V16.5198H1160.33V18.2318H1157.63V21.8478C1157.63 22.3491 1157.71 22.7011 1157.87 22.9038C1158.03 23.0958 1158.31 23.1918 1158.73 23.1918C1158.95 23.1918 1159.19 23.1705 1159.43 23.1278C1159.69 23.0851 1159.92 23.0265 1160.14 22.9518L1160.31 24.6958C1159.95 24.8025 1159.6 24.8771 1159.27 24.9198C1158.94 24.9731 1158.6 24.9998 1158.25 24.9998Z" fill="#3D544D"/>
<path d="M1144.86 24.8399V16.5199H1146.96L1146.98 17.4959H1147.01C1147.35 17.1119 1147.74 16.8292 1148.19 16.6479C1148.65 16.4559 1149.18 16.3599 1149.78 16.3599C1150.78 16.3599 1151.51 16.6319 1151.98 17.1759C1152.46 17.7092 1152.7 18.5572 1152.7 19.7199V24.8399H1150.51V20.1519C1150.51 19.4585 1150.39 18.9572 1150.16 18.6479C1149.93 18.3279 1149.55 18.1679 1149.04 18.1679C1148.66 18.1679 1148.31 18.2479 1148.02 18.4079C1147.72 18.5572 1147.48 18.7652 1147.31 19.0319C1147.15 19.2879 1147.07 19.5919 1147.07 19.9439V24.8399H1144.86Z" fill="#3D544D"/>
<path d="M1138.95 24.9999C1137.59 24.9999 1136.53 24.6265 1135.78 23.8799C1135.05 23.1332 1134.68 22.0665 1134.68 20.6799C1134.68 19.2932 1135.05 18.2265 1135.78 17.4799C1136.53 16.7332 1137.59 16.3599 1138.95 16.3599C1140.32 16.3599 1141.37 16.7332 1142.1 17.4799C1142.84 18.2265 1143.21 19.2932 1143.21 20.6799C1143.21 22.0665 1142.84 23.1332 1142.1 23.8799C1141.37 24.6265 1140.32 24.9999 1138.95 24.9999ZM1138.95 23.2879C1139.63 23.2879 1140.15 23.0692 1140.49 22.6319C1140.84 22.1945 1141.02 21.5439 1141.02 20.6799C1141.02 19.8159 1140.84 19.1652 1140.49 18.7279C1140.15 18.2905 1139.63 18.0719 1138.95 18.0719C1138.28 18.0719 1137.76 18.2905 1137.4 18.7279C1137.05 19.1652 1136.87 19.8159 1136.87 20.6799C1136.87 21.5439 1137.05 22.1945 1137.4 22.6319C1137.76 23.0692 1138.28 23.2879 1138.95 23.2879Z" fill="#3D544D"/>
<path d="M1129.92 25C1128.64 25 1127.54 24.7653 1126.62 24.296C1125.71 23.816 1125 23.128 1124.51 22.232C1124.03 21.336 1123.79 20.2587 1123.79 19C1123.79 17.7413 1124.03 16.664 1124.51 15.768C1125 14.872 1125.71 14.1893 1126.62 13.72C1127.54 13.24 1128.64 13 1129.92 13C1131.38 13 1132.68 13.3147 1133.81 13.944L1133.29 15.896C1132.2 15.2773 1131.1 14.968 1130.01 14.968C1129.2 14.968 1128.51 15.128 1127.92 15.448C1127.33 15.768 1126.88 16.232 1126.57 16.84C1126.27 17.4373 1126.11 18.1573 1126.11 19C1126.11 19.832 1126.27 20.552 1126.57 21.16C1126.88 21.768 1127.33 22.232 1127.92 22.552C1128.51 22.872 1129.2 23.032 1130.01 23.032C1131.08 23.032 1132.17 22.7227 1133.29 22.104L1133.81 24.056C1132.68 24.6853 1131.38 25 1129.92 25Z" fill="#3D544D"/>
</svg>
