<svg width="351" height="53" viewBox="0 0 351 53" fill="none" xmlns="http://www.w3.org/2000/svg">
<path d="M323.533 40.9203V11.7715H330.876L330.932 15.1909H331.044C332.24 13.8456 333.623 12.8553 335.192 12.22C336.799 11.5473 338.649 11.211 340.742 11.211C344.255 11.211 346.833 12.1639 348.478 14.0698C350.159 15.9383 351 18.9092 351 22.9826V40.9203H343.32V24.4961C343.32 22.067 342.909 20.3106 342.087 19.2269C341.265 18.1058 339.957 17.5452 338.163 17.5452C336.818 17.5452 335.622 17.8255 334.576 18.3861C333.53 18.9092 332.707 19.638 332.109 20.5722C331.549 21.4691 331.269 22.5341 331.269 23.7674V40.9203H323.533Z" fill="black"/>
<path d="M300.52 41.4808C297.642 41.4808 295.363 40.6774 293.681 39.0704C292.037 37.4635 291.215 35.3147 291.215 32.6241C291.215 29.2608 292.523 26.6635 295.138 24.8324C297.792 23.0013 301.547 22.0857 306.406 22.0857H310.273C310.273 20.7777 310.105 19.7688 309.769 19.0587C309.47 18.3487 308.928 17.8629 308.143 17.6013C307.396 17.3023 306.312 17.1528 304.892 17.1528C303.024 17.1528 301.08 17.3584 299.062 17.7695C297.044 18.1432 295.138 18.685 293.345 19.3951L292.392 13.4532C294.335 12.7432 296.484 12.2013 298.838 11.8276C301.23 11.4165 303.603 11.211 305.957 11.211C308.947 11.211 311.301 11.566 313.02 12.276C314.739 12.9861 315.991 14.1819 316.776 15.8636C317.561 17.5079 317.953 19.7314 317.953 22.5341V40.9203H310.61L310.498 37.5569H310.441C309.395 38.7528 307.956 39.7057 306.125 40.4158C304.294 41.1258 302.426 41.4808 300.52 41.4808ZM303.322 35.6511C304.63 35.6511 305.808 35.4268 306.854 34.9784C307.9 34.53 308.722 33.9134 309.32 33.1286C309.956 32.3064 310.273 31.4096 310.273 30.4379V27.1307H307.527C304.5 27.1307 302.239 27.5231 300.744 28.3078C299.249 29.0552 298.502 30.2324 298.502 31.8393C298.502 33.0352 298.913 33.9694 299.735 34.6421C300.594 35.3147 301.79 35.6511 303.322 35.6511Z" fill="black"/>
<path d="M273.926 41.4808C269.143 41.4808 265.443 40.1729 262.827 37.5569C260.248 34.941 258.959 31.204 258.959 26.3459C258.959 21.4878 260.248 17.7508 262.827 15.1349C265.443 12.5189 269.143 11.211 273.926 11.211C278.709 11.211 282.39 12.5189 284.969 15.1349C287.547 17.7508 288.837 21.4878 288.837 26.3459C288.837 31.204 287.547 34.941 284.969 37.5569C282.39 40.1729 278.709 41.4808 273.926 41.4808ZM273.926 35.4829C276.318 35.4829 278.111 34.7168 279.307 33.1846C280.54 31.6525 281.157 29.3729 281.157 26.3459C281.157 23.3189 280.54 21.0393 279.307 19.5072C278.111 17.975 276.318 17.2089 273.926 17.2089C271.572 17.2089 269.759 17.975 268.489 19.5072C267.255 21.0393 266.639 23.3189 266.639 26.3459C266.639 29.3729 267.255 31.6525 268.489 33.1846C269.759 34.7168 271.572 35.4829 273.926 35.4829Z" fill="black"/>
<path d="M229.213 40.9203V0H237.229V34.0255H258.53V40.9203H229.213Z" fill="black"/>
<path d="M202.373 41.4808C198.861 41.4808 196.319 40.7708 194.75 39.3507C193.218 37.9307 192.452 35.5951 192.452 32.3438V17.7695H186.117V11.7716H192.452V2.2422H200.187V11.7716H209.661V17.7695H200.187V30.438C200.187 32.1944 200.468 33.4276 201.028 34.1376C201.589 34.8103 202.598 35.1466 204.055 35.1466C204.84 35.1466 205.662 35.0719 206.521 34.9224C207.418 34.7729 208.241 34.5674 208.988 34.3058L209.605 40.4158C208.334 40.7895 207.119 41.0511 205.961 41.2006C204.802 41.3874 203.607 41.4808 202.373 41.4808Z" fill="black"/>
<path d="M172.445 41.4808C171.137 41.4808 169.736 41.3874 168.241 41.2005C166.783 41.051 165.382 40.8268 164.037 40.5279C162.691 40.1915 161.514 39.8178 160.505 39.4068L161.458 33.521C163.252 34.1563 164.971 34.6421 166.615 34.9784C168.297 35.3147 169.96 35.4829 171.604 35.4829C173.473 35.4829 174.837 35.24 175.696 34.7542C176.556 34.2684 176.986 33.521 176.986 32.512C176.986 31.9141 176.836 31.4282 176.537 31.0545C176.238 30.6808 175.696 30.3445 174.911 30.0455C174.164 29.7092 173.099 29.3916 171.716 29.0926C169.325 28.4947 167.269 27.8033 165.55 27.0186C163.869 26.1964 162.579 25.1874 161.682 23.9916C160.786 22.7957 160.337 21.3383 160.337 19.6193C160.337 16.8539 161.383 14.7612 163.476 13.3411C165.569 11.921 168.615 11.211 172.613 11.211C174.444 11.211 176.332 11.3605 178.275 11.6594C180.255 11.9584 182.105 12.3882 183.824 12.9487L182.871 18.8345C181.227 18.2739 179.639 17.8629 178.107 17.6013C176.574 17.3397 175.08 17.2089 173.622 17.2089C171.754 17.2089 170.371 17.4331 169.474 17.8816C168.577 18.2926 168.129 18.9466 168.129 19.8435C168.129 20.3667 168.278 20.8151 168.577 21.1888C168.876 21.5625 169.399 21.8989 170.147 22.1978C170.894 22.4968 171.941 22.7957 173.286 23.0947C175.042 23.5058 176.63 23.9916 178.051 24.5521C179.471 25.1127 180.685 25.7853 181.694 26.5701C182.703 27.3175 183.469 28.1957 183.992 29.2047C184.553 30.2137 184.833 31.3722 184.833 32.6801C184.833 34.4739 184.329 36.0435 183.32 37.3888C182.311 38.6967 180.872 39.7057 179.003 40.4158C177.172 41.1258 174.986 41.4808 172.445 41.4808Z" fill="black"/>
<path d="M145.972 41.4808C140.74 41.4808 136.704 40.1729 133.864 37.5569C131.061 34.941 129.66 31.204 129.66 26.3459C129.66 21.6373 130.949 17.9376 133.528 15.247C136.106 12.5563 139.656 11.211 144.178 11.211C148.551 11.211 151.914 12.4816 154.268 15.0227C156.66 17.5639 157.856 21.1701 157.856 25.8414C157.856 26.3646 157.837 26.9625 157.8 27.6352C157.8 28.3078 157.781 28.8123 157.744 29.1487H133.976V23.8234H151.746L150.681 25.449C150.681 22.5341 150.139 20.3667 149.055 18.9466C148.009 17.5265 146.383 16.8165 144.178 16.8165C141.861 16.8165 140.124 17.5639 138.965 19.0587C137.807 20.5162 137.227 22.7023 137.227 25.6172V27.8594C137.227 30.4753 137.919 32.3999 139.301 33.6331C140.684 34.8663 142.796 35.4829 145.636 35.4829C147.243 35.4829 148.943 35.3334 150.737 35.0345C152.53 34.7355 154.119 34.3244 155.501 33.8012L156.398 39.687C155.016 40.2476 153.39 40.6774 151.521 40.9763C149.69 41.3126 147.84 41.4808 145.972 41.4808Z" fill="black"/>
<path d="M108.277 41.4809C104.839 41.4809 102.316 40.5279 100.709 38.6221C99.1024 36.7162 98.299 33.7452 98.299 29.7093V11.7716H105.979V28.1958C105.979 30.6248 106.352 32.3999 107.1 33.521C107.884 34.6048 109.136 35.1466 110.855 35.1466C112.163 35.1466 113.303 34.885 114.275 34.3619C115.284 33.8013 116.068 33.0539 116.629 32.1196C117.19 31.1854 117.47 30.1203 117.47 28.9245V11.7716H125.205V40.9203H117.862L117.75 37.5009H117.638C116.48 38.8463 115.134 39.8553 113.602 40.5279C112.07 41.1632 110.295 41.4809 108.277 41.4809Z" fill="black"/>
<path d="M84.9579 52.6919V37.5009H84.8458C83.6874 38.8088 82.342 39.7991 80.8099 40.4718C79.3151 41.1445 77.6147 41.4808 75.7088 41.4808C71.8223 41.4808 68.814 40.1542 66.6839 37.5009C64.5539 34.8476 63.4888 31.1293 63.4888 26.3459C63.4888 21.5625 64.5539 17.8442 66.6839 15.1909C68.814 12.5376 71.8223 11.211 75.7088 11.211C77.6147 11.211 79.3711 11.5473 80.978 12.22C82.5849 12.8553 83.9676 13.8456 85.1261 15.1909H85.2382L85.3503 11.7715H92.6375V52.6919H84.9579ZM77.951 35.3147C79.2964 35.3147 80.4922 35.0345 81.5386 34.4739C82.5849 33.9134 83.4071 33.166 84.005 32.2317C84.6403 31.2601 84.9579 30.1577 84.9579 28.9244V23.7674C84.9579 22.5341 84.6403 21.4504 84.005 20.5162C83.4071 19.5445 82.5849 18.7784 81.5386 18.2179C80.4922 17.6573 79.2964 17.3771 77.951 17.3771C75.7462 17.3771 74.0459 18.1618 72.85 19.7314C71.6542 21.2636 71.0563 23.4684 71.0563 26.3459C71.0563 29.2234 71.6542 31.4469 72.85 33.0165C74.0459 34.5486 75.7462 35.3147 77.951 35.3147Z" fill="black"/>
<path d="M48.85 41.4808C43.6182 41.4808 39.5822 40.1729 36.742 37.5569C33.9393 34.941 32.5379 31.204 32.5379 26.3459C32.5379 21.6373 33.8272 17.9376 36.4057 15.247C38.9843 12.5563 42.5344 11.211 47.0562 11.211C51.4285 11.211 54.7918 12.4816 57.1461 15.0227C59.5378 17.5639 60.7337 21.1701 60.7337 25.8414C60.7337 26.3646 60.715 26.9625 60.6776 27.6352C60.6776 28.3078 60.6589 28.8123 60.6216 29.1487H36.8542V23.8234H54.6237L53.5586 25.449C53.5586 22.5341 53.0167 20.3667 51.933 18.9466C50.8866 17.5265 49.261 16.8165 47.0562 16.8165C44.7393 16.8165 43.0015 17.5639 41.8431 19.0587C40.6846 20.5162 40.1054 22.7023 40.1054 25.6172V27.8594C40.1054 30.4753 40.7967 32.3999 42.1794 33.6331C43.5621 34.8663 45.6735 35.4829 48.5136 35.4829C50.1206 35.4829 51.8209 35.3334 53.6147 35.0345C55.4084 34.7355 56.9967 34.3244 58.3794 33.8012L59.2762 39.687C57.8935 40.2476 56.2679 40.6774 54.3994 40.9763C52.5683 41.3126 50.7185 41.4808 48.85 41.4808Z" fill="black"/>
<path d="M0 40.9203V0H12.8927C18.984 0 23.4498 1.00899 26.2899 3.02698C29.1674 5.04497 30.6061 8.20274 30.6061 12.5003C30.6061 16.7231 29.2608 19.9183 26.5702 22.0858C23.8795 24.2158 19.8435 25.2809 14.4622 25.2809H3.92386V18.9467H13.2851C16.5737 18.9467 18.9467 18.4608 20.4041 17.4892C21.8615 16.5176 22.5903 14.9667 22.5903 12.8366C22.5903 10.7065 21.8615 9.15568 20.4041 8.18406C18.9467 7.21244 16.5737 6.72663 13.2851 6.72663H7.84773V40.9203H0ZM23.5992 40.9203L6.39029 22.31H15.5273L33.0726 40.9203H23.5992Z" fill="black"/>
</svg>
