<svg width="473" height="66" viewBox="0 0 473 66" fill="none" xmlns="http://www.w3.org/2000/svg">
<path d="M171.396 61.9899V60.0598H173.326V61.9899H171.396Z" fill="#ADB2B1"/>
<path d="M163.834 65.7777L165.529 61.8815L161.723 52.6282L163.239 52.6101L166.215 60.3664H166.251L169.389 52.6101H170.923L165.331 65.7777H163.834Z" fill="#ADB2B1"/>
<path d="M155.463 62.1702C154.513 62.1702 153.761 61.9177 153.208 61.4126C152.655 60.8956 152.378 60.2041 152.378 59.3383C152.378 58.256 152.817 57.4263 153.695 56.8491C154.573 56.2598 155.829 55.9652 157.465 55.9652H158.962C158.962 55.364 158.89 54.895 158.745 54.5583C158.601 54.2216 158.361 53.9871 158.024 53.8548C157.687 53.7105 157.218 53.6384 156.617 53.6384C156.016 53.6384 155.402 53.6985 154.777 53.8187C154.164 53.939 153.575 54.1194 153.009 54.3599L152.757 53.2055C153.358 52.9529 154.001 52.7605 154.687 52.6282C155.384 52.496 156.088 52.4298 156.797 52.4298C157.699 52.4298 158.409 52.5441 158.926 52.7725C159.443 53.001 159.816 53.3858 160.044 53.927C160.273 54.4681 160.387 55.1896 160.387 56.0915V61.9898H159.016L158.998 60.7092H158.962C158.649 61.1421 158.162 61.4968 157.501 61.7734C156.851 62.0379 156.172 62.1702 155.463 62.1702ZM155.913 60.9978C156.479 60.9978 156.99 60.8895 157.447 60.6731C157.916 60.4566 158.282 60.168 158.547 59.8073C158.824 59.4345 158.962 59.0256 158.962 58.5807V57.0655H157.645C156.37 57.0655 155.408 57.2519 154.759 57.6247C154.11 57.9855 153.785 58.5146 153.785 59.212C153.785 59.7652 153.971 60.2041 154.344 60.5288C154.717 60.8414 155.24 60.9978 155.913 60.9978Z" fill="#ADB2B1"/>
<path d="M145.57 62.1701C144.308 62.1701 143.322 61.7432 142.612 60.8894C141.915 60.0236 141.566 58.8271 141.566 57.2999C141.566 55.7727 141.915 54.5822 142.612 53.7285C143.322 52.8626 144.308 52.4297 145.57 52.4297C146.244 52.4297 146.869 52.556 147.446 52.8085C148.023 53.0611 148.468 53.4158 148.781 53.8728H148.817V48.8222H150.224V61.9897H148.889L148.871 60.7271H148.835C148.51 61.172 148.053 61.5268 147.464 61.7913C146.875 62.0439 146.244 62.1701 145.57 62.1701ZM145.859 60.9616C146.436 60.9616 146.941 60.8474 147.374 60.6189C147.819 60.3784 148.168 60.0537 148.42 59.6448C148.685 59.236 148.817 58.767 148.817 58.2379V56.362C148.817 55.8329 148.685 55.3639 148.42 54.955C148.168 54.5462 147.819 54.2275 147.374 53.999C146.941 53.7585 146.436 53.6383 145.859 53.6383C144.957 53.6383 144.248 53.9569 143.73 54.5943C143.225 55.2196 142.973 56.1215 142.973 57.2999C142.973 58.4784 143.225 59.3863 143.73 60.0236C144.248 60.6489 144.957 60.9616 145.859 60.9616Z" fill="#ADB2B1"/>
<path d="M135.385 62.1702C133.942 62.1702 132.817 61.7433 132.012 60.8895C131.218 60.0358 130.821 58.8393 130.821 57.3C130.821 55.7608 131.218 54.5643 132.012 53.7105C132.817 52.8567 133.942 52.4298 135.385 52.4298C136.828 52.4298 137.946 52.8567 138.74 53.7105C139.545 54.5643 139.948 55.7608 139.948 57.3C139.948 58.8393 139.545 60.0358 138.74 60.8895C137.946 61.7433 136.828 62.1702 135.385 62.1702ZM135.385 60.9617C136.395 60.9617 137.171 60.649 137.712 60.0237C138.265 59.3864 138.541 58.4785 138.541 57.3C138.541 56.1216 138.265 55.2197 137.712 54.5944C137.171 53.957 136.395 53.6384 135.385 53.6384C134.387 53.6384 133.611 53.957 133.058 54.5944C132.505 55.2197 132.228 56.1216 132.228 57.3C132.228 58.4785 132.505 59.3864 133.058 60.0237C133.611 60.649 134.387 60.9617 135.385 60.9617Z" fill="#ADB2B1"/>
<path d="M127.43 62.1701C126.408 62.1701 125.668 61.9536 125.211 61.5207C124.766 61.0758 124.544 60.3483 124.544 59.3382V53.8186H122.253V52.6101H124.544V49.5437H125.969V52.6101H129.45V53.8186H125.969V58.9774C125.969 59.6989 126.095 60.204 126.348 60.4926C126.6 60.7692 127.051 60.9075 127.7 60.9075C127.989 60.9075 128.266 60.8834 128.53 60.8353C128.807 60.7872 129.065 60.7211 129.306 60.6369L129.468 61.8635C129.107 61.9717 128.759 62.0498 128.422 62.0979C128.097 62.146 127.767 62.1701 127.43 62.1701Z" fill="#ADB2B1"/>
<path d="M112.145 62.1702C111.736 62.1702 111.315 62.1402 110.882 62.08C110.449 62.0319 110.035 61.9598 109.638 61.8636C109.253 61.7554 108.91 61.6351 108.61 61.5028L108.844 60.3484C109.325 60.5288 109.836 60.6791 110.377 60.7994C110.93 60.9076 111.472 60.9617 112.001 60.9617C112.794 60.9617 113.396 60.8354 113.804 60.5829C114.213 60.3304 114.418 59.9516 114.418 59.4465C114.418 59.1218 114.328 58.8633 114.147 58.6709C113.967 58.4665 113.696 58.2981 113.335 58.1658C112.987 58.0215 112.542 57.8893 112.001 57.769C111.351 57.6007 110.762 57.4083 110.233 57.1918C109.716 56.9753 109.307 56.6928 109.006 56.344C108.718 55.9833 108.573 55.5203 108.573 54.9551C108.573 54.1374 108.886 53.5121 109.511 53.0792C110.149 52.6463 111.063 52.4298 112.253 52.4298C112.818 52.4298 113.39 52.4779 113.967 52.5741C114.556 52.6703 115.079 52.8086 115.536 52.989L115.284 54.1615C114.863 53.9811 114.406 53.8488 113.913 53.7646C113.42 53.6805 112.921 53.6384 112.416 53.6384C111.61 53.6384 111.003 53.7526 110.594 53.9811C110.197 54.2096 109.998 54.5463 109.998 54.9912C109.998 55.2918 110.083 55.5323 110.251 55.7127C110.419 55.8931 110.672 56.0494 111.009 56.1817C111.345 56.314 111.772 56.4402 112.289 56.5605C112.782 56.6687 113.239 56.801 113.66 56.9573C114.093 57.1136 114.472 57.3 114.797 57.5165C115.121 57.7329 115.374 58.0035 115.554 58.3282C115.747 58.6529 115.843 59.0377 115.843 59.4826C115.843 60.0478 115.692 60.5288 115.392 60.9256C115.103 61.3225 114.682 61.6291 114.129 61.8455C113.576 62.062 112.915 62.1702 112.145 62.1702Z" fill="#ADB2B1"/>
<path d="M103.368 62.1702C101.805 62.1702 100.597 61.7493 99.7427 60.9076C98.901 60.0658 98.4801 58.8633 98.4801 57.3C98.4801 55.7849 98.8709 54.5944 99.6525 53.7286C100.446 52.8627 101.541 52.4298 102.935 52.4298C104.27 52.4298 105.292 52.8387 106.002 53.6564C106.711 54.4621 107.066 55.6225 107.066 57.1377C107.066 57.2579 107.066 57.3842 107.066 57.5165C107.066 57.6488 107.06 57.763 107.048 57.8592H99.2557V56.7048H106.002L105.731 57.0836C105.731 55.9171 105.497 55.0453 105.028 54.4681C104.559 53.8909 103.861 53.6023 102.935 53.6023C101.949 53.6023 101.192 53.9149 100.663 54.5402C100.134 55.1535 99.869 56.0314 99.869 57.1738V57.5345C99.869 58.6769 100.158 59.5367 100.735 60.1139C101.324 60.6791 102.184 60.9617 103.314 60.9617C103.831 60.9617 104.366 60.9076 104.92 60.7994C105.485 60.6911 105.99 60.5468 106.435 60.3664L106.651 61.5209C106.194 61.7253 105.677 61.8816 105.1 61.9898C104.523 62.1101 103.946 62.1702 103.368 62.1702Z" fill="#ADB2B1"/>
<path d="M93.8743 62.1702C92.8521 62.1702 91.9743 61.9778 91.2408 61.593C90.5072 61.1962 89.942 60.637 89.5452 59.9155C89.1604 59.182 88.968 58.3101 88.968 57.3C88.968 56.2899 89.1604 55.4241 89.5452 54.7026C89.942 53.9691 90.5072 53.4099 91.2408 53.0251C91.9743 52.6282 92.8521 52.4298 93.8743 52.4298C94.3793 52.4298 94.8603 52.4839 95.3173 52.5922C95.7742 52.6884 96.2192 52.8507 96.6521 53.0792L96.3815 54.2336C95.9727 54.0292 95.5698 53.8789 95.173 53.7827C94.7762 53.6865 94.3733 53.6384 93.9645 53.6384C92.8461 53.6384 91.9743 53.963 91.349 54.6124C90.7237 55.2497 90.411 56.1456 90.411 57.3C90.411 58.4424 90.7237 59.3383 91.349 59.9877C91.9743 60.637 92.8461 60.9617 93.9645 60.9617C94.3733 60.9617 94.7762 60.9136 95.173 60.8174C95.5698 60.7212 95.9727 60.5709 96.3815 60.3664L96.6521 61.5209C96.2192 61.7373 95.7742 61.8997 95.3173 62.0079C94.8603 62.1161 94.3793 62.1702 93.8743 62.1702Z" fill="#ADB2B1"/>
<path d="M78.8565 61.9898V52.6102H80.2454V53.8729H80.2815C80.6422 53.4039 81.1112 53.0491 81.6884 52.8086C82.2656 52.5561 82.921 52.4298 83.6545 52.4298C84.7849 52.4298 85.6207 52.7365 86.1618 53.3498C86.7029 53.963 86.9735 54.919 86.9735 56.2178V61.9898H85.5665V56.4703C85.5665 55.4963 85.3802 54.7808 85.0074 54.3238C84.6466 53.8668 84.0754 53.6384 83.2938 53.6384C82.7046 53.6384 82.1815 53.7586 81.7245 53.9991C81.2796 54.2276 80.9248 54.5463 80.6603 54.9551C80.4077 55.3519 80.2815 55.8149 80.2815 56.344V61.9898H78.8565Z" fill="#ADB2B1"/>
<path d="M71.1924 62.1702C70.2424 62.1702 69.4908 61.9177 68.9377 61.4126C68.3845 60.8956 68.1079 60.2041 68.1079 59.3383C68.1079 58.256 68.5468 57.4263 69.4247 56.8491C70.3025 56.2598 71.5591 55.9652 73.1946 55.9652H74.6917C74.6917 55.364 74.6196 54.895 74.4753 54.5583C74.3309 54.2216 74.0904 53.9871 73.7537 53.8548C73.417 53.7105 72.9481 53.6384 72.3468 53.6384C71.7455 53.6384 71.1322 53.6985 70.5069 53.8187C69.8937 53.939 69.3044 54.1194 68.7392 54.3599L68.4867 53.2055C69.088 52.9529 69.7313 52.7605 70.4168 52.6282C71.1142 52.496 71.8177 52.4298 72.5272 52.4298C73.4291 52.4298 74.1385 52.5441 74.6556 52.7725C75.1727 53.001 75.5455 53.3858 75.774 53.927C76.0024 54.4681 76.1167 55.1896 76.1167 56.0915V61.9898H74.7458L74.7278 60.7092H74.6917C74.379 61.1421 73.892 61.4968 73.2306 61.7734C72.5813 62.0379 71.9019 62.1702 71.1924 62.1702ZM71.6433 60.9978C72.2085 60.9978 72.7196 60.8895 73.1765 60.6731C73.6455 60.4566 74.0123 60.168 74.2768 59.8073C74.5534 59.4345 74.6917 59.0256 74.6917 58.5807V57.0655H73.3749C72.1003 57.0655 71.1383 57.2519 70.4889 57.6247C69.8395 57.9855 69.5149 58.5146 69.5149 59.212C69.5149 59.7652 69.7013 60.2041 70.074 60.5288C70.4468 60.8414 70.9699 60.9978 71.6433 60.9978Z" fill="#ADB2B1"/>
<path d="M58.1589 61.9898V52.6102H59.5478V53.8729H59.5839C59.9446 53.4039 60.4136 53.0491 60.9908 52.8086C61.568 52.5561 62.2234 52.4298 62.9569 52.4298C64.0873 52.4298 64.923 52.7365 65.4642 53.3498C66.0053 53.963 66.2759 54.919 66.2759 56.2178V61.9898H64.8689V56.4703C64.8689 55.4963 64.6825 54.7808 64.3097 54.3238C63.949 53.8668 63.3778 53.6384 62.5962 53.6384C62.0069 53.6384 61.4838 53.7586 61.0269 53.9991C60.5819 54.2276 60.2272 54.5463 59.9626 54.9551C59.7101 55.3519 59.5839 55.8149 59.5839 56.344V61.9898H58.1589Z" fill="#ADB2B1"/>
<path d="M46.3945 61.9898V54.1794H43.7429V52.9709H46.3945V51.2212C46.3945 50.175 46.647 49.3934 47.1521 48.8763C47.6571 48.3592 48.4207 48.1007 49.4429 48.1007C49.7435 48.1007 50.0381 48.1247 50.3267 48.1728C50.6153 48.221 50.8859 48.2871 51.1384 48.3713L50.94 49.5618C50.5071 49.4175 50.0742 49.3453 49.6413 49.3453C48.9919 49.3453 48.5229 49.4956 48.2343 49.7963C47.9578 50.0969 47.8195 50.6079 47.8195 51.3295V52.9709H51.1023V54.1794H47.8195V61.9898H46.3945ZM53.2849 50.4997V48.8222H54.9624V50.4997H53.2849ZM53.4112 61.9898V52.6101H54.8542V61.9898H53.4112Z" fill="#ADB2B1"/>
<path d="M32.0534 61.9898V52.6102H33.4243L33.4423 54.5763H33.4784C33.755 54.1314 34.1097 53.7526 34.5426 53.4399C34.9756 53.1153 35.4686 52.8688 36.0217 52.7004C36.5749 52.52 37.1581 52.4298 37.7714 52.4298V53.6925C36.9777 53.6925 36.2562 53.8548 35.6069 54.1795C34.9575 54.5042 34.4404 54.9371 34.0556 55.4782C33.6828 56.0193 33.4965 56.6266 33.4965 57.3V61.9898H32.0534Z" fill="#ADB2B1"/>
<path d="M24.3373 62.1702C23.219 62.1702 22.3953 61.8635 21.8662 61.2502C21.3491 60.6249 21.0905 59.6689 21.0905 58.3822V52.6101H22.5155V58.1297C22.5155 59.1037 22.6899 59.8192 23.0386 60.2762C23.3873 60.7331 23.9345 60.9616 24.6801 60.9616C25.2573 60.9616 25.7623 60.8474 26.1952 60.6189C26.6402 60.3784 26.9829 60.0597 27.2234 59.6629C27.4759 59.2541 27.6022 58.7851 27.6022 58.256V52.6101H29.0272V61.9898H27.6563L27.6382 60.7271H27.6022C27.2534 61.1961 26.8025 61.5569 26.2493 61.8094C25.6962 62.0499 25.0588 62.1702 24.3373 62.1702Z" fill="#ADB2B1"/>
<path d="M14.6163 62.1702C13.1733 62.1702 12.049 61.7433 11.2433 60.8895C10.4496 60.0358 10.0528 58.8393 10.0528 57.3C10.0528 55.7608 10.4496 54.5643 11.2433 53.7105C12.049 52.8567 13.1733 52.4298 14.6163 52.4298C16.0594 52.4298 17.1777 52.8567 17.9714 53.7105C18.777 54.5643 19.1799 55.7608 19.1799 57.3C19.1799 58.8393 18.777 60.0358 17.9714 60.8895C17.1777 61.7433 16.0594 62.1702 14.6163 62.1702ZM14.6163 60.9617C15.6265 60.9617 16.4021 60.649 16.9432 60.0237C17.4964 59.3864 17.7729 58.4785 17.7729 57.3C17.7729 56.1216 17.4964 55.2197 16.9432 54.5944C16.4021 53.957 15.6265 53.6384 14.6163 53.6384C13.6182 53.6384 12.8426 53.957 12.2895 54.5944C11.7363 55.2197 11.4597 56.1216 11.4597 57.3C11.4597 58.4785 11.7363 59.3864 12.2895 60.0237C12.8426 60.649 13.6182 60.9617 14.6163 60.9617Z" fill="#ADB2B1"/>
<path d="M2.11042 65.7777L3.80597 61.8815L0 52.6282L1.51517 52.6101L4.4914 60.3664H4.52748L7.66605 52.6101H9.19926L3.60755 65.7777H2.11042Z" fill="#ADB2B1"/>
<path d="M468.256 37.9394V30.1291H465.605V28.9205H468.256V27.1709C468.256 26.1247 468.509 25.3431 469.014 24.826C469.519 24.3089 470.282 24.0503 471.305 24.0503C471.605 24.0503 471.9 24.0744 472.188 24.1225C472.477 24.1706 472.748 24.2367 473 24.3209L472.802 25.5114C472.369 25.3671 471.936 25.295 471.503 25.295C470.854 25.295 470.385 25.4453 470.096 25.7459C469.819 26.0465 469.681 26.5576 469.681 27.2791V28.9205H472.964V30.1291H469.681V37.9394H468.256Z" fill="#ADB2B1"/>
<path d="M460.294 38.1199C458.851 38.1199 457.726 37.693 456.92 36.8392C456.127 35.9854 455.73 34.7889 455.73 33.2497C455.73 31.7105 456.127 30.514 456.92 29.6602C457.726 28.8064 458.851 28.3795 460.294 28.3795C461.737 28.3795 462.855 28.8064 463.649 29.6602C464.454 30.514 464.857 31.7105 464.857 33.2497C464.857 34.7889 464.454 35.9854 463.649 36.8392C462.855 37.693 461.737 38.1199 460.294 38.1199ZM460.294 36.9113C461.304 36.9113 462.079 36.5987 462.62 35.9734C463.174 35.336 463.45 34.4281 463.45 33.2497C463.45 32.0712 463.174 31.1693 462.62 30.544C462.079 29.9067 461.304 29.588 460.294 29.588C459.295 29.588 458.52 29.9067 457.967 30.544C457.414 31.1693 457.137 32.0712 457.137 33.2497C457.137 34.4281 457.414 35.336 457.967 35.9734C458.52 36.5987 459.295 36.9113 460.294 36.9113Z" fill="#ADB2B1"/>
<path d="M446.662 37.9394V24.7718H448.105V37.9394H446.662Z" fill="#ADB2B1"/>
<path d="M439.649 38.1199C438.206 38.1199 437.081 37.693 436.276 36.8392C435.482 35.9854 435.085 34.7889 435.085 33.2497C435.085 31.7105 435.482 30.514 436.276 29.6602C437.081 28.8064 438.206 28.3795 439.649 28.3795C441.092 28.3795 442.21 28.8064 443.004 29.6602C443.809 30.514 444.212 31.7105 444.212 33.2497C444.212 34.7889 443.809 35.9854 443.004 36.8392C442.21 37.693 441.092 38.1199 439.649 38.1199ZM439.649 36.9113C440.659 36.9113 441.434 36.5987 441.976 35.9734C442.529 35.336 442.805 34.4281 442.805 33.2497C442.805 32.0712 442.529 31.1693 441.976 30.544C441.434 29.9067 440.659 29.588 439.649 29.588C438.651 29.588 437.875 29.9067 437.322 30.544C436.769 31.1693 436.492 32.0712 436.492 33.2497C436.492 34.4281 436.769 35.336 437.322 35.9734C437.875 36.5987 438.651 36.9113 439.649 36.9113Z" fill="#ADB2B1"/>
<path d="M428.972 37.9395V28.5599H430.343L430.361 30.526H430.397C430.674 30.081 431.029 29.7023 431.462 29.3896C431.894 29.0649 432.387 28.8184 432.941 28.65C433.494 28.4697 434.077 28.3795 434.69 28.3795V29.6421C433.897 29.6421 433.175 29.8045 432.526 30.1291C431.876 30.4538 431.359 30.8867 430.974 31.4279C430.602 31.969 430.415 32.5763 430.415 33.2497V37.9395H428.972Z" fill="#ADB2B1"/>
<path d="M424.542 38.1197C423.52 38.1197 422.78 37.9033 422.323 37.4704C421.879 37.0255 421.656 36.2979 421.656 35.2878V29.7683H419.365V28.5597H421.656V25.4933H423.081V28.5597H426.562V29.7683H423.081V34.9271C423.081 35.6486 423.207 36.1536 423.46 36.4422C423.712 36.7188 424.163 36.8571 424.813 36.8571C425.101 36.8571 425.378 36.8331 425.642 36.785C425.919 36.7369 426.178 36.6707 426.418 36.5865L426.58 37.8131C426.22 37.9213 425.871 37.9995 425.534 38.0476C425.209 38.0957 424.879 38.1197 424.542 38.1197Z" fill="#ADB2B1"/>
<path d="M410.019 37.9395V28.5599H411.407V29.8225H411.444C411.804 29.3535 412.273 28.9988 412.85 28.7583C413.428 28.5057 414.083 28.3795 414.817 28.3795C415.947 28.3795 416.783 28.6861 417.324 29.2994C417.865 29.9127 418.136 30.8687 418.136 32.1674V37.9395H416.729V32.4199C416.729 31.4459 416.542 30.7304 416.169 30.2734C415.809 29.8165 415.237 29.588 414.456 29.588C413.867 29.588 413.343 29.7083 412.887 29.9488C412.442 30.1772 412.087 30.4959 411.822 30.9048C411.57 31.3016 411.444 31.7646 411.444 32.2937V37.9395H410.019Z" fill="#ADB2B1"/>
<path d="M403.168 38.1199C401.725 38.1199 400.601 37.693 399.795 36.8392C399.001 35.9854 398.605 34.7889 398.605 33.2497C398.605 31.7105 399.001 30.514 399.795 29.6602C400.601 28.8064 401.725 28.3795 403.168 28.3795C404.611 28.3795 405.729 28.8064 406.523 29.6602C407.329 30.514 407.732 31.7105 407.732 33.2497C407.732 34.7889 407.329 35.9854 406.523 36.8392C405.729 37.693 404.611 38.1199 403.168 38.1199ZM403.168 36.9113C404.178 36.9113 404.954 36.5987 405.495 35.9734C406.048 35.336 406.325 34.4281 406.325 33.2497C406.325 32.0712 406.048 31.1693 405.495 30.544C404.954 29.9067 404.178 29.588 403.168 29.588C402.17 29.588 401.394 29.9067 400.841 30.544C400.288 31.1693 400.011 32.0712 400.011 33.2497C400.011 34.4281 400.288 35.336 400.841 35.9734C401.394 36.5987 402.17 36.9113 403.168 36.9113Z" fill="#ADB2B1"/>
<path d="M393.999 38.1199C392.977 38.1199 392.099 37.9275 391.365 37.5427C390.632 37.1458 390.066 36.5867 389.67 35.8652C389.285 35.1316 389.092 34.2598 389.092 33.2497C389.092 32.2396 389.285 31.3738 389.67 30.6522C390.066 29.9187 390.632 29.3595 391.365 28.9747C392.099 28.5779 392.977 28.3795 393.999 28.3795C394.504 28.3795 394.985 28.4336 395.442 28.5418C395.899 28.638 396.344 28.8004 396.776 29.0288L396.506 30.1833C396.097 29.9788 395.694 29.8285 395.297 29.7323C394.901 29.6361 394.498 29.588 394.089 29.588C392.971 29.588 392.099 29.9127 391.473 30.5621C390.848 31.1994 390.535 32.0953 390.535 33.2497C390.535 34.3921 390.848 35.2879 391.473 35.9373C392.099 36.5867 392.971 36.9113 394.089 36.9113C394.498 36.9113 394.901 36.8632 395.297 36.767C395.694 36.6708 396.097 36.5205 396.506 36.3161L396.776 37.4705C396.344 37.687 395.899 37.8493 395.442 37.9575C394.985 38.0658 394.504 38.1199 393.999 38.1199Z" fill="#ADB2B1"/>
<path d="M378.708 38.1199C377.145 38.1199 375.937 37.699 375.083 36.8572C374.241 36.0155 373.82 34.813 373.82 33.2497C373.82 31.7345 374.211 30.544 374.993 29.6782C375.786 28.8124 376.881 28.3795 378.276 28.3795C379.61 28.3795 380.632 28.7883 381.342 29.606C382.051 30.4117 382.406 31.5722 382.406 33.0873C382.406 33.2076 382.406 33.3339 382.406 33.4661C382.406 33.5984 382.4 33.7126 382.388 33.8088H374.596V32.6544H381.342L381.071 33.0332C381.071 31.8668 380.837 30.995 380.368 30.4177C379.899 29.8405 379.201 29.5519 378.276 29.5519C377.289 29.5519 376.532 29.8646 376.003 30.4899C375.474 31.1032 375.209 31.981 375.209 33.1234V33.4842C375.209 34.6266 375.498 35.4864 376.075 36.0636C376.664 36.6288 377.524 36.9113 378.654 36.9113C379.171 36.9113 379.707 36.8572 380.26 36.749C380.825 36.6408 381.33 36.4965 381.775 36.3161L381.991 37.4705C381.534 37.6749 381.017 37.8313 380.44 37.9395C379.863 38.0597 379.286 38.1199 378.708 38.1199Z" fill="#ADB2B1"/>
<path d="M365.118 37.9394V24.7718H366.561V32.5822H366.597L371.431 28.5598H373.307L367.86 33.0692L373.542 37.9394H371.666L366.597 33.5382H366.561V37.9394H365.118Z" fill="#ADB2B1"/>
<path d="M357.454 38.1199C356.504 38.1199 355.752 37.8673 355.199 37.3623C354.646 36.8452 354.369 36.1538 354.369 35.2879C354.369 34.2057 354.808 33.3759 355.686 32.7987C356.564 32.2095 357.821 31.9149 359.456 31.9149H360.953C360.953 31.3136 360.881 30.8446 360.737 30.5079C360.592 30.1712 360.352 29.9367 360.015 29.8045C359.678 29.6602 359.209 29.588 358.608 29.588C358.007 29.588 357.394 29.6481 356.768 29.7684C356.155 29.8886 355.566 30.069 355.001 30.3095L354.748 29.1551C355.349 28.9026 355.993 28.7102 356.678 28.5779C357.376 28.4456 358.079 28.3795 358.789 28.3795C359.69 28.3795 360.4 28.4937 360.917 28.7222C361.434 28.9507 361.807 29.3355 362.035 29.8766C362.264 30.4177 362.378 31.1393 362.378 32.0411V37.9395H361.007L360.989 36.6588H360.953C360.64 37.0917 360.153 37.4465 359.492 37.723C358.843 37.9876 358.163 38.1199 357.454 38.1199ZM357.905 36.9474C358.47 36.9474 358.981 36.8392 359.438 36.6227C359.907 36.4063 360.274 36.1177 360.538 35.7569C360.815 35.3841 360.953 34.9753 360.953 34.5304V33.0152H359.636C358.362 33.0152 357.4 33.2016 356.75 33.5744C356.101 33.9351 355.776 34.4642 355.776 35.1617C355.776 35.7148 355.963 36.1538 356.335 36.4784C356.708 36.7911 357.231 36.9474 357.905 36.9474Z" fill="#ADB2B1"/>
<path d="M350.964 38.1197C349.942 38.1197 349.203 37.9033 348.746 37.4704C348.301 37.0255 348.078 36.2979 348.078 35.2878V29.7683H345.787V28.5597H348.078V25.4933H349.503V28.5597H352.984V29.7683H349.503V34.9271C349.503 35.6486 349.629 36.1536 349.882 36.4422C350.134 36.7188 350.585 36.8571 351.235 36.8571C351.523 36.8571 351.8 36.8331 352.065 36.785C352.341 36.7369 352.6 36.6707 352.84 36.5865L353.003 37.8131C352.642 37.9213 352.293 37.9995 351.956 38.0476C351.632 38.0957 351.301 38.1197 350.964 38.1197Z" fill="#ADB2B1"/>
<path d="M333.945 38.1198C332.682 38.1198 331.696 37.6929 330.987 36.8391C330.289 35.9733 329.941 34.7768 329.941 33.2496C329.941 31.7224 330.289 30.5319 330.987 29.6781C331.696 28.8123 332.682 28.3794 333.945 28.3794C334.619 28.3794 335.244 28.5056 335.821 28.7582C336.398 29.0107 336.843 29.3654 337.156 29.8224H337.192V24.7718H338.599V37.9394H337.264L337.246 36.6768H337.21C336.885 37.1217 336.428 37.4764 335.839 37.741C335.25 37.9935 334.619 38.1198 333.945 38.1198ZM334.234 36.9112C334.811 36.9112 335.316 36.797 335.749 36.5685C336.194 36.328 336.543 36.0033 336.795 35.5945C337.06 35.1856 337.192 34.7167 337.192 34.1875V32.3116C337.192 31.7825 337.06 31.3135 336.795 30.9047C336.543 30.4958 336.194 30.1771 335.749 29.9487C335.316 29.7082 334.811 29.5879 334.234 29.5879C333.332 29.5879 332.622 29.9066 332.105 30.5439C331.6 31.1692 331.348 32.0711 331.348 33.2496C331.348 34.428 331.6 35.3359 332.105 35.9733C332.622 36.5986 333.332 36.9112 334.234 36.9112Z" fill="#ADB2B1"/>
<path d="M319.847 37.9395V28.5599H321.236V29.8225H321.272C321.633 29.3535 322.102 28.9988 322.679 28.7583C323.256 28.5057 323.912 28.3795 324.645 28.3795C325.776 28.3795 326.612 28.6861 327.153 29.2994C327.694 29.9127 327.964 30.8687 327.964 32.1674V37.9395H326.557V32.4199C326.557 31.4459 326.371 30.7304 325.998 30.2734C325.637 29.8165 325.066 29.588 324.285 29.588C323.695 29.588 323.172 29.7083 322.715 29.9488C322.27 30.1772 321.916 30.4959 321.651 30.9048C321.399 31.3016 321.272 31.7646 321.272 32.2937V37.9395H319.847Z" fill="#ADB2B1"/>
<path d="M312.183 38.1199C311.233 38.1199 310.482 37.8673 309.929 37.3623C309.375 36.8452 309.099 36.1538 309.099 35.2879C309.099 34.2057 309.538 33.3759 310.416 32.7987C311.293 32.2095 312.55 31.9149 314.185 31.9149H315.683C315.683 31.3136 315.61 30.8446 315.466 30.5079C315.322 30.1712 315.081 29.9367 314.745 29.8045C314.408 29.6602 313.939 29.588 313.338 29.588C312.736 29.588 312.123 29.6481 311.498 29.7684C310.885 29.8886 310.295 30.069 309.73 30.3095L309.478 29.1551C310.079 28.9026 310.722 28.7102 311.408 28.5779C312.105 28.4456 312.809 28.3795 313.518 28.3795C314.42 28.3795 315.129 28.4937 315.646 28.7222C316.164 28.9507 316.536 29.3355 316.765 29.8766C316.993 30.4177 317.108 31.1393 317.108 32.0411V37.9395H315.737L315.719 36.6588H315.683C315.37 37.0917 314.883 37.4465 314.221 37.723C313.572 37.9876 312.893 38.1199 312.183 38.1199ZM312.634 36.9474C313.199 36.9474 313.71 36.8392 314.167 36.6227C314.636 36.4063 315.003 36.1177 315.268 35.7569C315.544 35.3841 315.683 34.9753 315.683 34.5304V33.0152H314.366C313.091 33.0152 312.129 33.2016 311.48 33.5744C310.83 33.9351 310.506 34.4642 310.506 35.1617C310.506 35.7148 310.692 36.1538 311.065 36.4784C311.438 36.7911 311.961 36.9474 312.634 36.9474Z" fill="#ADB2B1"/>
<path d="M293.668 38.1199C293.259 38.1199 292.838 38.0898 292.405 38.0297C291.972 37.9816 291.557 37.9094 291.16 37.8132C290.776 37.705 290.433 37.5848 290.132 37.4525L290.367 36.2981C290.848 36.4784 291.359 36.6288 291.9 36.749C292.453 36.8572 292.994 36.9113 293.523 36.9113C294.317 36.9113 294.918 36.7851 295.327 36.5326C295.736 36.28 295.94 35.9012 295.94 35.3962C295.94 35.0715 295.85 34.813 295.67 34.6205C295.489 34.4161 295.219 34.2478 294.858 34.1155C294.509 33.9712 294.064 33.8389 293.523 33.7187C292.874 33.5503 292.285 33.3579 291.756 33.1415C291.238 32.925 290.83 32.6424 290.529 32.2937C290.24 31.9329 290.096 31.47 290.096 30.9048C290.096 30.0871 290.409 29.4617 291.034 29.0288C291.671 28.5959 292.585 28.3795 293.776 28.3795C294.341 28.3795 294.912 28.4276 295.489 28.5238C296.079 28.62 296.602 28.7583 297.059 28.9387L296.806 30.1111C296.385 29.9307 295.928 29.7985 295.435 29.7143C294.942 29.6301 294.443 29.588 293.938 29.588C293.132 29.588 292.525 29.7023 292.116 29.9307C291.72 30.1592 291.521 30.4959 291.521 30.9408C291.521 31.2415 291.605 31.482 291.774 31.6624C291.942 31.8427 292.195 31.9991 292.531 32.1313C292.868 32.2636 293.295 32.3899 293.812 32.5101C294.305 32.6184 294.762 32.7506 295.183 32.907C295.616 33.0633 295.994 33.2497 296.319 33.4661C296.644 33.6826 296.896 33.9532 297.077 34.2778C297.269 34.6025 297.365 34.9873 297.365 35.4322C297.365 35.9974 297.215 36.4784 296.914 36.8753C296.626 37.2721 296.205 37.5787 295.652 37.7952C295.099 38.0116 294.437 38.1199 293.668 38.1199Z" fill="#ADB2B1"/>
<path d="M279.985 37.9395V28.5599H281.374V29.8225H281.41C281.77 29.3535 282.239 28.9988 282.817 28.7583C283.394 28.5057 284.049 28.3795 284.783 28.3795C285.913 28.3795 286.749 28.6861 287.29 29.2994C287.831 29.9127 288.102 30.8687 288.102 32.1674V37.9395H286.695V32.4199C286.695 31.4459 286.508 30.7304 286.135 30.2734C285.775 29.8165 285.204 29.588 284.422 29.588C283.833 29.588 283.31 29.7083 282.853 29.9488C282.408 30.1772 282.053 30.4959 281.788 30.9048C281.536 31.3016 281.41 31.7646 281.41 32.2937V37.9395H279.985Z" fill="#ADB2B1"/>
<path d="M272.32 38.1199C271.37 38.1199 270.619 37.8673 270.066 37.3623C269.513 36.8452 269.236 36.1538 269.236 35.2879C269.236 34.2057 269.675 33.3759 270.553 32.7987C271.431 32.2095 272.687 31.9149 274.323 31.9149H275.82C275.82 31.3136 275.748 30.8446 275.603 30.5079C275.459 30.1712 275.219 29.9367 274.882 29.8045C274.545 29.6602 274.076 29.588 273.475 29.588C272.874 29.588 272.26 29.6481 271.635 29.7684C271.022 29.8886 270.433 30.069 269.867 30.3095L269.615 29.1551C270.216 28.9026 270.859 28.7102 271.545 28.5779C272.242 28.4456 272.946 28.3795 273.655 28.3795C274.557 28.3795 275.267 28.4937 275.784 28.7222C276.301 28.9507 276.674 29.3355 276.902 29.8766C277.131 30.4177 277.245 31.1393 277.245 32.0411V37.9395H275.874L275.856 36.6588H275.82C275.507 37.0917 275.02 37.4465 274.359 37.723C273.709 37.9876 273.03 38.1199 272.32 38.1199ZM272.771 36.9474C273.337 36.9474 273.848 36.8392 274.305 36.6227C274.774 36.4063 275.14 36.1177 275.405 35.7569C275.682 35.3841 275.82 34.9753 275.82 34.5304V33.0152H274.503C273.228 33.0152 272.266 33.2016 271.617 33.5744C270.968 33.9351 270.643 34.4642 270.643 35.1617C270.643 35.7148 270.829 36.1538 271.202 36.4784C271.575 36.7911 272.098 36.9474 272.771 36.9474Z" fill="#ADB2B1"/>
<path d="M263.199 38.1199C261.756 38.1199 260.632 37.693 259.826 36.8392C259.033 35.9854 258.636 34.7889 258.636 33.2497C258.636 31.7105 259.033 30.514 259.826 29.6602C260.632 28.8064 261.756 28.3795 263.199 28.3795C264.642 28.3795 265.761 28.8064 266.554 29.6602C267.36 30.514 267.763 31.7105 267.763 33.2497C267.763 34.7889 267.36 35.9854 266.554 36.8392C265.761 37.693 264.642 38.1199 263.199 38.1199ZM263.199 36.9113C264.209 36.9113 264.985 36.5987 265.526 35.9734C266.079 35.336 266.356 34.4281 266.356 33.2497C266.356 32.0712 266.079 31.1693 265.526 30.544C264.985 29.9067 264.209 29.588 263.199 29.588C262.201 29.588 261.426 29.9067 260.872 30.544C260.319 31.1693 260.043 32.0712 260.043 33.2497C260.043 34.4281 260.319 35.336 260.872 35.9734C261.426 36.5987 262.201 36.9113 263.199 36.9113Z" fill="#ADB2B1"/>
<path d="M254.746 37.9394V24.7718H256.189V37.9394H254.746Z" fill="#ADB2B1"/>
<path d="M242.678 37.9394V30.1291H240.027V28.9205H242.678V27.1709C242.678 26.1247 242.931 25.3431 243.436 24.826C243.941 24.3089 244.705 24.0503 245.727 24.0503C246.027 24.0503 246.322 24.0744 246.611 24.1225C246.899 24.1706 247.17 24.2367 247.422 24.3209L247.224 25.5114C246.791 25.3671 246.358 25.295 245.925 25.295C245.276 25.295 244.807 25.4453 244.518 25.7459C244.242 26.0465 244.103 26.5576 244.103 27.2791V28.9205H247.386V30.1291H244.103V37.9394H242.678Z" fill="#ADB2B1"/>
<path d="M234.716 38.1199C233.273 38.1199 232.148 37.693 231.343 36.8392C230.549 35.9854 230.152 34.7889 230.152 33.2497C230.152 31.7105 230.549 30.514 231.343 29.6602C232.148 28.8064 233.273 28.3795 234.716 28.3795C236.159 28.3795 237.277 28.8064 238.071 29.6602C238.876 30.514 239.279 31.7105 239.279 33.2497C239.279 34.7889 238.876 35.9854 238.071 36.8392C237.277 37.693 236.159 38.1199 234.716 38.1199ZM234.716 36.9113C235.726 36.9113 236.502 36.5987 237.043 35.9734C237.596 35.336 237.872 34.4281 237.872 33.2497C237.872 32.0712 237.596 31.1693 237.043 30.544C236.502 29.9067 235.726 29.588 234.716 29.588C233.718 29.588 232.942 29.9067 232.389 30.544C231.836 31.1693 231.559 32.0712 231.559 33.2497C231.559 34.4281 231.836 35.336 232.389 35.9734C232.942 36.5987 233.718 36.9113 234.716 36.9113Z" fill="#ADB2B1"/>
<path d="M219.768 38.1199C218.205 38.1199 216.996 37.699 216.143 36.8572C215.301 36.0155 214.88 34.813 214.88 33.2497C214.88 31.7345 215.271 30.544 216.052 29.6782C216.846 28.8124 217.94 28.3795 219.335 28.3795C220.67 28.3795 221.692 28.7883 222.402 29.606C223.111 30.4117 223.466 31.5722 223.466 33.0873C223.466 33.2076 223.466 33.3339 223.466 33.4661C223.466 33.5984 223.46 33.7126 223.448 33.8088H215.656V32.6544H222.402L222.131 33.0332C222.131 31.8668 221.897 30.995 221.428 30.4177C220.959 29.8405 220.261 29.5519 219.335 29.5519C218.349 29.5519 217.592 29.8646 217.063 30.4899C216.533 31.1032 216.269 31.981 216.269 33.1234V33.4842C216.269 34.6266 216.558 35.4864 217.135 36.0636C217.724 36.6288 218.584 36.9113 219.714 36.9113C220.231 36.9113 220.766 36.8572 221.32 36.749C221.885 36.6408 222.39 36.4965 222.835 36.3161L223.051 37.4705C222.594 37.6749 222.077 37.8313 221.5 37.9395C220.923 38.0597 220.345 38.1199 219.768 38.1199Z" fill="#ADB2B1"/>
<path d="M207.964 41.9078C207.254 41.9078 206.581 41.8357 205.944 41.6914C205.318 41.547 204.777 41.3366 204.32 41.06L204.573 39.9056C205.006 40.1581 205.505 40.3505 206.07 40.4828C206.647 40.6271 207.236 40.6993 207.838 40.6993C209.028 40.6993 209.876 40.4107 210.381 39.8335C210.898 39.2683 211.157 38.3363 211.157 37.0376V36.2079H211.12C210.796 36.6288 210.351 36.9655 209.786 37.218C209.221 37.4585 208.595 37.5787 207.91 37.5787C206.659 37.5787 205.679 37.1759 204.97 36.3702C204.26 35.5525 203.905 34.4221 203.905 32.9791C203.905 31.5361 204.26 30.4117 204.97 29.606C205.679 28.7883 206.659 28.3795 207.91 28.3795C208.595 28.3795 209.227 28.5057 209.804 28.7583C210.381 28.9988 210.832 29.3295 211.157 29.7504H211.193L211.211 28.5599H212.564V37.0376C212.564 38.7211 212.191 39.9537 211.445 40.7354C210.712 41.517 209.551 41.9078 207.964 41.9078ZM208.216 36.3702C208.782 36.3702 209.281 36.268 209.714 36.0636C210.158 35.8471 210.507 35.5585 210.76 35.1978C211.024 34.825 211.157 34.3981 211.157 33.9171V32.0411C211.157 31.5722 211.024 31.1513 210.76 30.7785C210.507 30.4057 210.158 30.1171 209.714 29.9127C209.281 29.6962 208.782 29.588 208.216 29.588C207.303 29.588 206.587 29.8826 206.07 30.4719C205.565 31.0611 205.312 31.8968 205.312 32.9791C205.312 34.0614 205.565 34.8971 206.07 35.4864C206.587 36.0756 207.303 36.3702 208.216 36.3702Z" fill="#ADB2B1"/>
<path d="M193.812 37.9395V28.5599H195.201V29.8225H195.237C195.598 29.3535 196.067 28.9988 196.644 28.7583C197.221 28.5057 197.877 28.3795 198.61 28.3795C199.74 28.3795 200.576 28.6861 201.117 29.2994C201.658 29.9127 201.929 30.8687 201.929 32.1674V37.9395H200.522V32.4199C200.522 31.4459 200.336 30.7304 199.963 30.2734C199.602 29.8165 199.031 29.588 198.249 29.588C197.66 29.588 197.137 29.7083 196.68 29.9488C196.235 30.1772 195.88 30.4959 195.616 30.9048C195.363 31.3016 195.237 31.7646 195.237 32.2937V37.9395H193.812Z" fill="#ADB2B1"/>
<path d="M186.148 38.1199C185.198 38.1199 184.446 37.8673 183.893 37.3623C183.34 36.8452 183.063 36.1538 183.063 35.2879C183.063 34.2057 183.502 33.3759 184.38 32.7987C185.258 32.2095 186.515 31.9149 188.15 31.9149H189.647C189.647 31.3136 189.575 30.8446 189.431 30.5079C189.286 30.1712 189.046 29.9367 188.709 29.8045C188.373 29.6602 187.904 29.588 187.302 29.588C186.701 29.588 186.088 29.6481 185.462 29.7684C184.849 29.8886 184.26 30.069 183.695 30.3095L183.442 29.1551C184.043 28.9026 184.687 28.7102 185.372 28.5779C186.07 28.4456 186.773 28.3795 187.483 28.3795C188.385 28.3795 189.094 28.4937 189.611 28.7222C190.128 28.9507 190.501 29.3355 190.729 29.8766C190.958 30.4177 191.072 31.1393 191.072 32.0411V37.9395H189.701L189.683 36.6588H189.647C189.335 37.0917 188.848 37.4465 188.186 37.723C187.537 37.9876 186.857 38.1199 186.148 38.1199ZM186.599 36.9474C187.164 36.9474 187.675 36.8392 188.132 36.6227C188.601 36.4063 188.968 36.1177 189.232 35.7569C189.509 35.3841 189.647 34.9753 189.647 34.5304V33.0152H188.33C187.056 33.0152 186.094 33.2016 185.444 33.5744C184.795 33.9351 184.47 34.4642 184.47 35.1617C184.47 35.7148 184.657 36.1538 185.03 36.4784C185.402 36.7911 185.925 36.9474 186.599 36.9474Z" fill="#ADB2B1"/>
<path d="M176.602 37.9395V28.5599H177.973L177.991 30.526H178.027C178.304 30.081 178.658 29.7023 179.091 29.3896C179.524 29.0649 180.017 28.8184 180.57 28.65C181.124 28.4697 181.707 28.3795 182.32 28.3795V29.6421C181.526 29.6421 180.805 29.8045 180.156 30.1291C179.506 30.4538 178.989 30.8867 178.604 31.4279C178.232 31.969 178.045 32.5763 178.045 33.2497V37.9395H176.602Z" fill="#ADB2B1"/>
<path d="M163.849 37.9395V28.5599H165.22L165.238 30.526H165.274C165.55 30.081 165.905 29.7023 166.338 29.3896C166.771 29.0649 167.264 28.8184 167.817 28.65C168.37 28.4697 168.954 28.3795 169.567 28.3795V29.6421C168.773 29.6421 168.052 29.8045 167.402 30.1291C166.753 30.4538 166.236 30.8867 165.851 31.4279C165.478 31.969 165.292 32.5763 165.292 33.2497V37.9395H163.849Z" fill="#ADB2B1"/>
<path d="M156.133 38.1198C155.014 38.1198 154.191 37.8132 153.662 37.1999C153.145 36.5746 152.886 35.6186 152.886 34.3319V28.5598H154.311V34.0793C154.311 35.0534 154.485 35.7689 154.834 36.2258C155.183 36.6828 155.73 36.9113 156.476 36.9113C157.053 36.9113 157.558 36.797 157.991 36.5686C158.436 36.3281 158.778 36.0094 159.019 35.6126C159.271 35.2037 159.398 34.7347 159.398 34.2056V28.5598H160.823V37.9394H159.452L159.434 36.6768H159.398C159.049 37.1458 158.598 37.5065 158.045 37.759C157.492 37.9996 156.854 38.1198 156.133 38.1198Z" fill="#ADB2B1"/>
<path d="M146.412 38.1199C144.969 38.1199 143.844 37.693 143.039 36.8392C142.245 35.9854 141.848 34.7889 141.848 33.2497C141.848 31.7105 142.245 30.514 143.039 29.6602C143.844 28.8064 144.969 28.3795 146.412 28.3795C147.855 28.3795 148.973 28.8064 149.767 29.6602C150.572 30.514 150.975 31.7105 150.975 33.2497C150.975 34.7889 150.572 35.9854 149.767 36.8392C148.973 37.693 147.855 38.1199 146.412 38.1199ZM146.412 36.9113C147.422 36.9113 148.198 36.5987 148.739 35.9734C149.292 35.336 149.568 34.4281 149.568 33.2497C149.568 32.0712 149.292 31.1693 148.739 30.544C148.198 29.9067 147.422 29.588 146.412 29.588C145.414 29.588 144.638 29.9067 144.085 30.544C143.532 31.1693 143.255 32.0712 143.255 33.2497C143.255 34.4281 143.532 35.336 144.085 35.9734C144.638 36.5987 145.414 36.9113 146.412 36.9113Z" fill="#ADB2B1"/>
<path d="M131.464 38.1199C129.901 38.1199 128.692 37.699 127.839 36.8572C126.997 36.0155 126.576 34.813 126.576 33.2497C126.576 31.7345 126.967 30.544 127.748 29.6782C128.542 28.8124 129.636 28.3795 131.031 28.3795C132.366 28.3795 133.388 28.7883 134.098 29.606C134.807 30.4117 135.162 31.5722 135.162 33.0873C135.162 33.2076 135.162 33.3339 135.162 33.4661C135.162 33.5984 135.156 33.7126 135.144 33.8088H127.352V32.6544H134.098L133.827 33.0332C133.827 31.8668 133.593 30.995 133.124 30.4177C132.655 29.8405 131.957 29.5519 131.031 29.5519C130.045 29.5519 129.288 29.8646 128.759 30.4899C128.229 31.1032 127.965 31.981 127.965 33.1234V33.4842C127.965 34.6266 128.254 35.4864 128.831 36.0636C129.42 36.6288 130.28 36.9113 131.41 36.9113C131.927 36.9113 132.462 36.8572 133.016 36.749C133.581 36.6408 134.086 36.4965 134.531 36.3161L134.747 37.4705C134.29 37.6749 133.773 37.8313 133.196 37.9395C132.619 38.0597 132.041 38.1199 131.464 38.1199Z" fill="#ADB2B1"/>
<path d="M120.463 37.9395V28.5599H121.834L121.852 30.526H121.888C122.165 30.081 122.519 29.7023 122.952 29.3896C123.385 29.0649 123.878 28.8184 124.431 28.65C124.985 28.4697 125.568 28.3795 126.181 28.3795V29.6421C125.387 29.6421 124.666 29.8045 124.017 30.1291C123.367 30.4538 122.85 30.8867 122.465 31.4279C122.093 31.969 121.906 32.5763 121.906 33.2497V37.9395H120.463Z" fill="#ADB2B1"/>
<path d="M113.613 38.1199C112.17 38.1199 111.045 37.693 110.24 36.8392C109.446 35.9854 109.049 34.7889 109.049 33.2497C109.049 31.7105 109.446 30.514 110.24 29.6602C111.045 28.8064 112.17 28.3795 113.613 28.3795C115.056 28.3795 116.174 28.8064 116.968 29.6602C117.773 30.514 118.176 31.7105 118.176 33.2497C118.176 34.7889 117.773 35.9854 116.968 36.8392C116.174 37.693 115.056 38.1199 113.613 38.1199ZM113.613 36.9113C114.623 36.9113 115.398 36.5987 115.94 35.9734C116.493 35.336 116.769 34.4281 116.769 33.2497C116.769 32.0712 116.493 31.1693 115.94 30.544C115.398 29.9067 114.623 29.588 113.613 29.588C112.615 29.588 111.839 29.9067 111.286 30.544C110.733 31.1693 110.456 32.0712 110.456 33.2497C110.456 34.4281 110.733 35.336 111.286 35.9734C111.839 36.5987 112.615 36.9113 113.613 36.9113Z" fill="#ADB2B1"/>
<path d="M105.16 37.9394V24.7718H106.603V37.9394H105.16Z" fill="#ADB2B1"/>
<path d="M98.7304 28.3795C99.9811 28.3795 100.955 28.8124 101.653 29.6782C102.35 30.532 102.699 31.7225 102.699 33.2497C102.699 34.7769 102.35 35.9734 101.653 36.8392C100.955 37.693 99.9811 38.1199 98.7304 38.1199C98.045 38.1199 97.4137 37.9936 96.8365 37.7411C96.2713 37.4765 95.8264 37.1218 95.5017 36.6769H95.4656V41.7274H94.0406V28.5599H95.4115V29.8225H95.4476C95.7843 29.3655 96.2412 29.0108 96.8184 28.7583C97.4077 28.5057 98.045 28.3795 98.7304 28.3795ZM98.4238 29.588C97.8586 29.588 97.3536 29.7083 96.9086 29.9488C96.4637 30.1772 96.109 30.4959 95.8444 30.9048C95.5919 31.3016 95.4656 31.7706 95.4656 32.3117V34.1876C95.4656 34.7167 95.5919 35.1857 95.8444 35.5946C96.109 36.0034 96.4637 36.3281 96.9086 36.5686C97.3536 36.7971 97.8586 36.9113 98.4238 36.9113C99.3497 36.9113 100.059 36.5987 100.552 35.9734C101.057 35.336 101.31 34.4281 101.31 33.2497C101.31 32.0712 101.057 31.1693 100.552 30.544C100.059 29.9067 99.3497 29.588 98.4238 29.588Z" fill="#ADB2B1"/>
<path d="M83.363 37.9394L86.6639 33.2135L83.4171 28.5598H85.0585L87.6019 32.4199H87.638L90.1993 28.5598H91.8407L88.594 33.2135L91.8949 37.9394H90.2534L87.638 34.0072H87.6019L85.0044 37.9394H83.363Z" fill="#ADB2B1"/>
<path d="M73.3117 37.9394V24.7718H81.6812V26.0705H74.7547V30.3635H81.3204V31.6442H74.7547V36.6407H81.6812V37.9394H73.3117Z" fill="#ADB2B1"/>
<path d="M62.659 37.9395V36.0095H64.589V37.9395H62.659Z" fill="#ADB2B1"/>
<path d="M46.6387 37.9395V28.5599H47.9915V29.8225H48.0276C48.3522 29.3896 48.7671 29.0409 49.2722 28.7763C49.7892 28.5118 50.3785 28.3795 51.0399 28.3795C51.7013 28.3795 52.2544 28.5057 52.6993 28.7583C53.1443 28.9988 53.4449 29.3535 53.6012 29.8225H53.6373C53.986 29.3415 54.4129 28.9807 54.918 28.7402C55.4351 28.4997 56.0303 28.3795 56.7037 28.3795C57.7138 28.3795 58.4414 28.6621 58.8863 29.2273C59.3433 29.7804 59.5717 30.6703 59.5717 31.8968V37.9395H58.1828V32.2035C58.1828 31.2776 58.0325 30.6102 57.7319 30.2013C57.4433 29.7924 56.9683 29.588 56.3069 29.588C55.5613 29.588 54.9601 29.8345 54.5031 30.3276C54.0462 30.8206 53.8177 31.476 53.8177 32.2937V37.9395H52.4107V31.8067C52.4107 31.0851 52.2484 30.538 51.9237 30.1652C51.599 29.7804 51.1361 29.588 50.5348 29.588C50.0658 29.588 49.6389 29.7143 49.2541 29.9668C48.8814 30.2193 48.5807 30.556 48.3522 30.9769C48.1358 31.3858 48.0276 31.8247 48.0276 32.2937V37.9395H46.6387Z" fill="#ADB2B1"/>
<path d="M40.6942 38.1199C39.1309 38.1199 37.9224 37.699 37.0686 36.8572C36.2268 36.0155 35.8059 34.813 35.8059 33.2497C35.8059 31.7345 36.1967 30.544 36.9784 29.6782C37.772 28.8124 38.8663 28.3795 40.2612 28.3795C41.596 28.3795 42.6182 28.7883 43.3277 29.606C44.0372 30.4117 44.3919 31.5722 44.3919 33.0873C44.3919 33.2076 44.3919 33.3339 44.3919 33.4661C44.3919 33.5984 44.3859 33.7126 44.3739 33.8088H36.5815V32.6544H43.3277L43.0571 33.0332C43.0571 31.8668 42.8226 30.995 42.3536 30.4177C41.8846 29.8405 41.1872 29.5519 40.2612 29.5519C39.2752 29.5519 38.5176 29.8646 37.9885 30.4899C37.4594 31.1032 37.1948 31.981 37.1948 33.1234V33.4842C37.1948 34.6266 37.4834 35.4864 38.0606 36.0636C38.6499 36.6288 39.5097 36.9113 40.64 36.9113C41.1571 36.9113 41.6922 36.8572 42.2454 36.749C42.8106 36.6408 43.3156 36.4965 43.7606 36.3161L43.977 37.4705C43.5201 37.6749 43.003 37.8313 42.4258 37.9395C41.8486 38.0597 41.2714 38.1199 40.6942 38.1199Z" fill="#ADB2B1"/>
<path d="M32.4145 38.1197C31.3924 38.1197 30.6528 37.9033 30.1959 37.4704C29.7509 37.0255 29.5285 36.2979 29.5285 35.2878V29.7683H27.2377V28.5597H29.5285V25.4933H30.9535V28.5597H34.4348V29.7683H30.9535V34.9271C30.9535 35.6486 31.0797 36.1536 31.3323 36.4422C31.5848 36.7188 32.0357 36.8571 32.6851 36.8571C32.9737 36.8571 33.2503 36.8331 33.5148 36.785C33.7914 36.7369 34.0499 36.6707 34.2905 36.5865L34.4528 37.8131C34.092 37.9213 33.7433 37.9995 33.4066 38.0476C33.0819 38.0957 32.7512 38.1197 32.4145 38.1197Z" fill="#ADB2B1"/>
<path d="M22.4318 38.1199C22.0229 38.1199 21.602 38.0898 21.1691 38.0297C20.7362 37.9816 20.3213 37.9094 19.9245 37.8132C19.5397 37.705 19.197 37.5848 18.8964 37.4525L19.1309 36.2981C19.6119 36.4784 20.1229 36.6288 20.6641 36.749C21.2172 36.8572 21.7584 36.9113 22.2875 36.9113C23.0811 36.9113 23.6824 36.7851 24.0912 36.5326C24.5001 36.28 24.7045 35.9012 24.7045 35.3962C24.7045 35.0715 24.6143 34.813 24.434 34.6205C24.2536 34.4161 23.983 34.2478 23.6223 34.1155C23.2735 33.9712 22.8286 33.8389 22.2875 33.7187C21.6381 33.5503 21.0489 33.3579 20.5198 33.1415C20.0027 32.925 19.5938 32.6424 19.2932 32.2937C19.0046 31.9329 18.8603 31.47 18.8603 30.9048C18.8603 30.0871 19.1729 29.4617 19.7982 29.0288C20.4356 28.5959 21.3495 28.3795 22.54 28.3795C23.1052 28.3795 23.6764 28.4276 24.2536 28.5238C24.8428 28.62 25.3659 28.7583 25.8229 28.9387L25.5703 30.1111C25.1495 29.9307 24.6925 29.7985 24.1995 29.7143C23.7064 29.6301 23.2074 29.588 22.7023 29.588C21.8966 29.588 21.2894 29.7023 20.8805 29.9307C20.4837 30.1592 20.2853 30.4959 20.2853 30.9408C20.2853 31.2415 20.3694 31.482 20.5378 31.6624C20.7061 31.8427 20.9587 31.9991 21.2954 32.1313C21.6321 32.2636 22.059 32.3899 22.5761 32.5101C23.0691 32.6184 23.5261 32.7506 23.9469 32.907C24.3798 33.0633 24.7586 33.2497 25.0833 33.4661C25.408 33.6826 25.6605 33.9532 25.8409 34.2778C26.0333 34.6025 26.1295 34.9873 26.1295 35.4322C26.1295 35.9974 25.9792 36.4784 25.6786 36.8753C25.39 37.2721 24.9691 37.5787 24.4159 37.7952C23.8628 38.0116 23.2014 38.1199 22.4318 38.1199Z" fill="#ADB2B1"/>
<path d="M10.9179 41.7274L12.6135 37.8312L8.8075 28.5778L10.3227 28.5598L13.2989 36.316H13.335L16.4736 28.5598H18.0068L12.4151 41.7274H10.9179Z" fill="#ADB2B1"/>
<path d="M4.09454 38.1199C3.68569 38.1199 3.26481 38.0898 2.8319 38.0297C2.39899 37.9816 1.98413 37.9094 1.5873 37.8132C1.20249 37.705 0.859773 37.5848 0.559143 37.4525L0.793634 36.2981C1.27464 36.4784 1.78571 36.6288 2.32684 36.749C2.88 36.8572 3.42114 36.9113 3.95024 36.9113C4.7439 36.9113 5.34516 36.7851 5.75402 36.5326C6.16287 36.28 6.3673 35.9012 6.3673 35.3962C6.3673 35.0715 6.27711 34.813 6.09674 34.6205C5.91636 34.4161 5.64579 34.2478 5.28504 34.1155C4.93631 33.9712 4.49138 33.8389 3.95024 33.7187C3.30088 33.5503 2.71165 33.3579 2.18254 33.1415C1.66546 32.925 1.2566 32.6424 0.955974 32.2937C0.66737 31.9329 0.523068 31.47 0.523068 30.9048C0.523068 30.0871 0.835722 29.4617 1.46103 29.0288C2.09837 28.5959 3.01228 28.3795 4.20277 28.3795C4.76795 28.3795 5.33915 28.4276 5.91636 28.5238C6.50559 28.62 7.02869 28.7583 7.48564 28.9387L7.23312 30.1111C6.81223 29.9307 6.35528 29.7985 5.86225 29.7143C5.36921 29.6301 4.87017 29.588 4.36511 29.588C3.55942 29.588 2.95215 29.7023 2.5433 29.9307C2.14647 30.1592 1.94805 30.4959 1.94805 30.9408C1.94805 31.2415 2.03223 31.482 2.20058 31.6624C2.36893 31.8427 2.62146 31.9991 2.95817 32.1313C3.29487 32.2636 3.72176 32.3899 4.23885 32.5101C4.73188 32.6184 5.18884 32.7506 5.60972 32.907C6.04262 33.0633 6.42142 33.2497 6.7461 33.4661C7.07078 33.6826 7.3233 33.9532 7.50368 34.2778C7.69608 34.6025 7.79229 34.9873 7.79229 35.4322C7.79229 35.9974 7.64197 36.4784 7.34134 36.8753C7.05274 37.2721 6.63186 37.5787 6.0787 37.7952C5.52554 38.0116 4.86416 38.1199 4.09454 38.1199Z" fill="#ADB2B1"/>
<path d="M466.431 14.0694C465.408 14.0694 464.669 13.8529 464.212 13.42C463.767 12.9751 463.545 12.2476 463.545 11.2375V5.71791H461.254V4.50938H463.545V1.44296H464.97V4.50938H468.451V5.71791H464.97V10.8767C464.97 11.5982 465.096 12.1033 465.348 12.3919C465.601 12.6685 466.052 12.8068 466.701 12.8068C466.99 12.8068 467.266 12.7827 467.531 12.7346C467.807 12.6865 468.066 12.6204 468.307 12.5362L468.469 13.7628C468.108 13.871 467.759 13.9491 467.423 13.9972C467.098 14.0453 466.767 14.0694 466.431 14.0694Z" fill="#ADB2B1"/>
<path d="M457.424 2.39899V0.721481H459.102V2.39899H457.424ZM457.551 13.889V4.50941H458.994V13.889H457.551Z" fill="#ADB2B1"/>
<path d="M449.552 14.0694C448.29 14.0694 447.304 13.6425 446.594 12.7887C445.897 11.9229 445.548 10.7264 445.548 9.19923C445.548 7.67203 445.897 6.48154 446.594 5.62775C447.304 4.76194 448.29 4.32903 449.552 4.32903C450.226 4.32903 450.851 4.4553 451.428 4.70783C452.005 4.96036 452.45 5.3151 452.763 5.77205H452.799V0.721481H454.206V13.889H452.871L452.853 12.6264H452.817C452.493 13.0713 452.036 13.4261 451.446 13.6906C450.857 13.9432 450.226 14.0694 449.552 14.0694ZM449.841 12.8609C450.418 12.8609 450.923 12.7467 451.356 12.5182C451.801 12.2777 452.15 11.953 452.402 11.5441C452.667 11.1353 452.799 10.6663 452.799 10.1372V8.26127C452.799 7.73216 452.667 7.26318 452.402 6.85432C452.15 6.44546 451.801 6.1268 451.356 5.89832C450.923 5.65782 450.418 5.53756 449.841 5.53756C448.939 5.53756 448.23 5.85623 447.713 6.49357C447.207 7.11887 446.955 8.02076 446.955 9.19923C446.955 10.3777 447.207 11.2856 447.713 11.9229C448.23 12.5482 448.939 12.8609 449.841 12.8609Z" fill="#ADB2B1"/>
<path d="M440.273 14.0695C438.71 14.0695 437.501 13.6486 436.647 12.8069C435.806 11.9651 435.385 10.7626 435.385 9.19933C435.385 7.68416 435.775 6.49366 436.557 5.62785C437.351 4.76204 438.445 4.32913 439.84 4.32913C441.175 4.32913 442.197 4.73799 442.906 5.5557C443.616 6.36139 443.971 7.52182 443.971 9.03699C443.971 9.15724 443.971 9.2835 443.971 9.41578C443.971 9.54806 443.965 9.6623 443.953 9.7585H436.16V8.60408H442.906L442.636 8.98288C442.636 7.81643 442.401 6.94461 441.932 6.3674C441.463 5.79019 440.766 5.50159 439.84 5.50159C438.854 5.50159 438.096 5.81424 437.567 6.43955C437.038 7.05283 436.774 7.93067 436.774 9.07306V9.43382C436.774 10.5762 437.062 11.436 437.639 12.0132C438.229 12.5784 439.088 12.861 440.219 12.861C440.736 12.861 441.271 12.8069 441.824 12.6987C442.389 12.5904 442.894 12.4461 443.339 12.2657L443.556 13.4202C443.099 13.6246 442.582 13.7809 442.005 13.8891C441.427 14.0094 440.85 14.0695 440.273 14.0695Z" fill="#ADB2B1"/>
<path d="M429.272 13.8891V4.50951H430.643L430.661 6.47563H430.697C430.973 6.03069 431.328 5.6519 431.761 5.33925C432.194 5.01457 432.687 4.76805 433.24 4.5997C433.793 4.41932 434.376 4.32913 434.99 4.32913V5.59178C434.196 5.59178 433.475 5.75412 432.825 6.07879C432.176 6.40347 431.659 6.83638 431.274 7.37751C430.901 7.91865 430.715 8.52592 430.715 9.19933V13.8891H429.272Z" fill="#ADB2B1"/>
<path d="M423.75 14.0695C422.728 14.0695 421.85 13.8771 421.117 13.4923C420.383 13.0955 419.818 12.5363 419.421 11.8148C419.037 11.0813 418.844 10.2094 418.844 9.19933C418.844 8.18921 419.037 7.3234 419.421 6.60189C419.818 5.86835 420.383 5.30918 421.117 4.92438C421.85 4.52755 422.728 4.32913 423.75 4.32913C424.255 4.32913 424.736 4.38325 425.193 4.49147C425.65 4.58767 426.095 4.75001 426.528 4.97849L426.258 6.13291C425.849 5.92848 425.446 5.77817 425.049 5.68196C424.652 5.58576 424.249 5.53766 423.841 5.53766C422.722 5.53766 421.85 5.86234 421.225 6.5117C420.6 7.14904 420.287 8.04491 420.287 9.19933C420.287 10.3417 420.6 11.2376 421.225 11.887C421.85 12.5363 422.722 12.861 423.841 12.861C424.249 12.861 424.652 12.8129 425.049 12.7167C425.446 12.6205 425.849 12.4702 426.258 12.2657L426.528 13.4202C426.095 13.6366 425.65 13.799 425.193 13.9072C424.736 14.0154 424.255 14.0695 423.75 14.0695Z" fill="#ADB2B1"/>
<path d="M406.749 17.8575C406.04 17.8575 405.366 17.7853 404.729 17.641C404.104 17.4967 403.563 17.2863 403.106 17.0097L403.358 15.8553C403.791 16.1078 404.29 16.3002 404.855 16.4325C405.432 16.5768 406.022 16.6489 406.623 16.6489C407.813 16.6489 408.661 16.3603 409.166 15.7831C409.683 15.2179 409.942 14.286 409.942 12.9873V12.1575H409.906C409.581 12.5784 409.136 12.9151 408.571 13.1676C408.006 13.4081 407.381 13.5284 406.695 13.5284C405.444 13.5284 404.464 13.1255 403.755 12.3199C403.045 11.5021 402.691 10.3718 402.691 8.92876C402.691 7.48574 403.045 6.36139 403.755 5.5557C404.464 4.73799 405.444 4.32913 406.695 4.32913C407.381 4.32913 408.012 4.4554 408.589 4.70793C409.166 4.94843 409.617 5.27912 409.942 5.7H409.978L409.996 4.50951H411.349V12.9873C411.349 14.6708 410.976 15.9034 410.23 16.685C409.497 17.4666 408.337 17.8575 406.749 17.8575ZM407.002 12.3199C407.567 12.3199 408.066 12.2176 408.499 12.0132C408.944 11.7968 409.293 11.5082 409.545 11.1474C409.81 10.7746 409.942 10.3477 409.942 9.86673V7.9908C409.942 7.52182 409.81 7.10094 409.545 6.72815C409.293 6.35537 408.944 6.06677 408.499 5.86234C408.066 5.64589 407.567 5.53766 407.002 5.53766C406.088 5.53766 405.372 5.83228 404.855 6.42151C404.35 7.01075 404.098 7.8465 404.098 8.92876C404.098 10.011 404.35 10.8468 404.855 11.436C405.372 12.0252 406.088 12.3199 407.002 12.3199Z" fill="#ADB2B1"/>
<path d="M392.597 13.8891V4.50951H393.986V5.77215H394.022C394.383 5.30317 394.852 4.94843 395.429 4.70793C396.006 4.4554 396.662 4.32913 397.395 4.32913C398.526 4.32913 399.361 4.63577 399.903 5.24906C400.444 5.86234 400.714 6.81834 400.714 8.11706V13.8891H399.307V8.36959C399.307 7.39555 399.121 6.68005 398.748 6.2231C398.387 5.76614 397.816 5.53766 397.035 5.53766C396.445 5.53766 395.922 5.65791 395.465 5.89842C395.02 6.1269 394.666 6.44556 394.401 6.85442C394.149 7.25125 394.022 7.71422 394.022 8.24333V13.8891H392.597Z" fill="#ADB2B1"/>
<path d="M387.722 2.39899V0.721481H389.399V2.39899H387.722ZM387.848 13.889V4.50941H389.291V13.889H387.848Z" fill="#ADB2B1"/>
<path d="M379.85 14.0694C378.587 14.0694 377.601 13.6425 376.892 12.7887C376.194 11.9229 375.845 10.7264 375.845 9.19923C375.845 7.67203 376.194 6.48154 376.892 5.62775C377.601 4.76194 378.587 4.32903 379.85 4.32903C380.523 4.32903 381.149 4.4553 381.726 4.70783C382.303 4.96036 382.748 5.3151 383.061 5.77205H383.097V0.721481H384.504V13.889H383.169L383.151 12.6264H383.115C382.79 13.0713 382.333 13.4261 381.744 13.6906C381.155 13.9432 380.523 14.0694 379.85 14.0694ZM380.138 12.8609C380.716 12.8609 381.221 12.7467 381.654 12.5182C382.099 12.2777 382.447 11.953 382.7 11.5441C382.964 11.1353 383.097 10.6663 383.097 10.1372V8.26127C383.097 7.73216 382.964 7.26318 382.7 6.85432C382.447 6.44546 382.099 6.1268 381.654 5.89832C381.221 5.65782 380.716 5.53756 380.138 5.53756C379.237 5.53756 378.527 5.85623 378.01 6.49357C377.505 7.11887 377.252 8.02076 377.252 9.19923C377.252 10.3777 377.505 11.2856 378.01 11.9229C378.527 12.5482 379.237 12.8609 380.138 12.8609Z" fill="#ADB2B1"/>
<path d="M369.751 13.8891V4.50951H371.122L371.14 6.47563H371.176C371.452 6.03069 371.807 5.6519 372.24 5.33925C372.673 5.01457 373.166 4.76805 373.719 4.5997C374.272 4.41932 374.855 4.32913 375.469 4.32913V5.59178C374.675 5.59178 373.953 5.75412 373.304 6.07879C372.655 6.40347 372.138 6.83638 371.753 7.37751C371.38 7.91865 371.194 8.52592 371.194 9.19933V13.8891H369.751Z" fill="#ADB2B1"/>
<path d="M362.087 14.0695C361.137 14.0695 360.385 13.817 359.832 13.3119C359.279 12.7949 359.002 12.1034 359.002 11.2376C359.002 10.1553 359.441 9.32559 360.319 8.74838C361.197 8.15915 362.453 7.86453 364.089 7.86453H365.586C365.586 7.26328 365.514 6.79429 365.369 6.45759C365.225 6.12088 364.985 5.88639 364.648 5.75411C364.311 5.60981 363.842 5.53766 363.241 5.53766C362.64 5.53766 362.026 5.59779 361.401 5.71804C360.788 5.83829 360.199 6.01867 359.633 6.25917L359.381 5.10476C359.982 4.85223 360.625 4.65982 361.311 4.52755C362.008 4.39527 362.712 4.32913 363.421 4.32913C364.323 4.32913 365.033 4.44337 365.55 4.67185C366.067 4.90033 366.44 5.28513 366.668 5.82627C366.897 6.3674 367.011 7.08891 367.011 7.9908V13.8891H365.64L365.622 12.6085H365.586C365.273 13.0414 364.786 13.3961 364.125 13.6727C363.475 13.9372 362.796 14.0695 362.087 14.0695ZM362.537 12.8971C363.103 12.8971 363.614 12.7888 364.071 12.5724C364.54 12.3559 364.906 12.0673 365.171 11.7066C365.448 11.3338 365.586 10.9249 365.586 10.48V8.96484H364.269C362.994 8.96484 362.032 9.15123 361.383 9.52401C360.734 9.88476 360.409 10.4139 360.409 11.1113C360.409 11.6645 360.595 12.1034 360.968 12.4281C361.341 12.7407 361.864 12.8971 362.537 12.8971Z" fill="#ADB2B1"/>
<path d="M347.664 13.8891L345.012 4.50944H346.564L348.548 12.5002H348.584L350.55 4.50944H352.48L354.446 12.5002H354.482L356.466 4.50944H358L355.366 13.8891H353.49L351.524 6.02461H351.488L349.522 13.8891H347.664Z" fill="#ADB2B1"/>
<path d="M340.22 14.0695C338.656 14.0695 337.448 13.6486 336.594 12.8069C335.752 11.9651 335.331 10.7626 335.331 9.19933C335.331 7.68416 335.722 6.49366 336.504 5.62785C337.298 4.76204 338.392 4.32913 339.787 4.32913C341.122 4.32913 342.144 4.73799 342.853 5.5557C343.563 6.36139 343.917 7.52182 343.917 9.03699C343.917 9.15724 343.917 9.2835 343.917 9.41578C343.917 9.54806 343.911 9.6623 343.899 9.7585H336.107V8.60408H342.853L342.583 8.98288C342.583 7.81643 342.348 6.94461 341.879 6.3674C341.41 5.79019 340.713 5.50159 339.787 5.50159C338.801 5.50159 338.043 5.81424 337.514 6.43955C336.985 7.05283 336.72 7.93067 336.72 9.07306V9.43382C336.72 10.5762 337.009 11.436 337.586 12.0132C338.175 12.5784 339.035 12.861 340.166 12.861C340.683 12.861 341.218 12.8069 341.771 12.6987C342.336 12.5904 342.841 12.4461 343.286 12.2657L343.503 13.4202C343.046 13.6246 342.529 13.7809 341.951 13.8891C341.374 14.0094 340.797 14.0695 340.22 14.0695Z" fill="#ADB2B1"/>
<path d="M329.219 13.8891V4.50951H330.589L330.607 6.47563H330.644C330.92 6.03069 331.275 5.6519 331.708 5.33925C332.141 5.01457 332.634 4.76805 333.187 4.5997C333.74 4.41932 334.323 4.32913 334.936 4.32913V5.59178C334.143 5.59178 333.421 5.75412 332.772 6.07879C332.123 6.40347 331.606 6.83638 331.221 7.37751C330.848 7.91865 330.662 8.52592 330.662 9.19933V13.8891H329.219Z" fill="#ADB2B1"/>
<path d="M316.33 14.0694C315.067 14.0694 314.081 13.6425 313.372 12.7887C312.674 11.9229 312.326 10.7264 312.326 9.19923C312.326 7.67203 312.674 6.48154 313.372 5.62775C314.081 4.76194 315.067 4.32903 316.33 4.32903C317.004 4.32903 317.629 4.4553 318.206 4.70783C318.783 4.96036 319.228 5.3151 319.541 5.77205H319.577V0.721481H320.984V13.889H319.649L319.631 12.6264H319.595C319.27 13.0713 318.813 13.4261 318.224 13.6906C317.635 13.9432 317.004 14.0694 316.33 14.0694ZM316.619 12.8609C317.196 12.8609 317.701 12.7467 318.134 12.5182C318.579 12.2777 318.928 11.953 319.18 11.5441C319.445 11.1353 319.577 10.6663 319.577 10.1372V8.26127C319.577 7.73216 319.445 7.26318 319.18 6.85432C318.928 6.44546 318.579 6.1268 318.134 5.89832C317.701 5.65782 317.196 5.53756 316.619 5.53756C315.717 5.53756 315.007 5.85623 314.49 6.49357C313.985 7.11887 313.733 8.02076 313.733 9.19923C313.733 10.3777 313.985 11.2856 314.49 11.9229C315.007 12.5482 315.717 12.8609 316.619 12.8609Z" fill="#ADB2B1"/>
<path d="M302.232 13.8891V4.50951H303.621V5.77215H303.657C304.018 5.30317 304.487 4.94843 305.064 4.70793C305.641 4.4554 306.297 4.32913 307.03 4.32913C308.161 4.32913 308.997 4.63577 309.538 5.24906C310.079 5.86234 310.349 6.81834 310.349 8.11706V13.8891H308.942V8.36959C308.942 7.39555 308.756 6.68005 308.383 6.2231C308.022 5.76614 307.451 5.53766 306.67 5.53766C306.08 5.53766 305.557 5.65791 305.1 5.89842C304.655 6.1269 304.301 6.44556 304.036 6.85442C303.784 7.25125 303.657 7.71422 303.657 8.24333V13.8891H302.232Z" fill="#ADB2B1"/>
<path d="M294.568 14.0695C293.618 14.0695 292.867 13.817 292.314 13.3119C291.76 12.7949 291.484 12.1034 291.484 11.2376C291.484 10.1553 291.923 9.32559 292.801 8.74838C293.678 8.15915 294.935 7.86453 296.57 7.86453H298.068C298.068 7.26328 297.995 6.79429 297.851 6.45759C297.707 6.12088 297.466 5.88639 297.13 5.75411C296.793 5.60981 296.324 5.53766 295.723 5.53766C295.121 5.53766 294.508 5.59779 293.883 5.71804C293.27 5.83829 292.68 6.01867 292.115 6.25917L291.863 5.10476C292.464 4.85223 293.107 4.65982 293.793 4.52755C294.49 4.39527 295.194 4.32913 295.903 4.32913C296.805 4.32913 297.514 4.44337 298.031 4.67185C298.549 4.90033 298.921 5.28513 299.15 5.82627C299.378 6.3674 299.493 7.08891 299.493 7.9908V13.8891H298.122L298.104 12.6085H298.068C297.755 13.0414 297.268 13.3961 296.606 13.6727C295.957 13.9372 295.278 14.0695 294.568 14.0695ZM295.019 12.8971C295.584 12.8971 296.095 12.7888 296.552 12.5724C297.021 12.3559 297.388 12.0673 297.653 11.7066C297.929 11.3338 298.068 10.9249 298.068 10.48V8.96484H296.751C295.476 8.96484 294.514 9.15123 293.865 9.52401C293.215 9.88476 292.891 10.4139 292.891 11.1113C292.891 11.6645 293.077 12.1034 293.45 12.4281C293.823 12.7407 294.346 12.8971 295.019 12.8971Z" fill="#ADB2B1"/>
<path d="M281.262 14.0695C279.699 14.0695 278.49 13.6486 277.637 12.8069C276.795 11.9651 276.374 10.7626 276.374 9.19933C276.374 7.68416 276.765 6.49366 277.546 5.62785C278.34 4.76204 279.434 4.32913 280.829 4.32913C282.164 4.32913 283.186 4.73799 283.896 5.5557C284.605 6.36139 284.96 7.52182 284.96 9.03699C284.96 9.15724 284.96 9.2835 284.96 9.41578C284.96 9.54806 284.954 9.6623 284.942 9.7585H277.15V8.60408H283.896L283.625 8.98288C283.625 7.81643 283.391 6.94461 282.922 6.3674C282.453 5.79019 281.755 5.50159 280.829 5.50159C279.843 5.50159 279.086 5.81424 278.557 6.43955C278.027 7.05283 277.763 7.93067 277.763 9.07306V9.43382C277.763 10.5762 278.052 11.436 278.629 12.0132C279.218 12.5784 280.078 12.861 281.208 12.861C281.725 12.861 282.26 12.8069 282.814 12.6987C283.379 12.5904 283.884 12.4461 284.329 12.2657L284.545 13.4202C284.088 13.6246 283.571 13.7809 282.994 13.8891C282.417 14.0094 281.839 14.0695 281.262 14.0695Z" fill="#ADB2B1"/>
<path d="M270.261 13.8891V4.50951H271.632L271.65 6.47563H271.686C271.963 6.03069 272.317 5.6519 272.75 5.33925C273.183 5.01457 273.676 4.76805 274.229 4.5997C274.783 4.41932 275.366 4.32913 275.979 4.32913V5.59178C275.185 5.59178 274.464 5.75412 273.815 6.07879C273.165 6.40347 272.648 6.83638 272.263 7.37751C271.891 7.91865 271.704 8.52592 271.704 9.19933V13.8891H270.261Z" fill="#ADB2B1"/>
<path d="M262.545 14.0695C261.427 14.0695 260.603 13.7628 260.074 13.1495C259.557 12.5242 259.298 11.5682 259.298 10.2815V4.50944H260.723V10.029C260.723 11.003 260.898 11.7185 261.246 12.1755C261.595 12.6324 262.142 12.8609 262.888 12.8609C263.465 12.8609 263.97 12.7467 264.403 12.5182C264.848 12.2777 265.191 11.959 265.431 11.5622C265.684 11.1533 265.81 10.6844 265.81 10.1553V4.50944H267.235V13.8891H265.864L265.846 12.6264H265.81C265.461 13.0954 265.01 13.4562 264.457 13.7087C263.904 13.9492 263.267 14.0695 262.545 14.0695Z" fill="#ADB2B1"/>
<path d="M254.065 14.0695C253.043 14.0695 252.165 13.8771 251.432 13.4923C250.698 13.0955 250.133 12.5363 249.736 11.8148C249.351 11.0813 249.159 10.2094 249.159 9.19933C249.159 8.18921 249.351 7.3234 249.736 6.60189C250.133 5.86835 250.698 5.30918 251.432 4.92438C252.165 4.52755 253.043 4.32913 254.065 4.32913C254.57 4.32913 255.051 4.38325 255.508 4.49147C255.965 4.58767 256.41 4.75001 256.843 4.97849L256.572 6.13291C256.163 5.92848 255.761 5.77817 255.364 5.68196C254.967 5.58576 254.564 5.53766 254.155 5.53766C253.037 5.53766 252.165 5.86234 251.54 6.5117C250.914 7.14904 250.602 8.04491 250.602 9.19933C250.602 10.3417 250.914 11.2376 251.54 11.887C252.165 12.5363 253.037 12.861 254.155 12.861C254.564 12.861 254.967 12.8129 255.364 12.7167C255.761 12.6205 256.163 12.4702 256.572 12.2657L256.843 13.4202C256.41 13.6366 255.965 13.799 255.508 13.9072C255.051 14.0154 254.57 14.0695 254.065 14.0695Z" fill="#ADB2B1"/>
<path d="M243.866 14.0695C242.302 14.0695 241.094 13.6486 240.24 12.8069C239.398 11.9651 238.977 10.7626 238.977 9.19933C238.977 7.68416 239.368 6.49366 240.15 5.62785C240.943 4.76204 242.038 4.32913 243.433 4.32913C244.767 4.32913 245.79 4.73799 246.499 5.5557C247.209 6.36139 247.563 7.52182 247.563 9.03699C247.563 9.15724 247.563 9.2835 247.563 9.41578C247.563 9.54806 247.557 9.6623 247.545 9.7585H239.753V8.60408H246.499L246.229 8.98288C246.229 7.81643 245.994 6.94461 245.525 6.3674C245.056 5.79019 244.359 5.50159 243.433 5.50159C242.447 5.50159 241.689 5.81424 241.16 6.43955C240.631 7.05283 240.366 7.93067 240.366 9.07306V9.43382C240.366 10.5762 240.655 11.436 241.232 12.0132C241.821 12.5784 242.681 12.861 243.811 12.861C244.329 12.861 244.864 12.8069 245.417 12.6987C245.982 12.5904 246.487 12.4461 246.932 12.2657L247.148 13.4202C246.691 13.6246 246.174 13.7809 245.597 13.8891C245.02 14.0094 244.443 14.0695 243.866 14.0695Z" fill="#ADB2B1"/>
<path d="M233.741 14.0695C233.332 14.0695 232.912 14.0395 232.479 13.9793C232.046 13.9312 231.631 13.8591 231.234 13.7629C230.849 13.6547 230.507 13.5344 230.206 13.4021L230.44 12.2477C230.921 12.4281 231.432 12.5784 231.974 12.6987C232.527 12.8069 233.068 12.861 233.597 12.861C234.391 12.861 234.992 12.7347 235.401 12.4822C235.81 12.2297 236.014 11.8509 236.014 11.3458C236.014 11.0211 235.924 10.7626 235.744 10.5702C235.563 10.3658 235.293 10.1974 234.932 10.0651C234.583 9.92084 234.138 9.78856 233.597 9.66831C232.948 9.49996 232.358 9.30755 231.829 9.0911C231.312 8.87465 230.903 8.59206 230.603 8.24333C230.314 7.88257 230.17 7.4196 230.17 6.85442C230.17 6.03671 230.483 5.4114 231.108 4.97849C231.745 4.54559 232.659 4.32913 233.85 4.32913C234.415 4.32913 234.986 4.37723 235.563 4.47343C236.152 4.56964 236.675 4.70793 237.132 4.8883L236.88 6.06076C236.459 5.88038 236.002 5.7481 235.509 5.66393C235.016 5.57975 234.517 5.53766 234.012 5.53766C233.206 5.53766 232.599 5.6519 232.19 5.88038C231.793 6.10886 231.595 6.44556 231.595 6.89049C231.595 7.19112 231.679 7.43163 231.847 7.61201C232.016 7.79238 232.268 7.94871 232.605 8.08099C232.942 8.21326 233.369 8.33953 233.886 8.45978C234.379 8.56801 234.836 8.70028 235.257 8.85661C235.689 9.01294 236.068 9.19933 236.393 9.41578C236.718 9.63223 236.97 9.9028 237.15 10.2275C237.343 10.5522 237.439 10.937 237.439 11.3819C237.439 11.9471 237.289 12.4281 236.988 12.8249C236.7 13.2217 236.279 13.5284 235.725 13.7448C235.172 13.9613 234.511 14.0695 233.741 14.0695Z" fill="#ADB2B1"/>
<path d="M218.156 13.8891V4.50951H219.527L219.545 6.47563H219.581C219.858 6.03069 220.212 5.6519 220.645 5.33925C221.078 5.01457 221.571 4.76805 222.124 4.5997C222.677 4.41932 223.261 4.32913 223.874 4.32913V5.59178C223.08 5.59178 222.359 5.75412 221.709 6.07879C221.06 6.40347 220.543 6.83638 220.158 7.37751C219.785 7.91865 219.599 8.52592 219.599 9.19933V13.8891H218.156Z" fill="#ADB2B1"/>
<path d="M210.44 14.0695C209.322 14.0695 208.498 13.7628 207.969 13.1495C207.452 12.5242 207.193 11.5682 207.193 10.2815V4.50944H208.618V10.029C208.618 11.003 208.792 11.7185 209.141 12.1755C209.49 12.6324 210.037 12.8609 210.783 12.8609C211.36 12.8609 211.865 12.7467 212.298 12.5182C212.743 12.2777 213.085 11.959 213.326 11.5622C213.578 11.1533 213.705 10.6844 213.705 10.1553V4.50944H215.13V13.8891H213.759L213.741 12.6264H213.705C213.356 13.0954 212.905 13.4562 212.352 13.7087C211.799 13.9492 211.161 14.0695 210.44 14.0695Z" fill="#ADB2B1"/>
<path d="M200.719 14.0695C199.276 14.0695 198.151 13.6426 197.346 12.7888C196.552 11.9351 196.155 10.7386 196.155 9.19933C196.155 7.66011 196.552 6.4636 197.346 5.60981C198.151 4.75603 199.276 4.32913 200.719 4.32913C202.162 4.32913 203.28 4.75603 204.074 5.60981C204.88 6.4636 205.282 7.66011 205.282 9.19933C205.282 10.7386 204.88 11.9351 204.074 12.7888C203.28 13.6426 202.162 14.0695 200.719 14.0695ZM200.719 12.861C201.729 12.861 202.505 12.5483 203.046 11.923C203.599 11.2857 203.875 10.3778 203.875 9.19933C203.875 8.02086 203.599 7.11897 203.046 6.49366C202.505 5.85633 201.729 5.53766 200.719 5.53766C199.721 5.53766 198.945 5.85633 198.392 6.49366C197.839 7.11897 197.562 8.02086 197.562 9.19933C197.562 10.3778 197.839 11.2857 198.392 11.923C198.945 12.5483 199.721 12.861 200.719 12.861Z" fill="#ADB2B1"/>
<path d="M184.989 13.8891V6.07873H182.338V4.8702H184.989V3.12053C184.989 2.07434 185.242 1.29271 185.747 0.775623C186.252 0.258541 187.016 0 188.038 0C188.338 0 188.633 0.0240503 188.922 0.0721511C189.21 0.120252 189.481 0.18639 189.733 0.270566L189.535 1.46106C189.102 1.31676 188.669 1.24461 188.236 1.24461C187.587 1.24461 187.118 1.39492 186.829 1.69555C186.553 1.99618 186.414 2.50725 186.414 3.22876V4.8702H189.697V6.07873H186.414V13.8891H184.989Z" fill="#ADB2B1"/>
<path d="M177.027 14.0695C175.584 14.0695 174.459 13.6426 173.654 12.7888C172.86 11.9351 172.463 10.7386 172.463 9.19933C172.463 7.66011 172.86 6.4636 173.654 5.60981C174.459 4.75603 175.584 4.32913 177.027 4.32913C178.47 4.32913 179.588 4.75603 180.382 5.60981C181.187 6.4636 181.59 7.66011 181.59 9.19933C181.59 10.7386 181.187 11.9351 180.382 12.7888C179.588 13.6426 178.47 14.0695 177.027 14.0695ZM177.027 12.861C178.037 12.861 178.812 12.5483 179.354 11.923C179.907 11.2857 180.183 10.3778 180.183 9.19933C180.183 8.02086 179.907 7.11897 179.354 6.49366C178.812 5.85633 178.037 5.53766 177.027 5.53766C176.029 5.53766 175.253 5.85633 174.7 6.49366C174.147 7.11897 173.87 8.02086 173.87 9.19933C173.87 10.3778 174.147 11.2857 174.7 11.923C175.253 12.5483 176.029 12.861 177.027 12.861Z" fill="#ADB2B1"/>
<path d="M160.449 13.8891V4.50951H161.82L161.838 6.47563H161.874C162.151 6.03069 162.505 5.6519 162.938 5.33925C163.371 5.01457 163.864 4.76805 164.417 4.5997C164.971 4.41932 165.554 4.32913 166.167 4.32913V5.59178C165.374 5.59178 164.652 5.75412 164.003 6.07879C163.353 6.40347 162.836 6.83638 162.451 7.37751C162.079 7.91865 161.892 8.52592 161.892 9.19933V13.8891H160.449Z" fill="#ADB2B1"/>
<path d="M154.505 14.0695C152.941 14.0695 151.733 13.6486 150.879 12.8069C150.037 11.9651 149.616 10.7626 149.616 9.19933C149.616 7.68416 150.007 6.49366 150.789 5.62785C151.583 4.76204 152.677 4.32913 154.072 4.32913C155.407 4.32913 156.429 4.73799 157.138 5.5557C157.848 6.36139 158.202 7.52182 158.202 9.03699C158.202 9.15724 158.202 9.2835 158.202 9.41578C158.202 9.54806 158.196 9.6623 158.184 9.7585H150.392V8.60408H157.138L156.868 8.98288C156.868 7.81643 156.633 6.94461 156.164 6.3674C155.695 5.79019 154.998 5.50159 154.072 5.50159C153.086 5.50159 152.328 5.81424 151.799 6.43955C151.27 7.05283 151.005 7.93067 151.005 9.07306V9.43382C151.005 10.5762 151.294 11.436 151.871 12.0132C152.46 12.5784 153.32 12.861 154.451 12.861C154.968 12.861 155.503 12.8069 156.056 12.6987C156.621 12.5904 157.126 12.4461 157.571 12.2657L157.788 13.4202C157.331 13.6246 156.814 13.7809 156.236 13.8891C155.659 14.0094 155.082 14.0695 154.505 14.0695Z" fill="#ADB2B1"/>
<path d="M138.116 13.8891L135.464 4.50944H137.016L139 12.5002H139.036L141.002 4.50944H142.932L144.898 12.5002H144.934L146.918 4.50944H148.451L145.818 13.8891H143.942L141.976 6.02461H141.94L139.974 13.8891H138.116Z" fill="#ADB2B1"/>
<path d="M129.766 14.0695C128.323 14.0695 127.198 13.6426 126.393 12.7888C125.599 11.9351 125.202 10.7386 125.202 9.19933C125.202 7.66011 125.599 6.4636 126.393 5.60981C127.198 4.75603 128.323 4.32913 129.766 4.32913C131.209 4.32913 132.327 4.75603 133.121 5.60981C133.926 6.4636 134.329 7.66011 134.329 9.19933C134.329 10.7386 133.926 11.9351 133.121 12.7888C132.327 13.6426 131.209 14.0695 129.766 14.0695ZM129.766 12.861C130.776 12.861 131.551 12.5483 132.092 11.923C132.646 11.2857 132.922 10.3778 132.922 9.19933C132.922 8.02086 132.646 7.11897 132.092 6.49366C131.551 5.85633 130.776 5.53766 129.766 5.53766C128.768 5.53766 127.992 5.85633 127.439 6.49366C126.886 7.11897 126.609 8.02086 126.609 9.19933C126.609 10.3778 126.886 11.2857 127.439 11.923C127.992 12.5483 128.768 12.861 129.766 12.861Z" fill="#ADB2B1"/>
<path d="M119.587 4.32913C120.837 4.32913 121.811 4.76204 122.509 5.62785C123.206 6.48164 123.555 7.67213 123.555 9.19933C123.555 10.7265 123.206 11.923 122.509 12.7888C121.811 13.6426 120.837 14.0695 119.587 14.0695C118.901 14.0695 118.27 13.9433 117.693 13.6907C117.127 13.4262 116.683 13.0714 116.358 12.6265H116.322V17.6771H114.897V4.50951H116.268V5.77215H116.304C116.64 5.3152 117.097 4.96045 117.675 4.70793C118.264 4.4554 118.901 4.32913 119.587 4.32913ZM119.28 5.53766C118.715 5.53766 118.21 5.65791 117.765 5.89842C117.32 6.1269 116.965 6.44556 116.701 6.85442C116.448 7.25125 116.322 7.72023 116.322 8.26136V10.1373C116.322 10.6664 116.448 11.1354 116.701 11.5442C116.965 11.9531 117.32 12.2778 117.765 12.5183C118.21 12.7468 118.715 12.861 119.28 12.861C120.206 12.861 120.915 12.5483 121.408 11.923C121.913 11.2857 122.166 10.3778 122.166 9.19933C122.166 8.02086 121.913 7.11897 121.408 6.49366C120.915 5.85633 120.206 5.53766 119.28 5.53766Z" fill="#ADB2B1"/>
<path d="M103.773 14.0695C102.21 14.0695 101.002 13.6486 100.148 12.8069C99.3061 11.9651 98.8852 10.7626 98.8852 9.19933C98.8852 7.68416 99.2761 6.49366 100.058 5.62785C100.851 4.76204 101.946 4.32913 103.341 4.32913C104.675 4.32913 105.697 4.73799 106.407 5.5557C107.116 6.36139 107.471 7.52182 107.471 9.03699C107.471 9.15724 107.471 9.2835 107.471 9.41578C107.471 9.54806 107.465 9.6623 107.453 9.7585H99.6609V8.60408H106.407L106.136 8.98288C106.136 7.81643 105.902 6.94461 105.433 6.3674C104.964 5.79019 104.267 5.50159 103.341 5.50159C102.355 5.50159 101.597 5.81424 101.068 6.43955C100.539 7.05283 100.274 7.93067 100.274 9.07306V9.43382C100.274 10.5762 100.563 11.436 101.14 12.0132C101.729 12.5784 102.589 12.861 103.719 12.861C104.236 12.861 104.772 12.8069 105.325 12.6987C105.89 12.5904 106.395 12.4461 106.84 12.2657L107.056 13.4202C106.599 13.6246 106.082 13.7809 105.505 13.8891C104.928 14.0094 104.351 14.0695 103.773 14.0695Z" fill="#ADB2B1"/>
<path d="M88.7737 13.889V0.721481H90.1987V5.77205H90.2348C90.5956 5.30307 91.0585 4.94833 91.6237 4.70783C92.1889 4.4553 92.8383 4.32903 93.5718 4.32903C94.7262 4.32903 95.568 4.63568 96.0971 5.24896C96.6382 5.86224 96.9028 6.81824 96.8907 8.11696V13.889H95.4838V8.36949C95.4958 7.39545 95.3154 6.67995 94.9427 6.223C94.5699 5.76604 93.9927 5.53756 93.211 5.53756C92.6218 5.53756 92.0987 5.65782 91.6417 5.89832C91.1968 6.1268 90.8481 6.44546 90.5956 6.85432C90.343 7.25115 90.2107 7.72013 90.1987 8.26127V13.889H88.7737Z" fill="#ADB2B1"/>
<path d="M84.3436 14.0694C83.3214 14.0694 82.5819 13.8529 82.1249 13.42C81.68 12.9751 81.4575 12.2476 81.4575 11.2375V5.71791H79.1667V4.50938H81.4575V1.44296H82.8825V4.50938H86.3638V5.71791H82.8825V10.8767C82.8825 11.5982 83.0088 12.1033 83.2613 12.3919C83.5138 12.6685 83.9648 12.8068 84.6141 12.8068C84.9027 12.8068 85.1793 12.7827 85.4439 12.7346C85.7204 12.6865 85.979 12.6204 86.2195 12.5362L86.3818 13.7628C86.0211 13.871 85.6723 13.9491 85.3356 13.9972C85.0109 14.0453 84.6803 14.0694 84.3436 14.0694Z" fill="#ADB2B1"/>
<path d="M67.4596 13.8891V4.50951H68.8305L68.8485 6.47563H68.8846C69.1611 6.03069 69.5159 5.6519 69.9488 5.33925C70.3817 5.01457 70.8747 4.76805 71.4279 4.5997C71.9811 4.41932 72.5643 4.32913 73.1776 4.32913V5.59178C72.3839 5.59178 71.6624 5.75412 71.013 6.07879C70.3637 6.40347 69.8466 6.83638 69.4618 7.37751C69.089 7.91865 68.9026 8.52592 68.9026 9.19933V13.8891H67.4596Z" fill="#ADB2B1"/>
<path d="M61.5151 14.0695C59.9518 14.0695 58.7433 13.6486 57.8895 12.8069C57.0477 11.9651 56.6269 10.7626 56.6269 9.19933C56.6269 7.68416 57.0177 6.49366 57.7993 5.62785C58.593 4.76204 59.6873 4.32913 61.0822 4.32913C62.417 4.32913 63.4391 4.73799 64.1486 5.5557C64.8581 6.36139 65.2128 7.52182 65.2128 9.03699C65.2128 9.15724 65.2128 9.2835 65.2128 9.41578C65.2128 9.54806 65.2068 9.6623 65.1948 9.7585H57.4025V8.60408H64.1486L63.878 8.98288C63.878 7.81643 63.6435 6.94461 63.1746 6.3674C62.7056 5.79019 62.0081 5.50159 61.0822 5.50159C60.0961 5.50159 59.3385 5.81424 58.8094 6.43955C58.2803 7.05283 58.0158 7.93067 58.0158 9.07306V9.43382C58.0158 10.5762 58.3044 11.436 58.8816 12.0132C59.4708 12.5784 60.3306 12.861 61.461 12.861C61.9781 12.861 62.5132 12.8069 63.0663 12.6987C63.6315 12.5904 64.1366 12.4461 64.5815 12.2657L64.798 13.4202C64.341 13.6246 63.8239 13.7809 63.2467 13.8891C62.6695 14.0094 62.0923 14.0695 61.5151 14.0695Z" fill="#ADB2B1"/>
<path d="M50.1785 13.8891L46.6431 4.50944H48.1943L51.1705 12.8429H51.2066L54.1828 4.50944H55.7341L52.1987 13.8891H50.1785Z" fill="#ADB2B1"/>
<path d="M41.1974 14.0695C39.7544 14.0695 38.63 13.6426 37.8243 12.7888C37.0307 11.9351 36.6338 10.7386 36.6338 9.19933C36.6338 7.66011 37.0307 6.4636 37.8243 5.60981C38.63 4.75603 39.7544 4.32913 41.1974 4.32913C42.6404 4.32913 43.7587 4.75603 44.5524 5.60981C45.3581 6.4636 45.7609 7.66011 45.7609 9.19933C45.7609 10.7386 45.3581 11.9351 44.5524 12.7888C43.7587 13.6426 42.6404 14.0695 41.1974 14.0695ZM41.1974 12.861C42.2075 12.861 42.9831 12.5483 43.5243 11.923C44.0774 11.2857 44.354 10.3778 44.354 9.19933C44.354 8.02086 44.0774 7.11897 43.5243 6.49366C42.9831 5.85633 42.2075 5.53766 41.1974 5.53766C40.1993 5.53766 39.4237 5.85633 38.8705 6.49366C38.3173 7.11897 38.0408 8.02086 38.0408 9.19933C38.0408 10.3778 38.3173 11.2857 38.8705 11.923C39.4237 12.5483 40.1993 12.861 41.1974 12.861Z" fill="#ADB2B1"/>
<path d="M32.028 14.0695C31.0059 14.0695 30.128 13.8771 29.3945 13.4923C28.6609 13.0955 28.0958 12.5363 27.6989 11.8148C27.3141 11.0813 27.1217 10.2094 27.1217 9.19933C27.1217 8.18921 27.3141 7.3234 27.6989 6.60189C28.0958 5.86835 28.6609 5.30918 29.3945 4.92438C30.128 4.52755 31.0059 4.32913 32.028 4.32913C32.5331 4.32913 33.0141 4.38325 33.471 4.49147C33.928 4.58767 34.3729 4.75001 34.8058 4.97849L34.5352 6.13291C34.1264 5.92848 33.7235 5.77817 33.3267 5.68196C32.9299 5.58576 32.527 5.53766 32.1182 5.53766C30.9998 5.53766 30.128 5.86234 29.5027 6.5117C28.8774 7.14904 28.5647 8.04491 28.5647 9.19933C28.5647 10.3417 28.8774 11.2376 29.5027 11.887C30.128 12.5363 30.9998 12.861 32.1182 12.861C32.527 12.861 32.9299 12.8129 33.3267 12.7167C33.7235 12.6205 34.1264 12.4702 34.5352 12.2657L34.8058 13.4202C34.3729 13.6366 33.928 13.799 33.471 13.9072C33.0141 14.0154 32.5331 14.0695 32.028 14.0695Z" fill="#ADB2B1"/>
<path d="M21.8857 14.0695C21.4768 14.0695 21.056 14.0395 20.6231 13.9793C20.1901 13.9312 19.7753 13.8591 19.3784 13.7629C18.9936 13.6547 18.6509 13.5344 18.3503 13.4021L18.5848 12.2477C19.0658 12.4281 19.5769 12.5784 20.118 12.6987C20.6712 12.8069 21.2123 12.861 21.7414 12.861C22.5351 12.861 23.1363 12.7347 23.5452 12.4822C23.954 12.2297 24.1585 11.8509 24.1585 11.3458C24.1585 11.0211 24.0683 10.7626 23.8879 10.5702C23.7075 10.3658 23.4369 10.1974 23.0762 10.0651C22.7275 9.92084 22.2825 9.78856 21.7414 9.66831C21.092 9.49996 20.5028 9.30755 19.9737 9.0911C19.4566 8.87465 19.0478 8.59206 18.7471 8.24333C18.4585 7.88257 18.3142 7.4196 18.3142 6.85442C18.3142 6.03671 18.6269 5.4114 19.2522 4.97849C19.8895 4.54559 20.8034 4.32913 21.9939 4.32913C22.5591 4.32913 23.1303 4.37723 23.7075 4.47343C24.2967 4.56964 24.8198 4.70793 25.2768 4.8883L25.0243 6.06076C24.6034 5.88038 24.1464 5.7481 23.6534 5.66393C23.1604 5.57975 22.6613 5.53766 22.1563 5.53766C21.3506 5.53766 20.7433 5.6519 20.3345 5.88038C19.9376 6.10886 19.7392 6.44556 19.7392 6.89049C19.7392 7.19112 19.8234 7.43163 19.9917 7.61201C20.1601 7.79238 20.4126 7.94871 20.7493 8.08099C21.086 8.21326 21.5129 8.33953 22.03 8.45978C22.523 8.56801 22.98 8.70028 23.4009 8.85661C23.8338 9.01294 24.2126 9.19933 24.5372 9.41578C24.8619 9.63223 25.1145 9.9028 25.2948 10.2275C25.4872 10.5522 25.5834 10.937 25.5834 11.3819C25.5834 11.9471 25.4331 12.4281 25.1325 12.8249C24.8439 13.2217 24.423 13.5284 23.8699 13.7448C23.3167 13.9613 22.6553 14.0695 21.8857 14.0695Z" fill="#ADB2B1"/>
<path d="M14.1781 2.39899V0.721481H15.8556V2.39899H14.1781ZM14.3044 13.889V4.50941H15.7474V13.889H14.3044Z" fill="#ADB2B1"/>
<path d="M1.42486 13.889V0.721481H4.74381C7.05264 0.721481 8.77825 1.26863 9.92064 2.36292C11.0751 3.45721 11.6523 5.10466 11.6523 7.30527C11.6523 9.50587 11.0751 11.1533 9.92064 12.2476C8.77825 13.3419 7.05264 13.889 4.74381 13.889H1.42486ZM4.81596 12.5723C6.04253 12.5723 7.04663 12.3859 7.82826 12.0131C8.62193 11.6283 9.21116 11.0451 9.59596 10.2635C9.9928 9.48182 10.1912 8.49576 10.1912 7.30527C10.1912 6.10275 9.9928 5.11668 9.59596 4.34707C9.21116 3.56543 8.62193 2.98823 7.82826 2.61545C7.04663 2.23064 6.04253 2.03824 4.81596 2.03824H2.86788V12.5723H4.81596Z" fill="#ADB2B1"/>
</svg>
