<svg width="139" height="32" viewBox="0 0 139 32" fill="none" xmlns="http://www.w3.org/2000/svg">
<path d="M0.549375 1.3471C0.201388 1.70227 0 2.25524 0 2.97135V28.5147C0 29.2308 0.201388 29.7838 0.549375 30.1389L0.635262 30.2169L15.3159 15.9091V15.5712L0.635262 1.26336L0.549375 1.3471Z" fill="white"/>
<path d="M21.9809 20.6807L17.0928 15.909V15.5712L21.9869 10.7995L22.0964 10.8616L27.8923 14.0769C29.5463 14.9894 29.5463 16.4909 27.8923 17.4091L22.0964 20.6187L21.9809 20.6807Z" fill="white"/>
<path d="M21.208 21.5072L16.2044 16.6286L1.43784 31.0274C1.98722 31.5905 2.8831 31.6584 3.90189 31.0953L21.208 21.5072Z" fill="white"/>
<path d="M21.208 9.97313L3.90189 0.384995C2.8831 -0.172304 1.98722 -0.104448 1.43784 0.458626L16.2044 14.8517L21.208 9.97313Z" fill="white"/>
<path d="M45.2488 4.47144C45.2488 5.43589 44.9526 6.20831 44.3692 6.78438C43.6984 7.46729 42.8247 7.8109 41.7541 7.8109C40.7309 7.8109 39.8572 7.46151 39.1405 6.77283C38.4223 6.07404 38.0639 5.21643 38.0639 4.18991C38.0639 3.16338 38.4223 2.30578 39.1405 1.61276C39.8572 0.918304 40.7309 0.568909 41.7541 0.568909C42.2635 0.568909 42.7492 0.671417 43.2127 0.861996C43.6747 1.05402 44.0508 1.3139 44.3233 1.63442L43.7043 2.24369C43.229 1.6965 42.5819 1.42651 41.7541 1.42651C41.0078 1.42651 40.3607 1.68062 39.8113 2.19316C39.2678 2.70715 38.9953 3.37273 38.9953 4.18991C38.9953 5.00709 39.2678 5.67844 39.8113 6.19243C40.3607 6.69919 41.0078 6.95907 41.7541 6.95907C42.5463 6.95907 43.2127 6.69919 43.7384 6.18665C44.0849 5.84737 44.2818 5.37958 44.3336 4.78186H41.7541V3.94735H45.1955C45.2369 4.12782 45.2488 4.30252 45.2488 4.47144Z" fill="white"/>
<path d="M50.7085 1.5781H47.4759V3.77265H50.3901V4.60715H47.4759V6.8017H50.7085V7.65208H46.5608V0.727718H50.7085V1.5781Z" fill="white"/>
<path d="M54.5615 7.65208H53.6464V1.5781H51.6636V0.727718H56.5458V1.5781H54.5615V7.65208Z" fill="white"/>
<path d="M60.079 7.65208V0.727718H60.9926V7.65208H60.079Z" fill="white"/>
<path d="M65.0426 7.65208H64.1348V1.5781H62.1447V0.727718H67.0328V1.5781H65.0426V7.65208Z" fill="white"/>
<path d="M76.276 6.76128C75.5755 7.46151 74.7078 7.8109 73.6727 7.8109C72.6317 7.8109 71.764 7.46151 71.0635 6.76128C70.3646 6.06249 70.0166 5.20488 70.0166 4.18991C70.0166 3.17493 70.3646 2.31733 71.0635 1.61854C71.764 0.918304 72.6317 0.568909 73.6727 0.568909C74.7019 0.568909 75.5696 0.918303 76.27 1.62431C76.9749 2.32888 77.3229 3.18071 77.3229 4.18991C77.3229 5.20488 76.9749 6.06249 76.276 6.76128ZM71.7403 6.18088C72.2674 6.6992 72.9086 6.95907 73.6727 6.95907C74.4309 6.95907 75.078 6.6992 75.5992 6.18088C76.1249 5.66256 76.3914 4.99698 76.3914 4.18991C76.3914 3.38284 76.1249 2.71725 75.5992 2.19894C75.078 1.68062 74.4309 1.42074 73.6727 1.42074C72.9086 1.42074 72.2674 1.68062 71.7403 2.19894C71.2146 2.71725 70.948 3.38284 70.948 4.18991C70.948 4.99698 71.2146 5.66256 71.7403 6.18088Z" fill="white"/>
<path d="M78.6067 7.65208V0.727718H79.7173L83.1706 6.11301H83.2105L83.1706 4.78185V0.727718H84.0842V7.65208H83.1306L79.5145 2.00113H79.4745L79.5145 3.33807V7.65208H78.6067Z" fill="white"/>
<path d="M69.7915 17.7643C67.0091 17.7643 64.7361 19.8289 64.7361 22.6775C64.7361 25.503 67.0091 27.5893 69.7915 27.5893C72.5799 27.5893 74.8529 25.503 74.8529 22.6775C74.8529 19.8289 72.5799 17.7643 69.7915 17.7643ZM69.7915 25.6546C68.2648 25.6546 66.9514 24.4259 66.9514 22.6775C66.9514 20.906 68.2648 19.699 69.7915 19.699C71.3182 19.699 72.6376 20.906 72.6376 22.6775C72.6376 24.4259 71.3182 25.6546 69.7915 25.6546ZM58.7611 17.7643C55.9727 17.7643 53.7056 19.8289 53.7056 22.6775C53.7056 25.503 55.9727 27.5893 58.7611 27.5893C61.5479 27.5893 63.8165 25.503 63.8165 22.6775C63.8165 19.8289 61.5479 17.7643 58.7611 17.7643ZM58.7611 25.6546C57.2329 25.6546 55.915 24.4259 55.915 22.6775C55.915 20.906 57.2329 19.699 58.7611 19.699C60.2878 19.699 61.6012 20.906 61.6012 22.6775C61.6012 24.4259 60.2878 25.6546 58.7611 25.6546ZM45.6353 19.2702V21.3579H50.7485C50.5989 22.5245 50.1991 23.3821 49.586 23.9798C48.8397 24.7017 47.6773 25.503 45.6353 25.503C42.4886 25.503 40.0245 23.0269 40.0245 19.9589C40.0245 16.8909 42.4886 14.4148 45.6353 14.4148C47.3367 14.4148 48.5746 15.063 49.4883 15.9033L50.9972 14.4321C49.7193 13.2424 48.0194 12.3285 45.6353 12.3285C41.3202 12.3285 37.6937 15.7517 37.6937 19.9589C37.6937 24.1661 41.3202 27.5893 45.6353 27.5893C47.9675 27.5893 49.7193 26.8443 51.0965 25.4467C52.5077 24.0708 52.9474 22.1361 52.9474 20.5739C52.9474 20.0888 52.906 19.6427 52.8319 19.2702H45.6353ZM99.3083 20.8887C98.8922 19.79 97.6083 17.7643 94.9933 17.7643C92.4019 17.7643 90.2443 19.7553 90.2443 22.6775C90.2443 25.4294 92.3796 27.5893 95.242 27.5893C97.5565 27.5893 98.8922 26.2133 99.4416 25.412L97.7238 24.296C97.1508 25.1132 96.3704 25.6546 95.242 25.6546C94.1211 25.6546 93.317 25.1536 92.8017 24.1661L99.5408 21.4474L99.3083 20.8887ZM92.4374 22.5245C92.3796 20.6302 93.9463 19.66 95.0688 19.66C95.9484 19.66 96.6947 20.0888 96.9435 20.7024L92.4374 22.5245ZM86.9599 27.2904H89.1752V12.8526H86.9599V27.2904ZM83.332 18.8587H83.2579C82.7604 18.2841 81.8112 17.7643 80.6088 17.7643C78.0855 17.7643 75.7784 19.9242 75.7784 22.6934C75.7784 25.4467 78.0855 27.5893 80.6088 27.5893C81.8112 27.5893 82.7604 27.0652 83.2579 26.4732H83.332V27.1778C83.332 29.0561 82.3028 30.0653 80.6428 30.0653C79.2894 30.0653 78.4498 29.1124 78.1033 28.3111L76.1767 29.0951C76.732 30.3974 78.2025 32 80.6428 32C83.2402 32 85.4317 30.51 85.4317 26.8847V18.0632H83.332V18.8587ZM80.7983 25.6546C79.2716 25.6546 77.9937 24.4086 77.9937 22.6934C77.9937 20.9623 79.2716 19.699 80.7983 19.699C82.3028 19.699 83.4889 20.9623 83.4889 22.6934C83.4889 24.4086 82.3028 25.6546 80.7983 25.6546ZM109.68 12.8526H104.382V27.2904H106.591V21.8199H109.68C112.133 21.8199 114.54 20.0888 114.54 17.3355C114.54 14.5837 112.128 12.8526 109.68 12.8526ZM109.738 19.8116H106.591V14.8609H109.738C111.387 14.8609 112.329 16.1964 112.329 17.3355C112.329 18.453 111.387 19.8116 109.738 19.8116ZM123.395 17.7369C121.799 17.7369 120.139 18.4241 119.456 19.9473L121.417 20.7486C121.839 19.9473 122.615 19.6875 123.435 19.6875C124.581 19.6875 125.744 20.3588 125.761 21.5442V21.6957C125.361 21.4705 124.506 21.137 123.453 21.137C121.341 21.137 119.19 22.2704 119.19 24.3855C119.19 26.3202 120.919 27.5662 122.863 27.5662C124.35 27.5662 125.17 26.9121 125.686 26.1513H125.761V27.2673H127.895V21.729C127.895 19.1691 125.935 17.7369 123.395 17.7369ZM123.128 25.6488C122.406 25.6488 121.399 25.2994 121.399 24.4259C121.399 23.3085 122.655 22.8796 123.741 22.8796C124.714 22.8796 125.17 23.089 125.761 23.3648C125.588 24.7017 124.408 25.6488 123.128 25.6488ZM135.669 18.0531L133.13 24.3119H133.054L130.429 18.0531H128.046L131.991 26.7995L129.74 31.6665H132.049L138.127 18.0531H135.669ZM115.754 27.2904H117.969V12.8526H115.754V27.2904Z" fill="white"/>
</svg>
