<svg width="32" height="32" viewBox="0 0 32 32" fill="none" xmlns="http://www.w3.org/2000/svg">
<path d="M14.5467 6.2419C15.3793 5.34445 15.7955 4.89572 16.1336 4.8402C16.2666 4.81834 16.3292 4.81848 16.4621 4.84093C16.7999 4.89795 17.2158 5.35029 18.0476 6.25496C18.8975 7.17925 19.9768 8.11427 21.096 8.46512C21.9977 8.74779 23.2191 8.74333 24.2029 8.67049C24.9642 8.61412 25.3448 8.58593 25.609 8.7357C25.6969 8.7855 25.7709 8.84336 25.8405 8.91654C26.0498 9.13661 26.1066 9.46635 26.2201 10.1258C26.6255 12.4791 27.1137 16.8106 25.8862 19.6279C24.7552 22.2238 21.6863 24.6387 19.3237 26.2012C18.2124 26.9361 17.6568 27.3035 16.746 27.4251C16.5056 27.4572 16.0862 27.4654 15.8448 27.4429C14.9298 27.3574 14.3592 27.0117 13.218 26.3202C10.6877 24.787 7.3347 22.3501 6.12653 19.6279C4.8815 16.8227 5.37394 12.4974 5.78533 10.1391C5.90139 9.47377 5.95943 9.14111 6.17254 8.92045C6.24309 8.84741 6.31905 8.78919 6.40792 8.74005C6.67638 8.5916 7.05791 8.62611 7.82097 8.69512C8.96134 8.79825 10.4462 8.827 11.5155 8.46512C12.6218 8.09072 13.6965 7.15837 14.5467 6.2419Z" fill="white" stroke="#3D544D" stroke-width="1.5" stroke-linejoin="round"/>
</svg>
