<svg width="32" height="32" viewBox="0 0 32 32" fill="none" xmlns="http://www.w3.org/2000/svg">
<path d="M27.75 16.0001C27.8881 16.0001 28.0003 16.112 27.9974 16.2501C27.9531 18.3763 27.3444 20.4542 26.2317 22.2701C25.0754 24.157 23.4198 25.6874 21.4479 26.6922C19.476 27.6969 17.2647 28.1367 15.0585 27.9631C12.8523 27.7895 10.737 27.0091 8.94658 25.7083C7.15617 24.4075 5.76036 22.6369 4.91345 20.5923C4.06655 18.5477 3.80154 16.3087 4.14774 14.1229C4.49394 11.937 5.43786 9.88953 6.87513 8.2067C8.25824 6.58729 10.0464 5.3663 12.0548 4.66713C12.1852 4.62174 12.3264 4.69385 12.3691 4.82517L15.4948 14.4454C15.7961 15.3724 16.66 16.0001 17.6347 16.0001H27.75Z" fill="white" stroke="#3D544D" stroke-width="1.5"/>
<path d="M17.1446 4.5966C17.102 4.46529 17.1737 4.32381 17.3064 4.28565C18.3365 3.98937 19.4201 3.92222 20.4807 4.0902C21.6237 4.27124 22.7077 4.72023 23.6439 5.40046C24.5802 6.08069 25.3422 6.97285 25.8676 8.00399C26.3551 8.9608 26.626 10.0121 26.6626 11.0833C26.6673 11.2213 26.5549 11.3333 26.4168 11.3333L20.2417 11.3333C19.7002 11.3333 19.2202 10.9846 19.0529 10.4695L17.1446 4.5966Z" fill="white" stroke="#3D544D" stroke-width="1.5"/>
</svg>
