<svg width="177" height="12" viewBox="0 0 177 12" fill="none" xmlns="http://www.w3.org/2000/svg">
<path d="M174.632 8.89207C174.376 8.89207 174.108 8.87204 173.827 8.83199C173.555 8.79994 173.295 8.75188 173.046 8.68779C172.798 8.6237 172.578 8.5476 172.385 8.45948L172.518 7.9668C172.806 8.08697 173.13 8.18711 173.491 8.26722C173.859 8.33931 174.228 8.37536 174.596 8.37536C175.189 8.37536 175.642 8.27122 175.954 8.06294C176.267 7.84664 176.423 7.54222 176.423 7.14969C176.423 6.85328 176.343 6.62497 176.183 6.46475C176.022 6.29652 175.802 6.16434 175.522 6.06821C175.249 5.96406 174.937 5.87194 174.584 5.79183C174.192 5.6957 173.827 5.58354 173.491 5.45537C173.154 5.32719 172.882 5.15095 172.674 4.92664C172.465 4.70234 172.361 4.40193 172.361 4.02541C172.361 3.5047 172.566 3.10415 172.974 2.82377C173.391 2.54338 173.98 2.40319 174.741 2.40319C175.109 2.40319 175.478 2.43924 175.846 2.51134C176.215 2.57543 176.535 2.66355 176.807 2.7757L176.675 3.26837C176.419 3.15622 176.126 3.07211 175.798 3.01603C175.47 2.95194 175.133 2.9199 174.789 2.9199C174.188 2.9199 173.731 3.01603 173.419 3.20829C173.114 3.40056 172.958 3.67693 172.95 4.03743C172.95 4.29378 173.022 4.49806 173.166 4.65027C173.319 4.80247 173.527 4.92264 173.791 5.01076C174.056 5.09888 174.36 5.187 174.705 5.27512C174.993 5.34722 175.273 5.42733 175.546 5.51545C175.826 5.60357 176.074 5.71973 176.291 5.86393C176.507 6.00011 176.679 6.17235 176.807 6.38063C176.936 6.58892 177 6.84927 177 7.1617C177.008 7.5222 176.916 7.83462 176.723 8.09898C176.531 8.35533 176.259 8.5516 175.906 8.68779C175.562 8.82398 175.137 8.89207 174.632 8.89207Z" fill="black"/>
<path d="M165.606 8.77191V2.52335H166.194V3.47265H166.218C166.443 3.13619 166.763 2.87584 167.18 2.69159C167.596 2.49932 168.065 2.40319 168.586 2.40319C169.331 2.40319 169.879 2.61148 170.232 3.02805C170.592 3.43661 170.773 4.06947 170.773 4.92664V8.77191H170.184V5.01076C170.184 4.29778 170.044 3.77307 169.763 3.43661C169.483 3.09213 169.05 2.9199 168.465 2.9199C168.025 2.9199 167.632 3.00802 167.288 3.18426C166.943 3.3605 166.675 3.60483 166.483 3.91726C166.29 4.22168 166.194 4.57416 166.194 4.97471V8.77191H165.606Z" fill="black"/>
<path d="M160.83 8.89207C159.901 8.89207 159.172 8.60768 158.643 8.0389C158.122 7.46211 157.862 6.66502 157.862 5.64763C157.862 4.63024 158.122 3.83715 158.643 3.26837C159.172 2.69159 159.901 2.40319 160.83 2.40319C161.759 2.40319 162.484 2.69159 163.005 3.26837C163.534 3.83715 163.798 4.63024 163.798 5.64763C163.798 6.66502 163.534 7.46211 163.005 8.0389C162.484 8.60768 161.759 8.89207 160.83 8.89207ZM160.83 8.37536C161.583 8.37536 162.168 8.13904 162.584 7.66639C163.001 7.18574 163.209 6.51281 163.209 5.64763C163.209 4.78245 163.001 4.11353 162.584 3.64088C162.168 3.16023 161.583 2.9199 160.83 2.9199C160.085 2.9199 159.5 3.16023 159.076 3.64088C158.659 4.11353 158.451 4.78245 158.451 5.64763C158.451 6.51281 158.659 7.18574 159.076 7.66639C159.5 8.13904 160.085 8.37536 160.83 8.37536Z" fill="black"/>
<path d="M155.016 0.913249V0H155.942V0.913249H155.016ZM155.173 8.772V2.52345H155.773V8.772H155.173Z" fill="black"/>
<path d="M151.83 8.89215C151.173 8.89215 150.704 8.75196 150.424 8.47157C150.143 8.18318 150.003 7.71053 150.003 7.05363V3.04014H148.393V2.52343H150.003V0.480638H150.604V2.52343H153.055V3.04014H150.604V6.93347C150.604 7.46219 150.7 7.8307 150.892 8.03898C151.085 8.24727 151.425 8.35141 151.914 8.35141C152.106 8.35141 152.29 8.33939 152.467 8.31536C152.651 8.28332 152.827 8.23926 152.995 8.18318L153.079 8.69988C152.863 8.77198 152.651 8.82005 152.443 8.84408C152.242 8.87613 152.038 8.89215 151.83 8.89215Z" fill="black"/>
<path d="M145.692 0.913249V0H146.617V0.913249H145.692ZM145.848 8.772V2.52345H146.449V8.772H145.848Z" fill="black"/>
<path d="M140.343 8.89217C139.518 8.89217 138.869 8.60778 138.396 8.039C137.931 7.46221 137.699 6.66512 137.699 5.64773C137.699 4.62232 137.931 3.82523 138.396 3.25646C138.869 2.68768 139.518 2.40329 140.343 2.40329C140.831 2.40329 141.28 2.49942 141.689 2.69168C142.105 2.88395 142.414 3.1443 142.614 3.47275H142.638V0H143.227V8.772H142.662V7.8227H142.638C142.43 8.14314 142.117 8.4035 141.701 8.60377C141.284 8.79604 140.831 8.89217 140.343 8.89217ZM140.451 8.37546C140.876 8.37546 141.252 8.28734 141.58 8.1111C141.909 7.93486 142.165 7.69453 142.35 7.39011C142.542 7.07768 142.638 6.7212 142.638 6.32065V4.97481C142.638 4.57426 142.542 4.22178 142.35 3.91736C142.165 3.60493 141.909 3.3606 141.58 3.18436C141.252 3.00812 140.876 2.92 140.451 2.92C139.77 2.92 139.237 3.15632 138.853 3.62897C138.476 4.10161 138.288 4.77453 138.288 5.64773C138.288 6.52092 138.476 7.19384 138.853 7.66649C139.237 8.13914 139.77 8.37546 140.451 8.37546Z" fill="black"/>
<path d="M130.943 8.77191V2.52335H131.532V3.47265H131.556C131.78 3.13619 132.101 2.87584 132.517 2.69159C132.934 2.49932 133.403 2.40319 133.923 2.40319C134.668 2.40319 135.217 2.61148 135.57 3.02805C135.93 3.43661 136.11 4.06947 136.11 4.92664V8.77191H135.522V5.01076C135.522 4.29778 135.381 3.77307 135.101 3.43661C134.821 3.09213 134.388 2.9199 133.803 2.9199C133.363 2.9199 132.97 3.00802 132.626 3.18426C132.281 3.3605 132.013 3.60483 131.821 3.91726C131.628 4.22168 131.532 4.57416 131.532 4.97471V8.77191H130.943Z" fill="black"/>
<path d="M126.168 8.89207C125.239 8.89207 124.51 8.60768 123.981 8.0389C123.46 7.46211 123.2 6.66502 123.2 5.64763C123.2 4.63024 123.46 3.83715 123.981 3.26837C124.51 2.69159 125.239 2.40319 126.168 2.40319C127.097 2.40319 127.822 2.69159 128.343 3.26837C128.872 3.83715 129.136 4.63024 129.136 5.64763C129.136 6.66502 128.872 7.46211 128.343 8.0389C127.822 8.60768 127.097 8.89207 126.168 8.89207ZM126.168 8.37536C126.921 8.37536 127.506 8.13904 127.922 7.66639C128.339 7.18574 128.547 6.51281 128.547 5.64763C128.547 4.78245 128.339 4.11353 127.922 3.64088C127.506 3.16023 126.921 2.9199 126.168 2.9199C125.423 2.9199 124.838 3.16023 124.413 3.64088C123.997 4.11353 123.789 4.78245 123.789 5.64763C123.789 6.51281 123.997 7.18574 124.413 7.66639C124.838 8.13904 125.423 8.37536 126.168 8.37536Z" fill="black"/>
<path d="M119.944 8.89207C119.287 8.89207 118.718 8.76389 118.237 8.50754C117.765 8.24318 117.4 7.87067 117.144 7.39001C116.888 6.90135 116.759 6.32055 116.759 5.64763C116.759 4.97471 116.888 4.39792 117.144 3.91726C117.4 3.42859 117.765 3.05608 118.237 2.79973C118.718 2.53537 119.287 2.40319 119.944 2.40319C120.264 2.40319 120.569 2.43924 120.857 2.51134C121.153 2.57543 121.446 2.68357 121.734 2.83578L121.578 3.31644C121.314 3.18025 121.049 3.08012 120.785 3.01603C120.521 2.95194 120.248 2.9199 119.968 2.9199C119.151 2.9199 118.51 3.16423 118.045 3.6529C117.589 4.13356 117.36 4.79847 117.36 5.64763C117.36 6.49679 117.589 7.16571 118.045 7.65438C118.51 8.13503 119.151 8.37536 119.968 8.37536C120.248 8.37536 120.521 8.34332 120.785 8.27923C121.049 8.21514 121.314 8.11501 121.578 7.97882L121.734 8.45948C121.446 8.61169 121.153 8.71983 120.857 8.78392C120.569 8.85602 120.264 8.89207 119.944 8.89207Z" fill="black"/>
<path d="M108.401 8.89217C107.575 8.89217 106.927 8.60778 106.454 8.039C105.989 7.46221 105.757 6.66512 105.757 5.64773C105.757 4.62232 105.989 3.82523 106.454 3.25646C106.927 2.68768 107.575 2.40329 108.401 2.40329C108.889 2.40329 109.338 2.49942 109.746 2.69168C110.163 2.88395 110.471 3.1443 110.672 3.47275H110.696V0H111.285V8.772H110.72V7.8227H110.696C110.487 8.14314 110.175 8.4035 109.758 8.60377C109.342 8.79604 108.889 8.89217 108.401 8.89217ZM108.509 8.37546C108.933 8.37546 109.31 8.28734 109.638 8.1111C109.967 7.93486 110.223 7.69453 110.407 7.39011C110.6 7.07768 110.696 6.7212 110.696 6.32065V4.97481C110.696 4.57426 110.6 4.22178 110.407 3.91736C110.223 3.60493 109.967 3.3606 109.638 3.18436C109.31 3.00812 108.933 2.92 108.509 2.92C107.828 2.92 107.295 3.15632 106.911 3.62897C106.534 4.10161 106.346 4.77453 106.346 5.64773C106.346 6.52092 106.534 7.19384 106.911 7.66649C107.295 8.13914 107.828 8.37546 108.509 8.37546Z" fill="black"/>
<path d="M99.0012 8.77191V2.52335H99.59V3.47265H99.614C99.8383 3.13619 100.159 2.87584 100.575 2.69159C100.992 2.49932 101.461 2.40319 101.981 2.40319C102.726 2.40319 103.275 2.61148 103.628 3.02805C103.988 3.43661 104.168 4.06947 104.168 4.92664V8.77191H103.579V5.01076C103.579 4.29778 103.439 3.77307 103.159 3.43661C102.878 3.09213 102.446 2.9199 101.861 2.9199C101.42 2.9199 101.028 3.00802 100.683 3.18426C100.339 3.3605 100.071 3.60483 99.8784 3.91726C99.6861 4.22168 99.59 4.57416 99.59 4.97471V8.77191H99.0012Z" fill="black"/>
<path d="M93.803 8.89207C93.1701 8.89207 92.6654 8.72384 92.2889 8.38738C91.9124 8.05092 91.7241 7.59429 91.7241 7.01751C91.7241 6.30453 92.0205 5.75978 92.6134 5.38327C93.2142 5.00675 94.0714 4.8185 95.1849 4.8185H96.2543C96.2543 4.32983 96.2023 3.94931 96.0981 3.67693C95.994 3.40456 95.8137 3.2123 95.5574 3.10014C95.301 2.97998 94.9486 2.9199 94.4999 2.9199C94.0914 2.9199 93.6868 2.96396 93.2863 3.05208C92.8857 3.13219 92.5012 3.25235 92.1327 3.41257L91.9645 2.94393C92.357 2.76769 92.7736 2.63551 93.2142 2.54739C93.6548 2.45126 94.1034 2.40319 94.56 2.40319C95.1288 2.40319 95.5814 2.4833 95.9179 2.64352C96.2543 2.79573 96.4947 3.05208 96.6389 3.41257C96.7831 3.76505 96.8552 4.24571 96.8552 4.85455V8.77191H96.2784V7.78656H96.2543C96.0461 8.107 95.7136 8.37136 95.257 8.57964C94.8003 8.78793 94.3157 8.89207 93.803 8.89207ZM93.9592 8.38738C94.3918 8.38738 94.7803 8.30326 95.1248 8.13503C95.4693 7.9668 95.7416 7.73849 95.9419 7.4501C96.1502 7.1617 96.2543 6.84527 96.2543 6.5008V5.29915H95.245C94.2756 5.29915 93.5426 5.44335 93.0459 5.73175C92.5573 6.02014 92.3129 6.43671 92.3129 6.98146C92.3129 7.41405 92.4571 7.75852 92.7455 8.01487C93.0339 8.26321 93.4385 8.38738 93.9592 8.38738Z" fill="black"/>
<path d="M84.5326 8.89207C84.2762 8.89207 84.0079 8.87204 83.7275 8.83199C83.4551 8.79994 83.1948 8.75188 82.9464 8.68779C82.6981 8.6237 82.4778 8.5476 82.2855 8.45948L82.4177 7.9668C82.7061 8.08697 83.0305 8.18711 83.391 8.26722C83.7595 8.33931 84.128 8.37536 84.4965 8.37536C85.0893 8.37536 85.542 8.27122 85.8544 8.06294C86.1668 7.84664 86.323 7.54222 86.323 7.14969C86.323 6.85328 86.2429 6.62497 86.0827 6.46475C85.9225 6.29652 85.7022 6.16434 85.4218 6.06821C85.1494 5.96406 84.837 5.87194 84.4845 5.79183C84.092 5.6957 83.7275 5.58354 83.391 5.45537C83.0546 5.32719 82.7822 5.15095 82.5739 4.92664C82.3656 4.70234 82.2615 4.40193 82.2615 4.02541C82.2615 3.5047 82.4658 3.10415 82.8743 2.82377C83.2909 2.54338 83.8797 2.40319 84.6407 2.40319C85.0092 2.40319 85.3777 2.43924 85.7462 2.51134C86.1148 2.57543 86.4352 2.66355 86.7076 2.7757L86.5754 3.26837C86.319 3.15622 86.0266 3.07211 85.6982 3.01603C85.3697 2.95194 85.0333 2.9199 84.6888 2.9199C84.088 2.9199 83.6314 3.01603 83.3189 3.20829C83.0145 3.40056 82.8583 3.67693 82.8503 4.03743C82.8503 4.29378 82.9224 4.49806 83.0666 4.65027C83.2188 4.80247 83.4271 4.92264 83.6914 5.01076C83.9558 5.09888 84.2602 5.187 84.6047 5.27512C84.8931 5.34722 85.1735 5.42733 85.4458 5.51545C85.7262 5.60357 85.9746 5.71973 86.1909 5.86393C86.4072 6.00011 86.5794 6.17235 86.7076 6.38063C86.8357 6.58892 86.8998 6.84927 86.8998 7.1617C86.9078 7.5222 86.8157 7.83462 86.6234 8.09898C86.4312 8.35533 86.1588 8.5516 85.8063 8.68779C85.4619 8.82398 85.0373 8.89207 84.5326 8.89207Z" fill="black"/>
<path d="M72.2199 8.77191V2.52335H72.7847V3.47265H72.8087C73.017 3.15222 73.3014 2.89587 73.6619 2.7036C74.0224 2.50333 74.4269 2.40319 74.8755 2.40319C75.3482 2.40319 75.7327 2.49532 76.0291 2.67957C76.3335 2.85581 76.5378 3.12017 76.642 3.47265H76.666C76.8823 3.12017 77.1747 2.85581 77.5432 2.67957C77.9197 2.49532 78.3403 2.40319 78.8049 2.40319C79.4698 2.40319 79.9465 2.59946 80.2349 2.992C80.5233 3.37652 80.6675 4.00138 80.6675 4.86656V8.77191H80.0907V4.97471C80.0907 4.2377 79.9785 3.71298 79.7542 3.40056C79.5299 3.08012 79.1614 2.9199 78.6487 2.9199C78.0799 2.9199 77.6193 3.10816 77.2668 3.48467C76.9143 3.86119 76.7381 4.35787 76.7381 4.97471V8.77191H76.1493V4.56615C76.1493 4.02942 76.0251 3.62086 75.7768 3.34047C75.5364 3.06009 75.18 2.9199 74.7073 2.9199C74.3388 2.9199 74.0104 3.02003 73.722 3.22031C73.4336 3.42058 73.2053 3.68094 73.037 4.00138C72.8768 4.31381 72.7967 4.63825 72.7967 4.97471V8.77191H72.2199Z" fill="black"/>
<path d="M67.2233 8.77191V2.52335H67.8001V3.9413H67.8242C67.9924 3.62887 68.2207 3.3605 68.5091 3.13619C68.8055 2.90388 69.146 2.72363 69.5305 2.59545C69.915 2.46728 70.3196 2.40319 70.7442 2.40319V2.94393C70.1994 2.94393 69.7027 3.06009 69.2541 3.29241C68.8135 3.51671 68.461 3.82514 68.1967 4.21767C67.9403 4.61021 67.8121 5.04681 67.8121 5.52747V8.77191H67.2233Z" fill="black"/>
<path d="M63.0154 8.89207C62.006 8.89207 61.2289 8.61169 60.6842 8.05092C60.1394 7.49015 59.8671 6.68906 59.8671 5.64763C59.8671 4.63825 60.1234 3.84516 60.6361 3.26837C61.1568 2.69159 61.8658 2.40319 62.763 2.40319C63.6282 2.40319 64.2891 2.67556 64.7457 3.22031C65.2104 3.75704 65.4427 4.53411 65.4427 5.5515C65.4427 5.60758 65.4387 5.65965 65.4307 5.70771C65.4307 5.75578 65.4307 5.79984 65.4307 5.83989H60.1915V5.34722H65.0221L64.8779 5.52747C64.8779 4.66228 64.6977 4.00939 64.3372 3.56879C63.9847 3.12818 63.46 2.90788 62.763 2.90788C62.034 2.90788 61.4653 3.1442 61.0567 3.61685C60.6562 4.08149 60.4559 4.7464 60.4559 5.61158V5.73175C60.4559 6.59693 60.6722 7.25383 61.1048 7.70244C61.5374 8.15106 62.1702 8.37536 63.0034 8.37536C63.3558 8.37536 63.7083 8.33931 64.0608 8.26722C64.4213 8.18711 64.7497 8.07896 65.0462 7.94277L65.1783 8.43544C64.8659 8.57964 64.5214 8.6918 64.1449 8.77191C63.7764 8.85202 63.3999 8.89207 63.0154 8.89207Z" fill="black"/>
<path d="M57.5523 8.89215C56.8954 8.89215 56.4267 8.75196 56.1463 8.47157C55.8659 8.18318 55.7258 7.71053 55.7258 7.05363V3.04014H54.1155V2.52343H55.7258V0.480638H56.3266V2.52343H58.7779V3.04014H56.3266V6.93347C56.3266 7.46219 56.4227 7.8307 56.615 8.03898C56.8072 8.24727 57.1477 8.35141 57.6364 8.35141C57.8286 8.35141 58.0129 8.33939 58.1891 8.31536C58.3734 8.28332 58.5496 8.23926 58.7178 8.18318L58.802 8.69988C58.5857 8.77198 58.3734 8.82005 58.1651 8.84408C57.9648 8.87613 57.7605 8.89215 57.5523 8.89215Z" fill="black"/>
<path d="M46.3663 8.89207C45.437 8.89207 44.708 8.60768 44.1793 8.0389C43.6586 7.46211 43.3982 6.66502 43.3982 5.64763C43.3982 4.63024 43.6586 3.83715 44.1793 3.26837C44.708 2.69159 45.437 2.40319 46.3663 2.40319C47.2956 2.40319 48.0206 2.69159 48.5413 3.26837C49.07 3.83715 49.3344 4.63024 49.3344 5.64763C49.3344 6.66502 49.07 7.46211 48.5413 8.0389C48.0206 8.60768 47.2956 8.89207 46.3663 8.89207ZM46.3663 8.37536C47.1193 8.37536 47.7041 8.13904 48.1207 7.66639C48.5373 7.18574 48.7456 6.51281 48.7456 5.64763C48.7456 4.78245 48.5373 4.11353 48.1207 3.64088C47.7041 3.16023 47.1193 2.9199 46.3663 2.9199C45.6213 2.9199 45.0365 3.16023 44.6119 3.64088C44.1953 4.11353 43.9871 4.78245 43.9871 5.64763C43.9871 6.51281 44.1953 7.18574 44.6119 7.66639C45.0365 8.13904 45.6213 8.37536 46.3663 8.37536Z" fill="black"/>
<path d="M41.0839 8.89215C40.427 8.89215 39.9584 8.75196 39.678 8.47157C39.3976 8.18318 39.2574 7.71053 39.2574 7.05363V3.04014H37.6472V2.52343H39.2574V0.480638H39.8582V2.52343H42.3096V3.04014H39.8582V6.93347C39.8582 7.46219 39.9544 7.8307 40.1466 8.03898C40.3389 8.24727 40.6794 8.35141 41.168 8.35141C41.3603 8.35141 41.5445 8.33939 41.7208 8.31536C41.905 8.28332 42.0813 8.23926 42.2495 8.18318L42.3336 8.69988C42.1173 8.77198 41.905 8.82005 41.6968 8.84408C41.4965 8.87613 41.2922 8.89215 41.0839 8.89215Z" fill="black"/>
<path d="M30.465 8.89207C29.4556 8.89207 28.6785 8.61169 28.1338 8.05092C27.589 7.49015 27.3167 6.68906 27.3167 5.64763C27.3167 4.63825 27.573 3.84516 28.0857 3.26837C28.6064 2.69159 29.3154 2.40319 30.2126 2.40319C31.0778 2.40319 31.7387 2.67556 32.1954 3.22031C32.66 3.75704 32.8923 4.53411 32.8923 5.5515C32.8923 5.60758 32.8883 5.65965 32.8803 5.70771C32.8803 5.75578 32.8803 5.79984 32.8803 5.83989H27.6411V5.34722H32.4717L32.3275 5.52747C32.3275 4.66228 32.1473 4.00939 31.7868 3.56879C31.4343 3.12818 30.9096 2.90788 30.2126 2.90788C29.4836 2.90788 28.9149 3.1442 28.5063 3.61685C28.1058 4.08149 27.9055 4.7464 27.9055 5.61158V5.73175C27.9055 6.59693 28.1218 7.25383 28.5544 7.70244C28.987 8.15106 29.6198 8.37536 30.453 8.37536C30.8054 8.37536 31.1579 8.33931 31.5104 8.26722C31.8709 8.18711 32.1994 8.07896 32.4958 7.94277L32.6279 8.43544C32.3155 8.57964 31.971 8.6918 31.5945 8.77191C31.226 8.85202 30.8495 8.89207 30.465 8.89207Z" fill="black"/>
<path d="M23.6026 8.89207C22.5932 8.89207 21.8161 8.61169 21.2714 8.05092C20.7266 7.49015 20.4543 6.68906 20.4543 5.64763C20.4543 4.63825 20.7106 3.84516 21.2233 3.26837C21.744 2.69159 22.453 2.40319 23.3502 2.40319C24.2154 2.40319 24.8763 2.67556 25.3329 3.22031C25.7976 3.75704 26.0299 4.53411 26.0299 5.5515C26.0299 5.60758 26.0259 5.65965 26.0179 5.70771C26.0179 5.75578 26.0179 5.79984 26.0179 5.83989H20.7787V5.34722H25.6093L25.4651 5.52747C25.4651 4.66228 25.2849 4.00939 24.9244 3.56879C24.5719 3.12818 24.0472 2.90788 23.3502 2.90788C22.6212 2.90788 22.0524 3.1442 21.6439 3.61685C21.2433 4.08149 21.0431 4.7464 21.0431 5.61158V5.73175C21.0431 6.59693 21.2594 7.25383 21.692 7.70244C22.1245 8.15106 22.7574 8.37536 23.5905 8.37536C23.943 8.37536 24.2955 8.33931 24.648 8.26722C25.0085 8.18711 25.3369 8.07896 25.6333 7.94277L25.7655 8.43544C25.4531 8.57964 25.1086 8.6918 24.7321 8.77191C24.3636 8.85202 23.9871 8.89207 23.6026 8.89207Z" fill="black"/>
<path d="M16.55 8.77191V2.52335H17.1268V3.9413H17.1508C17.319 3.62887 17.5474 3.3605 17.8357 3.13619C18.1322 2.90388 18.4726 2.72363 18.8571 2.59545C19.2417 2.46728 19.6462 2.40319 20.0708 2.40319V2.94393C19.5261 2.94393 19.0294 3.06009 18.5808 3.29241C18.1402 3.51671 17.7877 3.82514 17.5233 4.21767C17.267 4.61021 17.1388 5.04681 17.1388 5.52747V8.77191H16.55Z" fill="black"/>
<path d="M11.2612 11.4155C10.8046 11.4155 10.372 11.3675 9.96344 11.2713C9.56289 11.1752 9.21041 11.035 8.90599 10.8508L9.05019 10.3581C9.3466 10.5343 9.67905 10.6665 10.0476 10.7546C10.4161 10.8507 10.8086 10.8988 11.2252 10.8988C12.0743 10.8988 12.6832 10.6905 13.0517 10.274C13.4202 9.85739 13.6044 9.17646 13.6044 8.23116V7.51018H13.5804C13.3801 7.82261 13.0757 8.07095 12.6671 8.2552C12.2666 8.43945 11.818 8.53158 11.3213 8.53158C10.4882 8.53158 9.83527 8.26321 9.36262 7.72648C8.89798 7.18173 8.66567 6.4287 8.66567 5.46738C8.66567 4.50607 8.89798 3.75704 9.36262 3.22031C9.83527 2.67556 10.4882 2.40319 11.3213 2.40319C11.818 2.40319 12.2666 2.49532 12.6671 2.67957C13.0757 2.86382 13.3841 3.11216 13.5924 3.42459H13.6164V2.52335H14.1932V8.23116C14.1932 9.33668 13.9569 10.1418 13.4843 10.6465C13.0196 11.1592 12.2786 11.4155 11.2612 11.4155ZM11.4174 8.01487C11.842 8.01487 12.2185 7.93476 12.547 7.77454C12.8754 7.60631 13.1318 7.382 13.316 7.10162C13.5083 6.81323 13.6044 6.48478 13.6044 6.11627V4.8185C13.6044 4.44999 13.5083 4.12555 13.316 3.84516C13.1318 3.55677 12.8754 3.33246 12.547 3.17224C12.2185 3.00401 11.842 2.9199 11.4174 2.9199C10.7365 2.9199 10.2038 3.14421 9.81924 3.59282C9.43472 4.03342 9.24246 4.65828 9.24246 5.46738C9.24246 6.27649 9.43472 6.90535 9.81924 7.35396C10.2038 7.79457 10.7365 8.01487 11.4174 8.01487Z" fill="black"/>
<path d="M0 8.772L3.52082 0H4.33794L7.84674 8.772H7.19785L3.94139 0.528723H3.91736L0.660904 8.772H0ZM1.42996 6.1404V5.57563H6.41678V6.1404H1.42996Z" fill="black"/>
</svg>
