<svg width="123" height="32" viewBox="0 0 123 32" fill="none" xmlns="http://www.w3.org/2000/svg">
<path d="M19.4876 14.8695C19.455 11.337 22.4541 9.61852 22.5913 9.53851C20.8927 7.12402 18.2601 6.79412 17.3349 6.76782C15.1238 6.54094 12.979 8.05781 11.8527 8.05781C10.7038 8.05781 8.96934 6.78973 7.09996 6.827C4.69437 6.86317 2.44391 8.22111 1.20964 10.3298C-1.33758 14.6294 0.56216 20.9479 3.00259 24.4233C4.22337 26.1254 5.64986 28.0259 7.517 27.959C9.34367 27.8856 10.026 26.8236 12.2304 26.8236C14.4145 26.8236 15.0552 27.959 16.9595 27.9163C18.9199 27.8856 20.1542 26.2065 21.3323 24.4891C22.743 22.5382 23.3096 20.6169 23.332 20.5183C23.2859 20.5029 19.5247 19.1033 19.4876 14.8695Z" fill="white"/>
<path d="M15.8905 4.48155C16.8729 3.28362 17.5451 1.65387 17.3585 0C15.9365 0.0613761 14.1582 0.959002 13.1342 2.13063C12.2281 3.16306 11.4188 4.85529 11.6279 6.44669C13.2252 6.56286 14.8653 5.66085 15.8905 4.48155Z" fill="white"/>
<path d="M40.7579 4.15605C40.7579 5.44605 40.3611 6.41711 39.5686 7.06923C38.8346 7.67093 37.7914 7.97233 36.4402 7.97233C35.7703 7.97233 35.197 7.94384 34.717 7.88685V0.838451C35.3431 0.739811 36.0176 0.689395 36.746 0.689395C38.0331 0.689395 39.0032 0.962299 39.6574 1.50811C40.3903 2.12516 40.7579 3.00744 40.7579 4.15605ZM39.5158 4.18784C39.5158 3.35159 39.2887 2.71042 38.8346 2.26325C38.3804 1.81718 37.7172 1.5936 36.8438 1.5936C36.4728 1.5936 36.157 1.61771 35.895 1.66813V7.02648C36.0401 7.0484 36.3053 7.05827 36.6909 7.05827C37.5924 7.05827 38.2883 6.81386 38.7784 6.32504C39.2685 5.83622 39.5158 5.12382 39.5158 4.18784Z" fill="white"/>
<path d="M47.3441 5.28274C47.3441 6.07734 47.1114 6.72837 46.646 7.2391C46.1581 7.76409 45.5118 8.02603 44.7047 8.02603C43.9268 8.02603 43.3074 7.77505 42.8454 7.27089C42.3845 6.76782 42.1541 6.13324 42.1541 5.36823C42.1541 4.56815 42.3912 3.91164 42.8679 3.402C43.3445 2.89236 43.9852 2.63699 44.7923 2.63699C45.5702 2.63699 46.1952 2.88797 46.6685 3.39104C47.1181 3.87986 47.3441 4.51115 47.3441 5.28274ZM46.1222 5.32C46.1222 4.84324 46.0165 4.43443 45.8063 4.09358C45.559 3.68148 45.2071 3.47543 44.7496 3.47543C44.2764 3.47543 43.9167 3.68148 43.6694 4.09358C43.458 4.43443 43.3535 4.84982 43.3535 5.34083C43.3535 5.81759 43.4591 6.2264 43.6694 6.56725C43.9245 6.97935 44.2797 7.1854 44.7384 7.1854C45.188 7.1854 45.541 6.97606 45.795 6.55629C46.0131 6.20886 46.1222 5.79676 46.1222 5.32Z" fill="white"/>
<path d="M56.175 2.7422L54.517 7.90876H53.4378L52.751 5.66524C52.5768 5.10519 52.4351 4.54842 52.325 3.99603H52.3036C52.2013 4.56376 52.0597 5.11943 51.8776 5.66524L51.148 7.90876H50.0565L48.4974 2.7422H49.708L50.3072 5.19835C50.4522 5.77923 50.5714 6.33271 50.6669 6.8566H50.6883C50.776 6.42477 50.921 5.87458 51.1255 5.20931L51.8776 2.7433H52.8376L53.5581 5.1567C53.7323 5.74525 53.874 6.31188 53.983 6.85769H54.0156C54.0954 6.32613 54.2157 5.7595 54.3753 5.1567L55.0183 2.7433H56.175V2.7422Z" fill="white"/>
<path d="M62.2823 7.90877H61.1042V4.94956C61.1042 4.03769 60.749 3.58175 60.0363 3.58175C59.6867 3.58175 59.4046 3.7067 59.1854 3.95768C58.9684 4.20866 58.8583 4.50459 58.8583 4.84325V7.90767H57.6802V4.21853C57.6802 3.76478 57.6656 3.27268 57.6375 2.74002H58.6728L58.7279 3.54778H58.7605C58.8976 3.29679 59.1022 3.08965 59.3709 2.92415C59.6901 2.73125 60.0476 2.63371 60.4388 2.63371C60.9334 2.63371 61.3448 2.78934 61.6719 3.1017C62.0788 3.48421 62.2823 4.05522 62.2823 4.81366V7.90877Z" fill="white"/>
<path d="M65.531 7.90876H64.354V0.371549H65.531V7.90876Z" fill="white"/>
<path d="M72.4667 5.28274C72.4667 6.07734 72.234 6.72837 71.7686 7.2391C71.2808 7.76409 70.6333 8.02603 69.8273 8.02603C69.0483 8.02603 68.4289 7.77505 67.968 7.27089C67.5071 6.76782 67.2767 6.13324 67.2767 5.36823C67.2767 4.56815 67.5139 3.91164 67.9905 3.402C68.4671 2.89236 69.1079 2.63699 69.9138 2.63699C70.6929 2.63699 71.3167 2.88797 71.7911 3.39104C72.2408 3.87986 72.4667 4.51115 72.4667 5.28274ZM71.2437 5.32C71.2437 4.84324 71.138 4.43443 70.9278 4.09358C70.6816 3.68148 70.3286 3.47543 69.8723 3.47543C69.3979 3.47543 69.0382 3.68148 68.792 4.09358C68.5807 4.43443 68.4761 4.84982 68.4761 5.34083C68.4761 5.81759 68.5818 6.2264 68.792 6.56725C69.0472 6.97935 69.4024 7.1854 69.861 7.1854C70.3107 7.1854 70.6625 6.97606 70.9165 6.55629C71.1357 6.20886 71.2437 5.79676 71.2437 5.32Z" fill="white"/>
<path d="M78.1682 7.90876H77.1104L77.0227 7.31363H76.9901C76.6281 7.7882 76.1122 8.02603 75.4422 8.02603C74.942 8.02603 74.5373 7.86931 74.2327 7.55804C73.9561 7.27527 73.8179 6.92345 73.8179 6.50588C73.8179 5.87458 74.0877 5.39344 74.6306 5.06025C75.1724 4.72707 75.9346 4.56376 76.9159 4.57143V4.47499C76.9159 3.79437 76.5494 3.45461 75.8154 3.45461C75.2927 3.45461 74.8318 3.58284 74.4339 3.83711L74.1944 3.08306C74.6868 2.78605 75.2949 2.63699 76.0121 2.63699C77.397 2.63699 78.0917 3.34939 78.0917 4.77419V6.67685C78.0917 7.19307 78.1176 7.60407 78.1682 7.90876ZM76.9451 6.13324V5.33644C75.6457 5.31452 74.9959 5.66196 74.9959 6.37765C74.9959 6.64726 75.0701 6.84893 75.2219 6.98374C75.3736 7.11854 75.567 7.1854 75.7974 7.1854C76.056 7.1854 76.2976 7.10539 76.518 6.94647C76.7394 6.78645 76.8754 6.58369 76.926 6.3349C76.9384 6.27901 76.9451 6.21105 76.9451 6.13324Z" fill="white"/>
<path d="M84.8622 7.90876H83.8168L83.7617 7.07908H83.7291C83.3952 7.71038 82.8265 8.02603 82.0272 8.02603C81.3887 8.02603 80.857 7.78162 80.4355 7.29281C80.0139 6.80399 79.8037 6.1694 79.8037 5.39014C79.8037 4.55389 80.0319 3.87656 80.4906 3.35925C80.9346 2.87701 81.4787 2.63589 82.1261 2.63589C82.8377 2.63589 83.3357 2.86934 83.6189 3.33733H83.6414V0.371549H84.8206V6.51684C84.8206 7.0199 84.8341 7.48351 84.8622 7.90876ZM83.6414 5.72991V4.86845C83.6414 4.71939 83.6302 4.59883 83.6088 4.50677C83.5425 4.23057 83.3997 3.99822 83.1828 3.81081C82.9636 3.62339 82.6994 3.52913 82.3948 3.52913C81.9553 3.52913 81.6113 3.69901 81.3584 4.03987C81.1077 4.38073 80.9807 4.81584 80.9807 5.3474C80.9807 5.85814 81.101 6.27243 81.3426 6.59136C81.5978 6.93112 81.9418 7.10101 82.3723 7.10101C82.759 7.10101 83.0681 6.95962 83.3031 6.67576C83.5301 6.41381 83.6414 6.09816 83.6414 5.72991Z" fill="white"/>
<path d="M94.9376 5.28274C94.9376 6.07734 94.7049 6.72837 94.2395 7.2391C93.7516 7.76409 93.1064 8.02603 92.2982 8.02603C91.5214 8.02603 90.902 7.77505 90.4389 7.27089C89.978 6.76782 89.7476 6.13324 89.7476 5.36823C89.7476 4.56815 89.9848 3.91164 90.4614 3.402C90.938 2.89236 91.5787 2.63699 92.387 2.63699C93.1637 2.63699 93.7898 2.88797 94.262 3.39104C94.7116 3.87986 94.9376 4.51115 94.9376 5.28274ZM93.7168 5.32C93.7168 4.84324 93.6111 4.43443 93.4009 4.09358C93.1525 3.68148 92.8018 3.47543 92.3431 3.47543C91.871 3.47543 91.5113 3.68148 91.2629 4.09358C91.0515 4.43443 90.947 4.84982 90.947 5.34083C90.947 5.81759 91.0527 6.2264 91.2629 6.56725C91.518 6.97935 91.8733 7.1854 92.3319 7.1854C92.7815 7.1854 93.1356 6.97606 93.3897 6.55629C93.6066 6.20886 93.7168 5.79676 93.7168 5.32Z" fill="white"/>
<path d="M101.272 7.90877H100.095V4.94956C100.095 4.03769 99.7397 3.58175 99.0259 3.58175C98.6763 3.58175 98.3942 3.7067 98.1761 3.95768C97.958 4.20866 97.849 4.50459 97.849 4.84325V7.90767H96.6698V4.21853C96.6698 3.76478 96.6563 3.27268 96.6282 2.74002H97.6624L97.7175 3.54778H97.7501C97.8883 3.29679 98.0929 3.08965 98.3605 2.92415C98.6808 2.73125 99.0372 2.63371 99.4295 2.63371C99.923 2.63371 100.334 2.78934 100.661 3.1017C101.07 3.48421 101.272 4.05522 101.272 4.81366V7.90877Z" fill="white"/>
<path d="M109.2 3.60257H107.903V6.11242C107.903 6.75029 108.133 7.06923 108.59 7.06923C108.801 7.06923 108.977 7.05169 109.115 7.01552L109.145 7.88685C108.912 7.97233 108.607 8.01508 108.23 8.01508C107.765 8.01508 107.403 7.87698 107.141 7.60079C106.878 7.3246 106.747 6.85989 106.747 6.20777V3.60257H105.973V2.74221H106.747V1.79526L107.902 1.4555V2.74111H109.199V3.60257H109.2Z" fill="white"/>
<path d="M115.437 7.90876H114.258V4.97147C114.258 4.04535 113.902 3.58174 113.191 3.58174C112.644 3.58174 112.271 3.85026 112.067 4.3873C112.032 4.50019 112.012 4.63829 112.012 4.8005V7.90766H110.835V0.371549H112.012V3.48529H112.034C112.405 2.91866 112.937 2.63589 113.626 2.63589C114.114 2.63589 114.517 2.79152 114.838 3.10388C115.237 3.49296 115.437 4.07165 115.437 4.83666V7.90876Z" fill="white"/>
<path d="M121.87 5.08107C121.87 5.28712 121.854 5.46029 121.826 5.60167H118.293C118.309 6.11241 118.477 6.50149 118.805 6.7711C119.104 7.01223 119.489 7.13279 119.961 7.13279C120.484 7.13279 120.961 7.05168 121.39 6.88838L121.574 7.68627C121.072 7.89889 120.481 8.0052 119.796 8.0052C118.975 8.0052 118.329 7.76956 117.861 7.29828C117.392 6.827 117.159 6.19461 117.159 5.4011C117.159 4.62184 117.376 3.97301 117.813 3.4557C118.269 2.90331 118.887 2.62712 119.666 2.62712C120.428 2.62712 121.007 2.90331 121.398 3.4557C121.714 3.8941 121.87 4.43662 121.87 5.08107ZM120.746 4.78405C120.755 4.4432 120.677 4.14947 120.518 3.90177C120.313 3.58283 120.002 3.42282 119.58 3.42282C119.196 3.42282 118.882 3.57845 118.643 3.89081C118.447 4.1396 118.331 4.43662 118.293 4.78405H120.746Z" fill="white"/>
<path d="M45.9232 27.7146H43.3703L41.9719 23.4303H37.1113L35.7792 27.7146H33.2938L38.1095 13.129H41.0839L45.9232 27.7146ZM41.5504 21.6329L40.2858 17.8243C40.152 17.4352 39.9013 16.5189 39.5315 15.0766H39.4865C39.3393 15.6969 39.1021 16.6132 38.7761 17.8243L37.534 21.6329H41.5504Z" fill="white"/>
<path d="M58.3074 22.3267C58.3074 24.1154 57.8117 25.5292 56.8202 26.5671C55.9322 27.491 54.8294 27.9525 53.5131 27.9525C52.0923 27.9525 51.0716 27.4549 50.4499 26.4597H50.405V32H48.0084V20.6597C48.0084 19.5352 47.978 18.3811 47.9196 17.1974H50.0273L50.161 18.8644H50.206C51.0052 17.6084 52.2182 16.9815 53.8459 16.9815C55.1183 16.9815 56.1806 17.4714 57.0304 18.4523C57.8825 19.4343 58.3074 20.7254 58.3074 22.3267ZM55.8659 22.4122C55.8659 21.3885 55.6298 20.5446 55.1554 19.8804C54.6372 19.1877 53.9414 18.8414 53.0691 18.8414C52.4778 18.8414 51.9405 19.0343 51.4605 19.4146C50.9794 19.7982 50.6646 20.2991 50.5174 20.9194C50.4432 21.2088 50.4061 21.4455 50.4061 21.6318V23.3854C50.4061 24.1504 50.6467 24.796 51.1278 25.3232C51.6089 25.8503 52.2339 26.1134 53.0028 26.1134C53.9054 26.1134 54.608 25.7736 55.1105 25.0963C55.6141 24.4179 55.8659 23.5235 55.8659 22.4122Z" fill="white"/>
<path d="M70.7142 22.3267C70.7142 24.1154 70.2185 25.5292 69.2259 26.5671C68.339 27.491 67.2362 27.9525 65.9199 27.9525C64.499 27.9525 63.4783 27.4549 62.8578 26.4597H62.8129V32H60.4163V20.6597C60.4163 19.5352 60.3859 18.3811 60.3275 17.1974H62.4352L62.5689 18.8644H62.6139C63.412 17.6084 64.6249 16.9815 66.2538 16.9815C67.5251 16.9815 68.5874 17.4714 69.4395 18.4523C70.2882 19.4343 70.7142 20.7254 70.7142 22.3267ZM68.2726 22.4122C68.2726 21.3885 68.0355 20.5446 67.5611 19.8804C67.0429 19.1877 66.3493 18.8414 65.4759 18.8414C64.8835 18.8414 64.3473 19.0343 63.8661 19.4146C63.385 19.7982 63.0714 20.2991 62.9241 20.9194C62.8511 21.2088 62.8129 21.4455 62.8129 21.6318V23.3854C62.8129 24.1504 63.0534 24.796 63.5323 25.3232C64.0134 25.8492 64.6384 26.1134 65.4095 26.1134C66.3122 26.1134 67.0148 25.7736 67.5172 25.0963C68.0208 24.4179 68.2726 23.5235 68.2726 22.4122Z" fill="white"/>
<path d="M84.5857 23.6243C84.5857 24.865 84.1439 25.8744 83.257 26.6537C82.2824 27.5053 80.9256 27.9305 79.1821 27.9305C77.5724 27.9305 76.2819 27.628 75.305 27.0219L75.8603 25.0744C76.9125 25.6947 78.067 26.006 79.3248 26.006C80.2275 26.006 80.9301 25.8065 81.4348 25.4097C81.9373 25.013 82.1879 24.4803 82.1879 23.8161C82.1879 23.2243 81.9811 22.7256 81.5663 22.3212C81.1538 21.9168 80.4647 21.5408 79.5024 21.1934C76.8833 20.241 75.5748 18.8458 75.5748 17.0111C75.5748 15.812 76.0335 14.8289 76.9519 14.0639C77.8669 13.2978 79.0876 12.9153 80.6142 12.9153C81.9755 12.9153 83.1063 13.1466 84.009 13.608L83.4098 15.5128C82.5667 15.0657 81.6135 14.8421 80.5467 14.8421C79.7037 14.8421 79.0449 15.0448 78.5728 15.4482C78.1738 15.8087 77.9737 16.2482 77.9737 16.7688C77.9737 17.3453 78.2019 17.8221 78.6605 18.1969C79.0595 18.5433 79.7846 18.9181 80.8368 19.3225C82.1239 19.8278 83.0692 20.4185 83.6774 21.0959C84.2833 21.771 84.5857 22.616 84.5857 23.6243Z" fill="white"/>
<path d="M92.5095 18.951H89.8678V24.0572C89.8678 25.356 90.3332 26.0048 91.2662 26.0048C91.6945 26.0048 92.0497 25.9687 92.3307 25.8963L92.3971 27.6708C91.9249 27.8428 91.3033 27.9294 90.5333 27.9294C89.5868 27.9294 88.8471 27.6478 88.3132 27.0855C87.7815 26.5222 87.5139 25.5774 87.5139 24.2501V18.9488H85.9402V17.1952H87.5139V15.2695L89.8678 14.5768V17.1952H92.5095V18.951Z" fill="white"/>
<path d="M104.428 22.3694C104.428 23.986 103.954 25.3133 103.007 26.3512C102.015 27.4198 100.697 27.9524 99.0551 27.9524C97.4724 27.9524 96.2123 27.4406 95.2725 26.4169C94.3327 25.3933 93.8629 24.1011 93.8629 22.5437C93.8629 20.9139 94.3462 19.579 95.3163 18.5411C96.2842 17.5021 97.5904 16.9826 99.2327 16.9826C100.815 16.9826 102.089 17.4944 103.05 18.5192C103.97 19.5132 104.428 20.7966 104.428 22.3694ZM101.942 22.445C101.942 21.4751 101.729 20.6432 101.299 19.9494C100.796 19.1099 100.078 18.6912 99.1473 18.6912C98.1839 18.6912 97.4521 19.111 96.9497 19.9494C96.5191 20.6443 96.3067 21.4893 96.3067 22.4889C96.3067 23.4588 96.5191 24.2907 96.9497 24.9834C97.4679 25.8229 98.1918 26.2416 99.1259 26.2416C100.041 26.2416 100.759 25.8141 101.277 24.9615C101.719 24.2545 101.942 23.4139 101.942 22.445Z" fill="white"/>
<path d="M112.218 19.2524C111.981 19.2096 111.728 19.1877 111.463 19.1877C110.62 19.1877 109.968 19.4979 109.509 20.1193C109.11 20.6673 108.91 21.36 108.91 22.1963V27.7146H106.515L106.537 20.5095C106.537 19.2973 106.507 18.1937 106.447 17.1985H108.535L108.622 19.2107H108.689C108.942 18.5192 109.341 17.9624 109.887 17.5448C110.421 17.1689 110.998 16.9815 111.619 16.9815C111.841 16.9815 112.041 16.9968 112.218 17.0242V19.2524Z" fill="white"/>
<path d="M122.937 21.9584C122.937 22.3771 122.909 22.73 122.849 23.0182H115.659C115.687 24.0573 116.035 24.8519 116.702 25.3999C117.308 25.8898 118.092 26.1353 119.054 26.1353C120.119 26.1353 121.09 25.9698 121.963 25.6377L122.339 27.2598C121.318 27.6938 120.113 27.9097 118.722 27.9097C117.05 27.9097 115.737 27.4297 114.781 26.4706C113.828 25.5116 113.35 24.2238 113.35 22.6083C113.35 21.0224 113.794 19.7017 114.684 18.6485C115.614 17.524 116.872 16.9617 118.455 16.9617C120.01 16.9617 121.187 17.524 121.986 18.6485C122.619 19.5417 122.937 20.6465 122.937 21.9584ZM120.651 21.3523C120.667 20.6596 120.511 20.0612 120.186 19.556C119.771 18.906 119.134 18.5816 118.276 18.5816C117.493 18.5816 116.855 18.8984 116.369 19.534C115.97 20.0393 115.732 20.6454 115.659 21.3512H120.651V21.3523Z" fill="white"/>
</svg>
